<svg width="73" height="56" viewBox="0 0 73 56" fill="none" xmlns="http://www.w3.org/2000/svg">
<path d="M41.6129 19.6924C38.0773 19.6924 35.2109 22.5586 35.2109 26.0943C35.2109 29.6299 38.0771 32.4963 41.6129 32.4963C45.1485 32.4963 48.0148 29.6301 48.0148 26.0943C48.0148 22.5586 45.1486 19.6924 41.6129 19.6924ZM41.6129 29.4476C39.7608 29.4476 38.2595 27.9462 38.2595 26.0942C38.2595 24.2421 39.7608 22.7408 41.6129 22.7408C43.4649 22.7408 44.9663 24.2421 44.9663 26.0942C44.9663 27.9462 43.4649 29.4476 41.6129 29.4476Z" fill="#C4C4C4"/>
<path d="M67.1425 5.05936L25.5301 0.334275C23.9151 0.104666 22.2789 0.576139 21.0337 1.62995C19.7886 2.59536 18.9905 4.02641 18.8235 5.59298L18.0614 11.8425L15.6987 11.8425C12.3452 11.8425 9.83018 14.8147 9.83018 18.1681L9.83018 49.3392C9.74572 52.5369 12.2695 55.1979 15.4674 55.2823C15.5445 55.2844 15.6216 55.2848 15.6987 55.2838L57.5395 55.2838C60.893 55.2838 63.9415 52.6926 63.9415 49.3392L63.9415 48.1198C64.9812 47.9189 65.9674 47.5036 66.8376 46.9004C68.0724 45.8608 68.8631 44.3884 69.0478 42.7849L72.5536 11.8425C72.911 8.48134 70.4989 5.45775 67.1425 5.05936ZM60.893 49.3392C60.893 51.0159 59.2163 52.2353 57.5395 52.2353L15.6987 52.2353C14.184 52.2798 12.9201 51.088 12.8756 49.5733C12.8733 49.4953 12.8743 49.4172 12.8787 49.3392L12.8787 43.6995L24.6918 35.0112C26.1109 33.9216 28.1097 34.0185 29.417 35.2398L37.7243 42.5562C38.9858 43.6154 40.5738 44.2075 42.2209 44.2329C43.5087 44.2487 44.7754 43.9057 45.8792 43.2421L60.8931 34.5539L60.8931 49.3392L60.893 49.3392ZM60.893 30.9719L44.2785 40.6509C42.8518 41.4961 41.046 41.3431 39.7819 40.2699L31.3985 32.8772C28.9957 30.8126 25.4839 30.6859 22.9388 32.5723L12.8787 39.8887L12.8787 18.1681C12.8787 16.4914 14.0219 14.891 15.6987 14.891L57.5395 14.891C59.3309 14.9653 60.7776 16.3791 60.893 18.1681L60.893 30.9719ZM69.508 11.431C69.507 11.441 69.5061 11.4512 69.5049 11.4613L65.9229 42.4038C65.9291 43.2061 65.5632 43.966 64.9321 44.4615C64.6273 44.7664 63.9413 44.9188 63.9413 45.0713L63.9413 18.1681C63.821 14.6961 61.0126 11.9211 57.5394 11.8425L21.1098 11.8425L21.7957 5.89786C21.9445 5.12807 22.347 4.43049 22.9389 3.91628C23.6074 3.45414 24.4155 3.23868 25.2254 3.30651L66.7616 8.10789C68.4374 8.26704 69.6671 9.75484 69.508 11.431Z" fill="#C4C4C4"/>
<path d="M15.8545 54.8073L16.3545 54.8073L16.3545 54.3073L16.3545 34.2772L22.8039 40.5675L23.1535 40.9085L23.5026 40.567L26.3691 37.7634L26.7346 37.4059L26.3691 37.0485L14.1711 25.1181L13.8215 24.7762L13.4719 25.1181L1.27388 37.0485L0.908409 37.4059L1.27388 37.7634L4.14042 40.567L4.48954 40.9085L4.83914 40.5675L11.2885 34.2772L11.2885 54.3073L11.2885 54.8073L11.7885 54.8073L15.8545 54.8073Z" fill="#C4C4C4" stroke="white"/>
</svg>
