<?xml version="1.0" encoding="utf-8"?>
<!-- Generator: Adobe Illustrator 26.0.1, SVG Export Plug-In . SVG Version: 6.00 Build 0)  -->
<svg version="1.1" id="Layer_1" xmlns="http://www.w3.org/2000/svg" xmlns:xlink="http://www.w3.org/1999/xlink" x="0px" y="0px"
	 viewBox="0 0 27.36 39.78" style="enable-background:new 0 0 27.36 39.78;" xml:space="preserve">
<path d="M25.19,7.11c-2.36-4.07-6.55-6.56-11.21-6.65c-0.2,0-0.4,0-0.6,0C8.72,0.55,4.53,3.04,2.17,7.11
	c-2.41,4.16-2.48,9.16-0.18,13.37l9.64,17.65c0,0.01,0.01,0.02,0.01,0.02c0.42,0.74,1.18,1.18,2.03,1.18c0.85,0,1.61-0.44,2.03-1.18
	c0-0.01,0.01-0.02,0.01-0.02l9.64-17.65C27.67,16.27,27.6,11.27,25.19,7.11L25.19,7.11z M13.68,18.07c-3.01,0-5.47-2.45-5.47-5.47
	c0-3.01,2.45-5.47,5.47-5.47c3.01,0,5.47,2.45,5.47,5.47C19.15,15.62,16.69,18.07,13.68,18.07L13.68,18.07z M13.68,18.07"/>
</svg>
