<?xml version="1.0" encoding="utf-8"?>
<!-- Generator: Adobe Illustrator 26.0.1, SVG Export Plug-In . SVG Version: 6.00 Build 0)  -->
<svg version="1.1" id="Layer_1" xmlns="http://www.w3.org/2000/svg" xmlns:xlink="http://www.w3.org/1999/xlink" x="0px" y="0px"
	 viewBox="0 0 27.36 30.86" style="enable-background:new 0 0 27.36 30.86;" xml:space="preserve">
<style type="text/css">
	.st0{fill:#121212;}
</style>
<g>
	<path class="st0" d="M2.07,26.56c0-7.86,0-15.72,0-23.58c0,0,0-0.01,0-0.01c0.11-0.34,0.41-0.56,0.74-0.56h21.8
		c0.22,0,0.44,0.11,0.56,0.31c0,0,0,0,0,0.01c0.08,0.12,0.11,0.27,0.11,0.42v23.41c-0.26,0.72-0.73,0.8-1.2,0.21
		c-0.1-0.13-0.2-0.26-0.31-0.39c-0.06,0.06-0.1,0.09-0.14,0.13c-0.63,0.69-1.26,1.39-1.89,2.08c-0.32,0.35-0.64,0.35-0.96,0.01
		c-0.2-0.21-0.39-0.42-0.59-0.63c-0.49-0.52-0.97-1.04-1.46-1.57c-0.07,0.07-0.13,0.12-0.18,0.18c-0.6,0.64-1.2,1.28-1.81,1.91
		c-0.38,0.4-0.65,0.4-1.03,0.02c-0.65-0.66-1.29-1.32-1.94-1.98c-0.05-0.05-0.1-0.09-0.16-0.15c-0.63,0.71-1.24,1.41-1.86,2.11
		c-0.13,0.14-0.28,0.26-0.42,0.39c-0.11,0-0.21,0-0.32,0c-0.14-0.12-0.29-0.23-0.42-0.37c-0.36-0.39-0.72-0.79-1.08-1.18
		c-0.29-0.32-0.57-0.63-0.86-0.95c-0.07,0.07-0.13,0.13-0.19,0.19c-0.64,0.67-1.27,1.34-1.91,2.01c-0.33,0.34-0.64,0.34-0.96-0.01
		c-0.61-0.67-1.21-1.34-1.81-2.02c-0.06-0.07-0.09-0.16-0.14-0.26c-0.21,0.26-0.35,0.45-0.5,0.64c-0.22,0.26-0.57,0.32-0.8,0.09
		C2.22,26.9,2.16,26.72,2.07,26.56z M11.19,27.29c0.06-0.08,0.1-0.16,0.15-0.22c0.6-0.68,1.19-1.36,1.79-2.04
		c0.29-0.32,0.6-0.33,0.91-0.03c0.1,0.1,0.19,0.2,0.29,0.3c0.62,0.64,1.25,1.27,1.88,1.92c0.08-0.08,0.15-0.15,0.21-0.22
		c0.61-0.65,1.22-1.3,1.84-1.95c0.31-0.32,0.63-0.32,0.93,0c0.3,0.32,0.6,0.65,0.91,0.97c0.38,0.41,0.76,0.81,1.15,1.23
		c0.07-0.07,0.12-0.12,0.18-0.18c0.57-0.63,1.15-1.26,1.72-1.9c0.25-0.28,0.49-0.54,0.89-0.39V3.77H3.3v20.99
		c0.36-0.15,0.61,0.02,0.84,0.29c0.38,0.44,0.78,0.87,1.17,1.31c0.26,0.29,0.52,0.57,0.79,0.86c0.08-0.08,0.15-0.16,0.22-0.23
		c0.62-0.65,1.23-1.3,1.85-1.94c0.35-0.37,0.65-0.36,1,0.02c0.6,0.66,1.2,1.33,1.8,1.99C11.03,27.13,11.1,27.19,11.19,27.29z"/>
	<g>
		<path class="st0" d="M13.69,7.94c1.62,0,3.23,0,4.85,0c0.44,0,0.7,0.42,0.5,0.81c-0.11,0.21-0.29,0.29-0.51,0.29
			c-0.72,0-1.43,0-2.15,0c-2.47,0-4.94,0-7.41,0c-0.09,0-0.18,0.01-0.26-0.01C8.43,9,8.24,8.75,8.26,8.46
			c0.01-0.28,0.21-0.5,0.48-0.51c0.31-0.01,0.63,0,0.94,0C11.01,7.94,12.35,7.94,13.69,7.94z"/>
		<path class="st0" d="M13.68,12.7c-1.62,0-3.23,0-4.85,0c-0.26,0-0.46-0.09-0.56-0.38c-0.1-0.31,0.09-0.65,0.4-0.71
			c0.09-0.02,0.17-0.01,0.26-0.01c3.15,0,6.3,0,9.46,0c0.04,0,0.09,0,0.13,0c0.35,0.01,0.58,0.24,0.57,0.57
			c-0.01,0.32-0.23,0.53-0.57,0.53C16.91,12.7,15.3,12.7,13.68,12.7z"/>
		<path class="st0" d="M13.66,16.36c-1.56,0-3.13,0-4.69,0c-0.09,0-0.18,0-0.26-0.01c-0.26-0.03-0.44-0.24-0.45-0.51
			c-0.01-0.28,0.16-0.52,0.42-0.57c0.08-0.01,0.16-0.01,0.23-0.01c3.17,0,6.34,0,9.51,0c0.41,0,0.62,0.17,0.64,0.51
			c0.02,0.34-0.18,0.58-0.51,0.59c-0.41,0.01-0.82,0-1.23,0C16.1,16.36,14.88,16.36,13.66,16.36z"/>
		<path class="st0" d="M12.26,18.93c1.14,0,2.29,0,3.43,0c0.35,0,0.58,0.22,0.56,0.56c-0.01,0.27-0.15,0.45-0.39,0.51
			c-0.09,0.02-0.19,0.02-0.29,0.02c-2.22,0-4.43,0-6.65,0c-0.06,0-0.12,0-0.18,0c-0.3-0.03-0.49-0.27-0.48-0.57
			c0.01-0.3,0.21-0.52,0.52-0.52C9.94,18.93,11.1,18.93,12.26,18.93z"/>
	</g>
</g>
</svg>
