<?xml version="1.0" encoding="UTF-8"?>
<svg version="1.1" xmlns="http://www.w3.org/2000/svg" width="122" height="250">
<path d="M0 0 C40.26 0 80.52 0 122 0 C122 82.5 122 165 122 250 C81.74 250 41.48 250 0 250 C0 167.5 0 85 0 0 Z " fill="#FDFDFD" transform="translate(0,0)"/>
<path d="M0 0 C1.47146484 -0.01160156 1.47146484 -0.01160156 2.97265625 -0.0234375 C9.0832812 -0.0071642 14.60469616 0.66136918 20.5 2.25 C21.7375 2.559375 22.975 2.86875 24.25 3.1875 C27.38425462 4.21216017 29.72697007 5.49861268 32.5 7.25 C33.386875 7.476875 34.27375 7.70375 35.1875 7.9375 C37.5 9.25 37.5 9.25 38.2578125 11.15234375 C38.76007158 13.16491711 39.13763819 15.20759709 39.5 17.25 C42.79201287 13.95798713 41.95967456 9.60792824 42.15625 5.12109375 C42.32640625 3.69990234 42.32640625 3.69990234 42.5 2.25 C43.16 1.92 43.82 1.59 44.5 1.25 C44.5 8.84 44.5 16.43 44.5 24.25 C43.84 24.25 43.18 24.25 42.5 24.25 C42.75561323 26.5931213 43.09270772 28.92843403 43.5 31.25 C44.16 31.58 44.82 31.91 45.5 32.25 C46.55552085 56.25187044 46.73353488 80.2281758 46.5 104.25 C46.49139954 105.13852661 46.48279907 106.02705322 46.47393799 106.94250488 C46.41951877 112.13251663 46.3423575 117.32150844 46.23553467 122.51071167 C46.20386275 124.11082777 46.17662064 125.71103856 46.15411377 127.31130981 C46.12096205 129.52452448 46.06900866 131.73651394 46.01171875 133.94921875 C45.98553467 135.19533936 45.95935059 136.44145996 45.93237305 137.7253418 C45.43024452 141.81863909 44.24159754 144.52794772 42.5 148.25 C41.88155538 150.54817074 41.3160762 152.86145754 40.8125 155.1875 C40.56113281 156.33089844 40.30976562 157.47429687 40.05078125 158.65234375 C39.86902344 159.50957031 39.68726562 160.36679688 39.5 161.25 C38.18 161.58 36.86 161.91 35.5 162.25 C35.5 162.91 35.5 163.57 35.5 164.25 C33.52 164.58 31.54 164.91 29.5 165.25 C29.5 165.91 29.5 166.57 29.5 167.25 C13.1288002 173.73364349 -4.5883034 174.76616412 -21.5 169.25 C-23.51967678 168.29036167 -25.52594114 167.30028169 -27.5 166.25 C-27.5 165.59 -27.5 164.93 -27.5 164.25 C-28.11875 164.105625 -28.7375 163.96125 -29.375 163.8125 C-31.5 163.25 -31.5 163.25 -33.5 162.25 C-33.5 161.59 -33.5 160.93 -33.5 160.25 C-35.15 159.92 -36.8 159.59 -38.5 159.25 C-40.1277833 153.10221129 -40.70190089 147.60987804 -40.5 141.25 C-39.84 141.91 -39.18 142.57 -38.5 143.25 C-38.31824219 142.29738281 -38.13648438 141.34476563 -37.94921875 140.36328125 C-37.69785156 139.10902344 -37.44648437 137.85476562 -37.1875 136.5625 C-36.94386719 135.32113281 -36.70023438 134.07976562 -36.44921875 132.80078125 C-35.55181291 129.44381866 -34.44603209 127.10090976 -32.5 124.25 C-33.49 125.24 -34.48 126.23 -35.5 127.25 C-35.56058594 126.53972656 -35.62117188 125.82945312 -35.68359375 125.09765625 C-35.76738281 124.17855469 -35.85117187 123.25945312 -35.9375 122.3125 C-36.01871094 121.39597656 -36.09992187 120.47945313 -36.18359375 119.53515625 C-36.26044976 117.28840268 -36.26044976 117.28840268 -37.5 116.25 C-37.65191701 114.800142 -37.73809601 113.34331865 -37.79711914 111.88671875 C-37.83707001 110.95110107 -37.87702087 110.0154834 -37.91818237 109.05151367 C-37.95678375 108.02388916 -37.99538513 106.99626465 -38.03515625 105.9375 C-38.07826935 104.87313721 -38.12138245 103.80877441 -38.165802 102.7121582 C-38.30427679 99.22498214 -38.43422999 95.73756554 -38.5625 92.25 C-38.60702301 91.07050781 -38.65154602 89.89101562 -38.69741821 88.67578125 C-39.23839421 74.20174457 -39.69601812 59.73516643 -39.6875 45.25 C-39.6882251 43.98027344 -39.6889502 42.71054688 -39.68969727 41.40234375 C-39.64474223 33.97516646 -39.23517423 26.64065827 -38.5 19.25 C-37.18 19.58 -35.86 19.91 -34.5 20.25 C-34.5 16.62 -34.5 12.99 -34.5 9.25 C-31.16666667 7.58333333 -27.83333333 5.91666667 -24.5 4.25 C-23.8699707 3.91629395 -23.23994141 3.58258789 -22.59082031 3.23876953 C-15.48999043 -0.1192829 -7.69939925 -0.06070486 0 0 Z " fill="#C5C1C0" transform="translate(57.5,69.75)"/>
<path d="M0 0 C1.49531461 0.63612831 2.9958682 1.26001015 4.5 1.875 C8.54639833 3.63401283 11.02056299 5.69846169 14 9 C15.07517091 9.84383829 16.1587562 10.67705254 17.25 11.5 C20.13727362 14.1247942 20.78216961 15.18796825 21 19 C22.485 19.495 22.485 19.495 24 20 C25.15662264 26.43328231 25.13467511 32.76177664 25.140625 39.28515625 C25.15894084 41.69597308 25.17851 44.10678066 25.19921875 46.51757812 C25.22824977 50.298745 25.25000216 54.07930984 25.25048828 57.8605957 C25.25381926 61.52348598 25.2883315 65.18500414 25.328125 68.84765625 C25.3210553 69.97591324 25.3139856 71.10417023 25.30670166 72.26661682 C25.4136253 79.15850154 26.17009152 82.10628761 31 87 C31 88.32 31 89.64 31 91 C29.02 91 27.04 91 25 91 C25.00444122 92.26898132 25.00888245 93.53796265 25.01345825 94.84539795 C25.05396942 106.79365125 25.08396763 118.74189064 25.10362434 130.69019699 C25.1140697 136.83320728 25.12824269 142.9761622 25.15087891 149.11914062 C25.17258035 155.04540808 25.18456296 160.97162222 25.18975449 166.89792633 C25.19345509 169.16099131 25.20068125 171.42405331 25.21146011 173.68709564 C25.22593904 176.85233407 25.22797943 180.01735107 25.22705078 183.18261719 C25.23424133 184.12201141 25.24143188 185.06140564 25.24884033 186.02926636 C25.246091 186.89300873 25.24334167 187.7567511 25.24050903 188.64666748 C25.24235262 189.39516338 25.24419621 190.14365929 25.24609566 190.91483688 C25 193 25 193 23 197 C23 161.03 23 125.06 23 88 C21.515 87.505 21.515 87.505 20 87 C20 84.69 20 82.38 20 80 C20.66 80 21.32 80 22 80 C21.67 72.74 21.34 65.48 21 58 C20.9175 60.083125 20.835 62.16625 20.75 64.3125 C20.50384615 70.52788462 20.50384615 70.52788462 17.953125 72.91796875 C16.98632812 73.45357422 16.98632812 73.45357422 16 74 C15.505 69.545 15.505 69.545 15 65 C14.278125 64.896875 13.55625 64.79375 12.8125 64.6875 C10 64 10 64 7.75390625 62.59375 C-1.50704223 57.23422237 -12.4903936 56.63423928 -22.9375 56.625 C-23.89575684 56.62346924 -24.85401367 56.62193848 -25.84130859 56.62036133 C-34.67380281 56.75767386 -42.1172813 58.27784147 -50.0625 62.125 C-51.18785156 62.66382812 -52.31320313 63.20265625 -53.47265625 63.7578125 C-54.30667969 64.16773437 -55.14070313 64.57765625 -56 65 C-56.33 68.63 -56.66 72.26 -57 76 C-58.32 75.67 -59.64 75.34 -61 75 C-61.23625464 99.60682892 -61.01657204 124.15833265 -60.0625 148.75 C-60.01893372 149.90971313 -59.97536743 151.06942627 -59.93048096 152.26428223 C-59.80519199 155.54628191 -59.67208956 158.82784253 -59.53515625 162.109375 C-59.49655991 163.09893188 -59.45796356 164.08848877 -59.41819763 165.10803223 C-59.37824173 166.00534058 -59.33828583 166.90264893 -59.29711914 167.82714844 C-59.26380997 168.61297302 -59.23050079 169.39879761 -59.19618225 170.20843506 C-59.18674325 172.02190164 -59.18674325 172.02190164 -58 173 C-57.76807135 174.51469448 -57.58784762 176.03754562 -57.4375 177.5625 C-57.35371094 178.38878906 -57.26992188 179.21507812 -57.18359375 180.06640625 C-57.12300781 180.70449219 -57.06242187 181.34257812 -57 182 C-56.34 180.02 -55.68 178.04 -55 176 C-54.3125 177.6875 -54.3125 177.6875 -54 180 C-54.45632812 180.72316406 -54.91265625 181.44632813 -55.3828125 182.19140625 C-57.30548561 185.53054144 -57.87037986 188.46904657 -58.5625 192.25 C-58.97794197 194.51263313 -59.44205731 196.76822926 -60 199 C-60.66 199.33 -61.32 199.66 -62 200 C-62 199.01 -62 198.02 -62 197 C-62.99 197 -63.98 197 -65 197 C-65.76638304 170.72692199 -66.09473903 144.47036962 -66.0625 118.1875 C-66.06164398 117.48463615 -66.06078796 116.78177231 -66.05990601 116.05760956 C-66.04853928 107.37171581 -66.02849813 98.68585464 -66 90 C-67.65 90 -69.3 90 -71 90 C-69.63016497 86.83884224 -69.0109362 86.0072908 -66 84 C-65.54968673 81.44716909 -65.54968673 81.44716909 -65.63110352 78.42382812 C-65.62422012 77.25501099 -65.61733673 76.08619385 -65.61024475 74.88195801 C-65.61640305 73.61122437 -65.62256134 72.34049072 -65.62890625 71.03125 C-65.61596958 69.03643245 -65.60300984 67.04161477 -65.58873653 65.04680634 C-65.5587482 60.12435853 -65.56221028 55.20181639 -65.56420898 50.27929688 C-65.56425044 47.52258905 -65.55355886 44.76626962 -65.53245544 42.00964355 C-65.51384593 39.41636692 -65.51178749 36.8229025 -65.52870178 34.22961426 C-65.44176565 23.88591577 -63.4512978 15.4512978 -56 8 C-51.7 5 -51.7 5 -49 5 C-49 4.34 -49 3.68 -49 3 C-47.02 2.67 -45.04 2.34 -43 2 C-43 1.01 -43 0.02 -43 -1 C-31.68060676 -10.16331834 -11.61516159 -7.4456164 0 0 Z " fill="#D9D7D5" transform="translate(80,14)"/>
<path d="M0 0 C1.47146484 -0.01160156 1.47146484 -0.01160156 2.97265625 -0.0234375 C9.0832812 -0.0071642 14.60469616 0.66136918 20.5 2.25 C21.7375 2.559375 22.975 2.86875 24.25 3.1875 C27.38425462 4.21216017 29.72697007 5.49861268 32.5 7.25 C33.386875 7.476875 34.27375 7.70375 35.1875 7.9375 C37.5 9.25 37.5 9.25 38.2578125 11.15234375 C38.76007158 13.16491711 39.13763819 15.20759709 39.5 17.25 C42.79201287 13.95798713 41.95967456 9.60792824 42.15625 5.12109375 C42.32640625 3.69990234 42.32640625 3.69990234 42.5 2.25 C43.16 1.92 43.82 1.59 44.5 1.25 C44.5 8.84 44.5 16.43 44.5 24.25 C43.84 24.25 43.18 24.25 42.5 24.25 C42.75561323 26.5931213 43.09270772 28.92843403 43.5 31.25 C44.16 31.58 44.82 31.91 45.5 32.25 C46.55552085 56.25187044 46.73353488 80.2281758 46.5 104.25 C46.49139954 105.13852661 46.48279907 106.02705322 46.47393799 106.94250488 C46.41951877 112.13251663 46.3423575 117.32150844 46.23553467 122.51071167 C46.20386275 124.11082777 46.17662064 125.71103856 46.15411377 127.31130981 C46.12096205 129.52452448 46.06900866 131.73651394 46.01171875 133.94921875 C45.98553467 135.19533936 45.95935059 136.44145996 45.93237305 137.7253418 C45.43091774 141.81315106 44.22842339 144.52895693 42.5 148.25 C41.77550699 151.64246725 41.19224494 155.03325638 40.63671875 158.45703125 C39.5 161.25 39.5 161.25 36.54296875 162.66015625 C33.66004525 163.21897711 32.19755254 163.28752021 29.5 162.25 C34.25 158.25 34.25 158.25 36.5 158.25 C36.809375 157.280625 37.11875 156.31125 37.4375 155.3125 C38.5 152.25 38.5 152.25 39.5 151.25 C39.77858031 148.17548645 39.73182248 145.0856337 39.75 142 C39.770625 141.14019531 39.79125 140.28039062 39.8125 139.39453125 C39.84340617 134.38000521 39.48858891 131.44478032 36.5 127.25 C36.21263295 125.27036034 35.92936903 123.28848643 35.7421875 121.296875 C35.37127913 118.16210102 34.44575659 115.25416799 33.5 112.25 C33.149375 111.13625 32.79875 110.0225 32.4375 108.875 C31.74922156 106.35652612 31.74922156 106.35652612 30.5 105.25 C30.3858971 102.12799132 30.3357848 99.02906409 30.33203125 95.90625 C30.32703865 94.47061707 30.32703865 94.47061707 30.32194519 93.00598145 C30.3168643 90.96476726 30.31453722 88.92354472 30.31469727 86.88232422 C30.31254808 83.81853547 30.29451096 80.75512934 30.27539062 77.69140625 C30.24307163 66.05940866 30.78546548 54.75923796 32.5 43.25 C31.75275665 43.25444122 31.00551331 43.25888245 30.23562622 43.26345825 C23.20194454 43.30349184 16.16830216 43.33396237 9.13453865 43.35362434 C5.51819127 43.36407249 1.90193784 43.37825032 -1.71435547 43.40087891 C-5.20268811 43.4225708 -8.69093024 43.43456085 -12.1793251 43.43975449 C-14.16139971 43.44526169 -16.14343779 43.46088034 -18.12545776 43.47659302 C-19.32655182 43.47674408 -20.52764587 43.47689514 -21.76513672 43.47705078 C-22.82658905 43.481492 -23.88804138 43.48593323 -24.98165894 43.49050903 C-27.5 43.25 -27.5 43.25 -29.5 41.25 C-29.2834375 43.02310547 -29.2834375 43.02310547 -29.0625 44.83203125 C-22.36922387 104.67954107 -22.36922387 104.67954107 -34.5 127.25 C-34.83 127.25 -35.16 127.25 -35.5 127.25 C-35.56058594 126.53972656 -35.62117188 125.82945312 -35.68359375 125.09765625 C-35.76738281 124.17855469 -35.85117187 123.25945312 -35.9375 122.3125 C-36.01871094 121.39597656 -36.09992187 120.47945313 -36.18359375 119.53515625 C-36.26044976 117.28840268 -36.26044976 117.28840268 -37.5 116.25 C-37.65191701 114.800142 -37.73809601 113.34331865 -37.79711914 111.88671875 C-37.83707001 110.95110107 -37.87702087 110.0154834 -37.91818237 109.05151367 C-37.95678375 108.02388916 -37.99538513 106.99626465 -38.03515625 105.9375 C-38.07826935 104.87313721 -38.12138245 103.80877441 -38.165802 102.7121582 C-38.30427679 99.22498214 -38.43422999 95.73756554 -38.5625 92.25 C-38.60702301 91.07050781 -38.65154602 89.89101562 -38.69741821 88.67578125 C-39.23839421 74.20174457 -39.69601812 59.73516643 -39.6875 45.25 C-39.6882251 43.98027344 -39.6889502 42.71054688 -39.68969727 41.40234375 C-39.64474223 33.97516646 -39.23517423 26.64065827 -38.5 19.25 C-37.18 19.58 -35.86 19.91 -34.5 20.25 C-34.5 16.62 -34.5 12.99 -34.5 9.25 C-31.16666667 7.58333333 -27.83333333 5.91666667 -24.5 4.25 C-23.8699707 3.91629395 -23.23994141 3.58258789 -22.59082031 3.23876953 C-15.48999043 -0.1192829 -7.69939925 -0.06070486 0 0 Z " fill="#A8A6A6" transform="translate(57.5,69.75)"/>
<path d="M0 0 C0.86112747 3.7319636 1.13614697 7.20112852 1.16113281 11.02783203 C1.17074036 12.21901642 1.1803479 13.41020081 1.19024658 14.63748169 C1.19449646 15.91469086 1.19874634 17.19190002 1.203125 18.5078125 C1.20882507 19.82538544 1.21452515 21.14295837 1.22039795 22.50045776 C1.23087268 25.2826984 1.23673965 28.06491041 1.24023438 30.84716797 C1.24573879 34.41280469 1.26982234 37.97806333 1.29820633 41.54358101 C1.32128441 44.94831807 1.3232774 48.35300123 1.328125 51.7578125 C1.3404718 53.03907013 1.3528186 54.32032776 1.36553955 55.64041138 C1.36253845 56.82529144 1.35953735 58.01017151 1.35644531 59.23095703 C1.36191376 60.79718307 1.36191376 60.79718307 1.36749268 62.39505005 C1 65 1 65 -0.29112244 66.81811523 C-4.8521448 69.97258514 -12.52411185 69.12824485 -17.82421875 69.1328125 C-18.88815605 69.13424759 -18.88815605 69.13424759 -19.97358704 69.13571167 C-21.45838511 69.13638649 -22.94318626 69.13458143 -24.42797852 69.13037109 C-26.69228739 69.12498862 -28.95640011 69.13035216 -31.22070312 69.13671875 C-32.67187543 69.13605831 -34.12304762 69.13477786 -35.57421875 69.1328125 C-36.87963623 69.13168457 -38.18505371 69.13055664 -39.5300293 69.12939453 C-42.49680737 69.01876396 -45.12330025 68.69476835 -48 68 C-47.67 67.01 -47.34 66.02 -47 65 C-46.94928296 63.11355304 -46.96204734 61.22514205 -47.01000977 59.33862305 C-47.03656143 58.17699142 -47.0631131 57.0153598 -47.09046936 55.81852722 C-47.12377853 54.56228043 -47.15708771 53.30603363 -47.19140625 52.01171875 C-47.23473041 50.03898822 -47.27804215 48.06625732 -47.32062435 46.09351063 C-47.42720204 41.22723009 -47.54490357 36.36123181 -47.66870117 31.49536133 C-47.73771038 28.76627748 -47.80103377 26.03716917 -47.85838318 23.30781555 C-47.91279973 20.73777611 -47.97585341 18.16790177 -48.04847717 15.59831238 C-48.08357643 13.84168022 -48.08357643 13.84168022 -48.11938477 12.04956055 C-48.14460709 11.02380417 -48.16982941 9.99804779 -48.19581604 8.94120789 C-47.97898384 5.68433181 -47.15170589 3.04236123 -46 0 C-30.57360969 -1.47924291 -15.42134139 -1.06880584 0 0 Z " fill="#DEDCDA" transform="translate(83,116)"/>
<path d="M0 0 C1.47146484 -0.01160156 1.47146484 -0.01160156 2.97265625 -0.0234375 C9.0832812 -0.0071642 14.60469616 0.66136918 20.5 2.25 C21.7375 2.559375 22.975 2.86875 24.25 3.1875 C27.38425462 4.21216017 29.72697007 5.49861268 32.5 7.25 C33.4075 7.518125 34.315 7.78625 35.25 8.0625 C35.9925 8.454375 36.735 8.84625 37.5 9.25 C39.12168993 14.55292606 37.89488392 18.4902105 36.25 23.5625 C36.01764648 24.31144531 35.78529297 25.06039062 35.54589844 25.83203125 C34.87691759 27.97574735 34.19079899 30.11323313 33.5 32.25 C33.1803125 33.26449219 32.860625 34.27898437 32.53125 35.32421875 C30.68111639 41.06888361 30.68111639 41.06888361 29.5 42.25 C27.7507128 42.34365006 25.99763746 42.36744438 24.24584961 42.36352539 C23.12476303 42.36344986 22.00367645 42.36337433 20.84861755 42.36329651 C19.01896202 42.35555458 19.01896202 42.35555458 17.15234375 42.34765625 C15.91078018 42.3462413 14.66921661 42.34482635 13.39002991 42.34336853 C10.08394509 42.33870591 6.77792854 42.32971497 3.47186279 42.31866455 C0.1003885 42.30844827 -3.27109283 42.30387045 -6.64257812 42.29882812 C-13.26173775 42.28777395 -19.88086493 42.27101736 -26.5 42.25 C-28.11820157 38.29514223 -29.35210596 34.3689139 -30.5 30.25 C-30.76167969 29.48429687 -31.02335937 28.71859375 -31.29296875 27.9296875 C-33.26235989 22.03076005 -34.48425095 16.47595949 -33.5 10.25 C-30.18101223 4.76645499 -22.37290725 2.64818002 -16.41796875 1.1484375 C-10.94560691 -0.01214394 -5.57502678 -0.04395553 0 0 Z " fill="#1D1C20" transform="translate(57.5,69.75)"/>
<path d="M0 0 C0.70382813 -0.00064453 1.40765625 -0.00128906 2.1328125 -0.00195312 C7.1312047 0.04895643 11.39967386 0.61239129 16.125 2.1875 C16.62 4.1675 16.62 4.1675 17.125 6.1875 C15.80886719 6.16429687 14.49273437 6.14109375 13.13671875 6.1171875 C-1.73913142 5.15203606 -1.73913142 5.15203606 -15.55078125 9.25390625 C-17.63698963 12.30013973 -17.94676408 15.73532683 -18.5 19.3125 C-19.77027027 27.08277027 -19.77027027 27.08277027 -20.875 28.1875 C-21.19534874 29.71295234 -21.46281374 31.24958663 -21.70703125 32.7890625 C-21.94244629 34.2275354 -21.94244629 34.2275354 -22.18261719 35.69506836 C-22.34922852 36.7238208 -22.51583984 37.75257324 -22.6875 38.8125 C-24.24107255 48.12308632 -26.18742917 57.13839185 -28.875 66.1875 C-24.42 65.1975 -24.42 65.1975 -19.875 64.1875 C-21.40191602 67.24133204 -23.82716256 67.56836503 -26.9375 68.8125 C-28.59458984 69.48152344 -28.59458984 69.48152344 -30.28515625 70.1640625 C-31.56712891 70.67066406 -31.56712891 70.67066406 -32.875 71.1875 C-33.205 74.8175 -33.535 78.4475 -33.875 82.1875 C-35.195 81.8575 -36.515 81.5275 -37.875 81.1875 C-38.11125464 105.79432892 -37.89157204 130.34583265 -36.9375 154.9375 C-36.89393372 156.09721313 -36.85036743 157.25692627 -36.80548096 158.45178223 C-36.68019199 161.73378191 -36.54708956 165.01534253 -36.41015625 168.296875 C-36.37155991 169.28643188 -36.33296356 170.27598877 -36.29319763 171.29553223 C-36.25324173 172.19284058 -36.21328583 173.09014893 -36.17211914 174.01464844 C-36.13880997 174.80047302 -36.10550079 175.58629761 -36.07118225 176.39593506 C-36.06174325 178.20940164 -36.06174325 178.20940164 -34.875 179.1875 C-34.64307135 180.70219448 -34.46284762 182.22504562 -34.3125 183.75 C-34.22871094 184.57628906 -34.14492188 185.40257812 -34.05859375 186.25390625 C-33.99800781 186.89199219 -33.93742187 187.53007812 -33.875 188.1875 C-33.215 186.2075 -32.555 184.2275 -31.875 182.1875 C-31.1875 183.875 -31.1875 183.875 -30.875 186.1875 C-31.33132812 186.91066406 -31.78765625 187.63382813 -32.2578125 188.37890625 C-34.18048561 191.71804144 -34.74537986 194.65654657 -35.4375 198.4375 C-35.85294197 200.70013313 -36.31705731 202.95572926 -36.875 205.1875 C-37.535 205.5175 -38.195 205.8475 -38.875 206.1875 C-38.875 205.1975 -38.875 204.2075 -38.875 203.1875 C-39.865 203.1875 -40.855 203.1875 -41.875 203.1875 C-42.64138304 176.91442199 -42.96973903 150.65786962 -42.9375 124.375 C-42.93664398 123.67213615 -42.93578796 122.96927231 -42.93490601 122.24510956 C-42.92353928 113.55921581 -42.90349813 104.87335464 -42.875 96.1875 C-44.525 96.1875 -46.175 96.1875 -47.875 96.1875 C-46.50516497 93.02634224 -45.8859362 92.1947908 -42.875 90.1875 C-42.42468673 87.63466909 -42.42468673 87.63466909 -42.50610352 84.61132812 C-42.49922012 83.44251099 -42.49233673 82.27369385 -42.48524475 81.06945801 C-42.49140305 79.79872437 -42.49756134 78.52799072 -42.50390625 77.21875 C-42.49096958 75.22393245 -42.47800984 73.22911477 -42.46373653 71.23430634 C-42.4337482 66.31185853 -42.43721028 61.38931639 -42.43920898 56.46679688 C-42.43925044 53.71008905 -42.42855886 50.95376962 -42.40745544 48.19714355 C-42.38884593 45.60386692 -42.38678749 43.0104025 -42.40370178 40.41711426 C-42.31676565 30.07341577 -40.3262978 21.6387978 -32.875 14.1875 C-28.575 11.1875 -28.575 11.1875 -25.875 11.1875 C-25.875 10.5275 -25.875 9.8675 -25.875 9.1875 C-23.895 8.8575 -21.915 8.5275 -19.875 8.1875 C-19.875 7.1975 -19.875 6.2075 -19.875 5.1875 C-13.69303144 0.18304926 -7.69158605 -0.0072837 0 0 Z " fill="#C9C5C5" transform="translate(56.875,7.8125)"/>
<path d="M0 0 C1.37447548 0.00213753 1.37447548 0.00213753 2.77671814 0.00431824 C3.81441849 0.00124161 4.85211884 -0.00183502 5.92126465 -0.00500488 C7.60723 0.00577339 7.60723 0.00577339 9.32725525 0.01676941 C10.47624802 0.01722763 11.62524078 0.01768585 12.80905151 0.01815796 C15.24099254 0.0211829 17.67293159 0.02907637 20.10484314 0.04142761 C23.8424612 0.05967889 27.57983167 0.06193739 31.31748962 0.06169128 C33.67491366 0.06660644 36.032336 0.07243475 38.38975525 0.07926941 C40.07875694 0.08093864 40.07875694 0.08093864 41.80187988 0.0826416 C42.83642807 0.08902145 43.87097626 0.09540131 44.93687439 0.10197449 C46.31015648 0.10769218 46.31015648 0.10769218 47.71118164 0.11352539 C49.792099 0.24723816 49.792099 0.24723816 50.792099 1.24723816 C51.16758673 4.06046264 51.49867623 6.86283636 51.792099 9.68473816 C52.16097087 15.13092405 52.16097087 15.13092405 53.792099 20.24723816 C53.832091 22.24683828 53.83556699 24.24771058 53.792099 26.24723816 C37.99762042 35.10755541 14.90406947 32.54127077 -1.848526 28.31755066 C-5.207901 27.24723816 -5.207901 27.24723816 -7.207901 25.24723816 C-7.56580697 19.97806702 -6.82483068 15.08037335 -5.832901 9.93473816 C-5.70657288 9.219953 -5.58024475 8.50516785 -5.4500885 7.76872253 C-4.07161771 0.45593497 -4.07161771 0.45593497 0 0 Z " fill="#3C3B3E" transform="translate(36.20790100097656,185.7527618408203)"/>
<path d="M0 0 C3.375 0.25 3.375 0.25 6.9765625 1.25390625 C11.71988442 2.47156563 16.25094457 2.51285269 21.125 2.4375 C21.99882324 2.43032959 22.87264648 2.42315918 23.77294922 2.41577148 C34.88490475 2.82666019 34.88490475 2.82666019 45.375 0.25 C47.37460012 0.210008 49.37547242 0.20653201 51.375 0.25 C52.87656874 3.25313748 52.46781204 6.04067522 52.4375 9.375 C52.42847656 10.65632812 52.41945312 11.93765625 52.41015625 13.2578125 C52.39855469 14.24523437 52.38695312 15.23265625 52.375 16.25 C51.57707031 16.53617188 50.77914062 16.82234375 49.95703125 17.1171875 C47.24074479 18.01742594 47.24074479 18.01742594 46.0625 20.375 C45.835625 20.99375 45.60875 21.6125 45.375 22.25 C47.355 21.92 49.335 21.59 51.375 21.25 C45.03317208 27.59182792 33.35251217 27.66387939 24.875 27.6875 C14.06944833 27.57032203 4.05025269 26.39763817 -5.625 21.25 C-5.625 20.59 -5.625 19.93 -5.625 19.25 C-6.945 18.92 -8.265 18.59 -9.625 18.25 C-7.13407189 17.00453595 -6.21419267 17.4732422 -3.625 18.25 C-3.810625 16.97125 -3.99625 15.6925 -4.1875 14.375 C-4.75 10.5 -4.75 10.5 -3.625 8.25 C-3.810625 7.26 -3.99625 6.27 -4.1875 5.25 C-4.4040625 3.765 -4.4040625 3.765 -4.625 2.25 C-2.625 0.25 -2.625 0.25 0 0 Z " fill="#DAD8D6" transform="translate(35.625,214.75)"/>
<path d="M0 0 C0.02753831 1.5207267 0.04663375 3.04160674 0.0625 4.5625 C0.07410156 5.40941406 0.08570313 6.25632812 0.09765625 7.12890625 C0 10 0 10 -0.49560547 13.02587891 C-1.19909584 17.82624214 -1.16224673 22.61379513 -1.16796875 27.45703125 C-1.17129715 28.44120529 -1.17462555 29.42537933 -1.17805481 30.43937683 C-1.18309526 32.50767553 -1.18546403 34.57598228 -1.18530273 36.64428711 C-1.18750495 39.81963193 -1.20573368 42.9946377 -1.22460938 46.16992188 C-1.22754068 48.18229048 -1.22952723 50.19466073 -1.23046875 52.20703125 C-1.23765427 53.15906937 -1.24483978 54.11110748 -1.25224304 55.09199524 C-1.2476281 56.40927864 -1.2476281 56.40927864 -1.24291992 57.75317383 C-1.24434494 58.52703934 -1.24576996 59.30090485 -1.24723816 60.09822083 C-1.16523998 62.24145786 -1.16523998 62.24145786 1 64 C1.59765625 66.56640625 1.59765625 66.56640625 2.0625 69.5625 C2.35968163 73.09095166 2.35968163 73.09095166 4 76 C4.19305245 77.93052449 4.38310789 79.86180351 4.5234375 81.796875 C4.87937055 84.12340596 4.87937055 84.12340596 6.51171875 86.1796875 C8.65132671 90.23427267 8.47594946 93.85893583 8.4375 98.375 C8.4674707 99.6125 8.4674707 99.6125 8.49804688 100.875 C8.49337926 106.7561915 7.38980248 110.17771269 4 115 C1.25 117.4375 1.25 117.4375 -1 119 C0.32 119 1.64 119 3 119 C3 119.66 3 120.32 3 121 C-0.96 121.99 -4.92 122.98 -9 124 C-8.34 122.35 -7.68 120.7 -7 119 C-4.525 118.505 -4.525 118.505 -2 118 C-2.33 112.72 -2.66 107.44 -3 102 C-4.7325 102.495 -4.7325 102.495 -6.5 103 C-10.77500587 104.08401934 -14.60361453 104.15701377 -19 104 C-19 103.67 -19 103.34 -19 103 C-13.06 101.68 -7.12 100.36 -1 99 C-0.75360122 93.3350339 -0.75360122 93.3350339 -1.9375 89.3125 C-3 85 -3 85 -4 74 C-25.78 73.505 -25.78 73.505 -48 73 C-48 72.67 -48 72.34 -48 72 C-47.11328613 71.97494385 -46.22657227 71.9498877 -45.31298828 71.92407227 C-41.97679384 71.82809955 -38.6407247 71.72892585 -35.3046875 71.62768555 C-33.86950309 71.58476505 -32.43428154 71.5430666 -30.99902344 71.50268555 C-28.9185065 71.44392618 -26.83816945 71.38055569 -24.7578125 71.31640625 C-23.5114502 71.27974854 -22.26508789 71.24309082 -20.98095703 71.20532227 C-16.30956032 70.96438981 -11.6543917 70.46543917 -7 70 C-7 47.89 -7 25.78 -7 3 C-21.52 3 -36.04 3 -51 3 C-50.67 2.34 -50.34 1.68 -50 1 C-43.36141906 0.85713726 -36.72282759 0.71477152 -30.08422852 0.57275391 C-27.82511147 0.52436629 -25.56599687 0.47586424 -23.30688477 0.42724609 C-20.06266911 0.35744738 -16.81844492 0.2880581 -13.57421875 0.21875 C-12.05534309 0.18593933 -12.05534309 0.18593933 -10.50578308 0.15246582 C-9.09465996 0.12243469 -9.09465996 0.12243469 -7.6550293 0.09179688 C-6.82674118 0.07403198 -5.99845306 0.05626709 -5.14506531 0.03796387 C-3.43026539 0.00761494 -1.71506846 0 0 0 Z " fill="#CFCCCC" transform="translate(90,113)"/>
<path d="M0 0 C1.96658412 0.2304416 3.93282476 0.46396866 5.89794922 0.70654297 C12.92618976 1.37142138 20.00812093 1.38885157 27.0625 1.5625 C28.70769144 1.60577319 30.35287389 1.64939002 31.99804688 1.69335938 C35.99860506 1.79953838 39.99925663 1.90105517 44 2 C43.5148291 2.59925293 43.0296582 3.19850586 42.52978516 3.81591797 C40.54480818 6.64987967 40.53510454 8.69539223 40.375 12.125 C40.08174387 17.83651226 40.08174387 17.83651226 39 20 C34.6043999 20.11802706 30.20921714 20.18785559 25.8125 20.25 C23.97268555 20.30027344 23.97268555 20.30027344 22.09570312 20.3515625 C13.38558733 20.44348984 6.15784031 19.04193562 -2 16 C-1.85975781 13.52039864 -1.7130815 11.04147598 -1.5625 8.5625 C-1.52318359 7.85544922 -1.48386719 7.14839844 -1.44335938 6.41992188 C-1.11328125 1.11328125 -1.11328125 1.11328125 0 0 Z " fill="#1E1D20" transform="translate(34,186)"/>
<path d="M0 0 C1.47146484 -0.01160156 1.47146484 -0.01160156 2.97265625 -0.0234375 C9.0832812 -0.0071642 14.60469616 0.66136918 20.5 2.25 C21.7375 2.559375 22.975 2.86875 24.25 3.1875 C27.38425462 4.21216017 29.72697007 5.49861268 32.5 7.25 C33.4075 7.518125 34.315 7.78625 35.25 8.0625 C37.5 9.25 37.5 9.25 38.5 11.6875 C38.5 16.82037111 37.0333688 21.38133749 35.5 26.25 C35.17 26.25 34.84 26.25 34.5 26.25 C34.5 23.94 34.5 21.63 34.5 19.25 C33.324375 18.816875 33.324375 18.816875 32.125 18.375 C29.5 17.25 29.5 17.25 27.5 15.25 C24.61282395 14.5662387 24.61282395 14.5662387 21.375 14.125 C20.27929688 13.95742187 19.18359375 13.78984375 18.0546875 13.6171875 C16.79011719 13.43542969 16.79011719 13.43542969 15.5 13.25 C15.5 12.59 15.5 11.93 15.5 11.25 C1.17635209 8.93075649 -13.54154548 9.00060834 -26.40625 16.2265625 C-28.5 17.25 -28.5 17.25 -31.5 17.25 C-31.5 19.56 -31.5 21.87 -31.5 24.25 C-34.13448327 19.69761291 -34.16191445 15.39058232 -33.5 10.25 C-30.18101223 4.76645499 -22.37290725 2.64818002 -16.41796875 1.1484375 C-10.94560691 -0.01214394 -5.57502678 -0.04395553 0 0 Z " fill="#3C3B3D" transform="translate(57.5,69.75)"/>
<path d="M0 0 C0.33 0 0.66 0 1 0 C1.14681729 23.46366151 0.90969626 46.91527545 0.5 70.375 C0.48804218 71.05994034 0.47608437 71.74488068 0.46376419 72.45057678 C0.31458173 80.96715094 0.15988857 89.48362005 0 98 C-0.99 97.67 -1.98 97.34 -3 97 C-3.87145366 94.13922797 -4.54358443 91.42103181 -5.125 88.5 C-5.29386719 87.72140625 -5.46273437 86.9428125 -5.63671875 86.140625 C-7.98405661 74.97690793 -8.27374585 63.93405473 -8.3125 52.5625 C-8.31611542 51.74951447 -8.31973083 50.93652893 -8.32345581 50.09890747 C-8.35186105 34.14475958 -7.00298983 18.50685722 -3 3 C-2.34 3 -1.68 3 -1 3 C-0.67 2.01 -0.34 1.02 0 0 Z " fill="#2C2A2C" transform="translate(97,98)"/>
<path d="M0 0 C0.66 0 1.32 0 2 0 C2.82773837 3.87190015 3.63420926 7.7479604 4.4375 11.625 C4.78264648 13.23761719 4.78264648 13.23761719 5.13476562 14.8828125 C8.11257117 29.3834308 8.20454484 43.8860324 8.1875 58.625 C8.18722809 59.50719208 8.18695618 60.38938416 8.18667603 61.29830933 C8.17257034 71.23694651 8.15565021 81.16172022 7.1875 91.0625 C7.11748779 91.80258301 7.04747559 92.54266602 6.9753418 93.30517578 C6.41006679 98.02012162 5.01453509 101.75567812 3 106 C2.67 106 2.34 106 2 106 C0.52375837 79.7024828 -0.19196863 53.46041301 -0.125 27.125 C-0.12328796 26.44690781 -0.12157593 25.76881561 -0.11981201 25.07017517 C-0.09713558 16.71335026 -0.0571389 8.35666131 0 0 Z " fill="#1E1E20" transform="translate(20,91)"/>
<path d="M0 0 C0.66 0 1.32 0 2 0 C2 0.66 2 1.32 2 2 C2.78503906 2.01417969 3.57007813 2.02835937 4.37890625 2.04296875 C15.43944859 2.5451038 15.43944859 2.5451038 19.8515625 6.30078125 C22.30893892 9.93669534 21.65507573 13.84728777 21 18 C18.91530945 28.08469055 18.91530945 28.08469055 16 31 C13.6335144 31.24050903 13.6335144 31.24050903 10.63232422 31.22705078 C8.95080765 31.22682419 8.95080765 31.22682419 7.23532104 31.22659302 C6.02071198 31.21627045 4.80610291 31.20594788 3.5546875 31.1953125 C2.31453888 31.1924826 1.07439026 31.18965271 -0.20333862 31.18673706 C-3.50124633 31.17742174 -6.79895972 31.1594489 -10.09680176 31.1373291 C-13.4616457 31.11687474 -16.82651807 31.10773623 -20.19140625 31.09765625 C-26.79434723 31.07556519 -33.39715771 31.04206483 -40 31 C-40.33 30.34 -40.66 29.68 -41 29 C-26.81 29.33 -12.62 29.66 2 30 C1.34 20.1 0.68 10.2 0 0 Z " fill="#313032" transform="translate(71,81)"/>
<path d="M0 0 C0.33 0 0.66 0 1 0 C1.19428995 47.61777981 1.19428995 47.61777981 0.73654175 68.82998657 C0.70409129 70.38993089 0.67644952 71.94998335 0.65383911 73.51010132 C0.62083738 75.66749095 0.56911214 77.82360779 0.51171875 79.98046875 C0.48553467 81.17567139 0.45935059 82.37087402 0.43237305 83.60229492 C-0.07761812 87.60994434 -1.30990926 90.341861 -3 94 C-3.72449301 97.39246725 -4.30775506 100.78325638 -4.86328125 104.20703125 C-6 107 -6 107 -8.95703125 108.41015625 C-11.83995475 108.96897711 -13.30244746 109.03752021 -16 108 C-11.25 104 -11.25 104 -9 104 C-8.5359375 102.5459375 -8.5359375 102.5459375 -8.0625 101.0625 C-7 98 -7 98 -6 97 C-5.72141969 93.92548645 -5.76817752 90.8356337 -5.75 87.75 C-5.729375 86.89019531 -5.70875 86.03039062 -5.6875 85.14453125 C-5.65657852 80.12752037 -6.02644178 77.21526384 -9 73 C-8.505 72.01 -8.505 72.01 -8 71 C-7.34 71.33 -6.68 71.66 -6 72 C-6.01047363 71.45102051 -6.02094727 70.90204102 -6.03173828 70.33642578 C-6.24950589 56.83759064 -5.88715837 43.4117206 -5.125 29.9375 C-5.08570374 29.19671204 -5.04640747 28.45592407 -5.00592041 27.69268799 C-4.890597 25.5536017 -4.76365447 23.41553113 -4.6328125 21.27734375 C-4.55949707 20.04234131 -4.48618164 18.80733887 -4.41064453 17.53491211 C-3.97607641 13.79406083 -3.12983746 10.58222233 -2 7 C-1.34 7 -0.68 7 0 7 C0 4.69 0 2.38 0 0 Z " fill="#A8A6A5" transform="translate(103,124)"/>
<path d="M0 0 C0.66 0.33 1.32 0.66 2 1 C1.67 1.33 1.34 1.66 1 2 C0.24323061 9.20386251 1.68169229 15.23826917 4 22 C5.08752578 25.6459999 6.07709223 29.30836891 7 33 C25.48 33.33 43.96 33.66 63 34 C63 34.33 63 34.66 63 35 C55.6026924 35.04629419 48.20541593 35.08185426 40.80799294 35.10362434 C37.37324541 35.1140717 33.93859683 35.12824805 30.50390625 35.15087891 C26.55730362 35.17672063 22.61074137 35.18646493 18.6640625 35.1953125 C17.42757965 35.20563507 16.1910968 35.21595764 14.91714478 35.22659302 C13.77611298 35.22674408 12.63508118 35.22689514 11.45947266 35.22705078 C10.451315 35.231492 9.44315735 35.23593323 8.40444946 35.24050903 C6 35 6 35 4 33 C4.2165625 34.77310547 4.2165625 34.77310547 4.4375 36.58203125 C5.79965205 48.81231462 6.2216375 60.95662809 6.25 73.25 C6.25749268 74.38316147 6.25749268 74.38316147 6.26513672 75.53921509 C6.31036027 83.87154095 6.17542709 91.88798598 4 100 C3.67 100 3.34 100 3 100 C3.00444122 99.44306458 3.00888245 98.88612915 3.01345825 98.31231689 C3.05842884 92.40517806 3.08816453 86.49808936 3.10986328 80.59082031 C3.11979228 78.39939391 3.13333993 76.20798027 3.15087891 74.01660156 C3.2878547 56.4353552 3.23499023 38.80377599 -1.4140625 21.7265625 C-2.05389182 18.74922339 -2.09852578 16.03638547 -2 13 C-2.66 13 -3.32 13 -4 13 C-3.8908417 20.4431352 -3.77793291 27.88620629 -3.66066074 35.32921791 C-3.6062733 38.7879774 -3.55302139 42.24674539 -3.50268555 45.70556641 C-3.29644267 59.82527751 -3.07116009 73.93468617 -2.33253479 88.03848267 C-1.96635318 95.03183688 -1.89243598 101.99638736 -2 109 C-2.66 108.67 -3.32 108.34 -4 108 C-6.20924635 57.02084122 -6.20924635 57.02084122 -6.1875 37 C-6.18814453 35.730354 -6.18878906 34.46070801 -6.18945312 33.15258789 C-6.14500566 25.72531548 -5.73518205 18.39073697 -5 11 C-3.02 11.495 -3.02 11.495 -1 12 C-1.01160156 11.21753906 -1.02320313 10.43507813 -1.03515625 9.62890625 C-1.04417969 8.61699219 -1.05320312 7.60507813 -1.0625 6.5625 C-1.07410156 5.55316406 -1.08570313 4.54382813 -1.09765625 3.50390625 C-1 1 -1 1 0 0 Z " fill="#898889" transform="translate(24,78)"/>
<path d="M0 0 C1.47906892 -0.02689216 2.95827483 -0.04634621 4.4375 -0.0625 C5.26121094 -0.07410156 6.08492187 -0.08570313 6.93359375 -0.09765625 C9 0 9 0 10 1 C10.04063832 2.66617115 10.042721 4.33388095 10 6 C10.66 6 11.32 6 12 6 C12.33 6.99 12.66 7.98 13 9 C13.33 7.02 13.66 5.04 14 3 C14.66 3.33 15.32 3.66 16 4 C16.22495249 5.92816419 16.44394973 7.85902116 16.55859375 9.796875 C16.87373252 12.12514508 16.87373252 12.12514508 18.5078125 14.1796875 C20.65285667 18.23393328 20.47596553 21.85704859 20.4375 26.375 C20.4674707 27.6125 20.4674707 27.6125 20.49804688 28.875 C20.49337926 34.7561915 19.38980248 38.17771269 16 43 C13.25 45.4375 13.25 45.4375 11 47 C12.32 47 13.64 47 15 47 C15 47.66 15 48.32 15 49 C11.04 49.99 7.08 50.98 3 52 C3.66 50.35 4.32 48.7 5 47 C7.475 46.505 7.475 46.505 10 46 C9.67 40.72 9.34 35.44 9 30 C7.845 30.33 6.69 30.66 5.5 31 C1.22499413 32.08401934 -2.60361453 32.15701377 -7 32 C-7 31.67 -7 31.34 -7 31 C-1.06 29.68 4.88 28.36 11 27 C11 22.39809919 10.68061318 19.57014743 9.51171875 15.30078125 C8.53972303 10.9305104 8.31142905 6.4583527 8 2 C5.36 1.67 2.72 1.34 0 1 C0 0.67 0 0.34 0 0 Z " fill="#C0BCBD" transform="translate(78,185)"/>
<path d="M0 0 C0.66 0.33 1.32 0.66 2 1 C3.39870877 7.34351002 3.13472759 13.81930739 3.140625 20.28515625 C3.15894084 22.69597308 3.17851 25.10678066 3.19921875 27.51757812 C3.22824977 31.298745 3.25000216 35.07930984 3.25048828 38.8605957 C3.25381926 42.52348598 3.2883315 46.18500414 3.328125 49.84765625 C3.3210553 50.97591324 3.3139856 52.10417023 3.30670166 53.26661682 C3.4136253 60.15850154 4.17009152 63.10628761 9 68 C9 69.32 9 70.64 9 72 C7.02 72 5.04 72 3 72 C3.00444122 73.26898132 3.00888245 74.53796265 3.01345825 75.84539795 C3.05396942 87.79365125 3.08396763 99.74189064 3.10362434 111.69019699 C3.1140697 117.83320728 3.12824269 123.9761622 3.15087891 130.11914062 C3.17258035 136.04540808 3.18456296 141.97162222 3.18975449 147.89792633 C3.19345509 150.16099131 3.20068125 152.42405331 3.21146011 154.68709564 C3.22593904 157.85233407 3.22797943 161.01735107 3.22705078 164.18261719 C3.23424133 165.12201141 3.24143188 166.06140564 3.24884033 167.02926636 C3.246091 167.89300873 3.24334167 168.7567511 3.24050903 169.64666748 C3.24235262 170.39516338 3.24419621 171.14365929 3.24609566 171.91483688 C3 174 3 174 1 178 C1 142.03 1 106.06 1 69 C0.01 68.67 -0.98 68.34 -2 68 C-1.67 66.02 -1.34 64.04 -1 62 C-0.34 62 0.32 62 1 62 C0.67 41.54 0.34 21.08 0 0 Z " fill="#E2E1DF" transform="translate(102,33)"/>
<path d="M0 0 C4.16243065 6.24364597 3.26482309 14.73796414 3.5 22.0234375 C3.58329517 24.36588677 3.66662964 26.70833465 3.75 29.05078125 C3.87641842 32.73123614 4.00123545 36.41174008 4.125 40.09228516 C4.24603267 43.65282048 4.372759 47.2131195 4.5 50.7734375 C4.53544922 51.88375336 4.57089844 52.99406921 4.60742188 54.13803101 C4.64416016 55.15644073 4.68089844 56.17485046 4.71875 57.22412109 C4.74904297 58.12456146 4.77933594 59.02500183 4.81054688 59.95272827 C4.77941477 61.99239532 4.77941477 61.99239532 6 63 C6.23192865 64.51469448 6.41215238 66.03754562 6.5625 67.5625 C6.64628906 68.38878906 6.73007812 69.21507812 6.81640625 70.06640625 C6.87699219 70.70449219 6.93757813 71.34257812 7 72 C7.66 70.02 8.32 68.04 9 66 C9.6875 67.6875 9.6875 67.6875 10 70 C9.54367188 70.72316406 9.08734375 71.44632812 8.6171875 72.19140625 C6.69451439 75.53054144 6.12962014 78.46904657 5.4375 82.25 C5.02205803 84.51263313 4.55794269 86.76822926 4 89 C3.01 89.495 3.01 89.495 2 90 C2 89.01 2 88.02 2 87 C1.34 87 0.68 87 0 87 C0 58.29 0 29.58 0 0 Z " fill="#A7A5A5" transform="translate(16,124)"/>
<path d="M0 0 C6.0915875 0.12690807 8.78195036 2.07821862 13.14453125 6.23828125 C15.06959467 8.14891494 15.06959467 8.14891494 17.8125 10 C21.55702585 13.42356649 22.8230172 16.99098414 23.25961304 21.94699097 C23.34706225 25.57130451 23.33694804 29.18348445 23.29296875 32.80859375 C23.28736502 34.14379904 23.28309859 35.47901055 23.28010559 36.81422424 C23.26871779 40.30778396 23.23930424 43.80096227 23.20599365 47.29437256 C23.17516082 50.86741987 23.1615722 54.44052953 23.14648438 58.01367188 C23.11442762 65.00927006 23.06330599 72.00461665 23 79 C22.34 79 21.68 79 21 79 C20.67 79.66 20.34 80.32 20 81 C20 80.01 20 79.02 20 78 C20.66 78 21.32 78 22 78 C21.67 70.74 21.34 63.48 21 56 C20.9175 58.083125 20.835 60.16625 20.75 62.3125 C20.50384615 68.52788462 20.50384615 68.52788462 17.953125 70.91796875 C16.98632812 71.45357422 16.98632812 71.45357422 16 72 C15.67 69.03 15.34 66.06 15 63 C15.66 63.33 16.32 63.66 17 64 C17.76291947 58.5636756 18.1592764 53.29456614 18.16796875 47.80859375 C18.17129715 47.05965347 18.17462555 46.3107132 18.17805481 45.53907776 C18.18307942 43.96852221 18.18546453 42.39795615 18.18530273 40.82739258 C18.18749762 38.4400877 18.2057235 36.05323958 18.22460938 33.66601562 C18.22754269 32.13020989 18.2295279 30.594402 18.23046875 29.05859375 C18.23765427 28.35423691 18.24483978 27.64988007 18.25224304 26.92417908 C18.22678589 21.34414571 17.74855472 16.090431 14.08203125 11.70703125 C9.57537232 7.9450182 5.23597442 4.67368906 0 2 C0 1.34 0 0.68 0 0 Z " fill="#B7B5B4" transform="translate(80,16)"/>
<path d="M0 0 C8.30487805 1.38414634 8.30487805 1.38414634 11 4 C12.43541283 11.05518946 10.32882844 18.35137581 8 25 C7.67 25.33 7.34 25.66 7 26 C4.03 26 1.06 26 -2 26 C-1.34 17.42 -0.68 8.84 0 0 Z " fill="#201E22" transform="translate(81,85)"/>
<path d="M0 0 C1.66870487 0.32297514 3.33465333 0.66013333 5 1 C5.73605469 1.1340625 6.47210938 1.268125 7.23046875 1.40625 C8.02066406 1.5609375 8.81085938 1.715625 9.625 1.875 C10.38039063 2.01679687 11.13578125 2.15859375 11.9140625 2.3046875 C14.31303534 3.10434511 15.30451795 4.16849074 17 6 C19.10332891 6.71447643 19.10332891 6.71447643 21 7 C22.80789124 13.08108873 20.83657235 18.16862339 19 24 C18.67 24 18.34 24 18 24 C18 21.69 18 19.38 18 17 C17.21625 16.71125 16.4325 16.4225 15.625 16.125 C13 15 13 15 11 13 C7.89668831 12.3732442 4.79009476 11.98036934 1.65234375 11.5625 C0.33943359 11.2840625 0.33943359 11.2840625 -1 11 C-2.4783226 8.04335481 -2.06032783 5.25770263 -2 2 C-1.34 2 -0.68 2 0 2 C0 1.34 0 0.68 0 0 Z " fill="#3B393B" transform="translate(74,72)"/>
<path d="M0 0 C0 17.82 0 35.64 0 54 C0.66 54 1.32 54 2 54 C2 52.02 2 50.04 2 48 C2.33 48 2.66 48 3 48 C3 51.3 3 54.6 3 58 C1.68 57.67 0.36 57.34 -1 57 C-1 59.64 -1 62.28 -1 65 C-1.99 65 -2.98 65 -4 65 C-4.02316198 57.09840359 -4.04093479 49.19682135 -4.05181217 41.29519939 C-4.05703255 37.62623076 -4.06411489 33.95728535 -4.07543945 30.28833008 C-4.08629832 26.74812911 -4.09228322 23.20795048 -4.09487724 19.66773415 C-4.09762633 17.65858345 -4.1054336 15.64944175 -4.11329651 13.64030457 C-4.11337204 12.41926529 -4.11344757 11.19822601 -4.11352539 9.94018555 C-4.115746 8.86318893 -4.11796661 7.78619232 -4.12025452 6.67655945 C-4 4 -4 4 -3 1 C-1 0 -1 0 0 0 Z " fill="#ADAAAA" transform="translate(20,32)"/>
<path d="M0 0 C2.46867919 3.70301878 3.17139872 7.21773497 4.21875 11.50390625 C4.83256908 14.14164397 4.83256908 14.14164397 7 16 C9.46620164 16.33159285 9.46620164 16.33159285 12.36767578 16.31884766 C13.48868683 16.33871735 14.60969788 16.35858704 15.76467896 16.37905884 C16.97928802 16.39061005 18.19389709 16.40216125 19.4453125 16.4140625 C21.30553543 16.44311172 21.30553543 16.44311172 23.20333862 16.4727478 C26.50111779 16.5224881 29.79886139 16.56372477 33.09680176 16.60089111 C36.46177334 16.64089002 39.82657392 16.69200103 43.19140625 16.7421875 C49.79416107 16.83839787 56.39699011 16.92340383 63 17 C63 17.33 63 17.66 63 18 C55.6026924 18.04629419 48.20541593 18.08185426 40.80799294 18.10362434 C37.37324541 18.1140717 33.93859683 18.12824805 30.50390625 18.15087891 C26.55730362 18.17672063 22.61074137 18.18646493 18.6640625 18.1953125 C17.42757965 18.20563507 16.1910968 18.21595764 14.91714478 18.22659302 C13.77611298 18.22674408 12.63508118 18.22689514 11.45947266 18.22705078 C10.451315 18.231492 9.44315735 18.23593323 8.40444946 18.24050903 C6 18 6 18 4 16 C4.144375 17.18207031 4.28875 18.36414063 4.4375 19.58203125 C5.79965205 31.81231462 6.2216375 43.95662809 6.25 56.25 C6.25749268 57.38316147 6.25749268 57.38316147 6.26513672 58.53921509 C6.31036027 66.87154095 6.17542709 74.88798598 4 83 C3.67 83 3.34 83 3 83 C3.00444122 82.44306458 3.00888245 81.88612915 3.01345825 81.31231689 C3.05842884 75.40517806 3.08816453 69.49808936 3.10986328 63.59082031 C3.11979228 61.39939391 3.13333993 59.20798027 3.15087891 57.01660156 C3.25537647 43.60403233 2.82274398 30.4971612 1.23617554 17.17584229 C0.6168397 11.47001382 0.32981574 5.72837867 0 0 Z " fill="#7F7D7E" transform="translate(24,95)"/>
<path d="M0 0 C0.66 0 1.32 0 2 0 C1.99777939 0.56074722 1.99555878 1.12149445 1.99327087 1.69923401 C1.97108135 7.55574911 1.9560365 13.41225219 1.94506836 19.26879883 C1.94005157 21.452072 1.93323663 23.63534182 1.92456055 25.81860352 C1.91237853 28.96371283 1.90674503 32.10877757 1.90234375 35.25390625 C1.89718246 36.2239711 1.89202118 37.19403595 1.88670349 38.1934967 C1.8862886 43.24942669 2.26191305 47.99055055 3 53 C3.19237596 56.50752571 3.25450556 60.01537976 3.31640625 63.52734375 C3.3475779 65.01071983 3.3475779 65.01071983 3.37937927 66.52406311 C3.44440554 69.66180938 3.50354018 72.79963446 3.5625 75.9375 C3.60572991 78.07357563 3.64934558 80.2096435 3.69335938 82.34570312 C3.80003838 87.56372043 3.90188913 92.78181494 4 98 C4.66 97.01 5.32 96.02 6 95 C5.53199289 99.05606165 5.12046792 102.46588679 3 106 C2.67 106 2.34 106 2 106 C0.52375837 79.7024828 -0.19196863 53.46041301 -0.125 27.125 C-0.12328796 26.44690781 -0.12157593 25.76881561 -0.11981201 25.07017517 C-0.09713558 16.71335026 -0.0571389 8.35666131 0 0 Z " fill="#444445" transform="translate(20,91)"/>
<path d="M0 0 C0.33 0 0.66 0 1 0 C1.2720582 4.71567542 0.95473384 8.5708784 -0.3125 13.125 C-4.90559373 30.45684074 -5.41890354 48.05547228 -5.1875 65.875 C-5.1723919 67.94269834 -5.15871456 70.01040764 -5.14648438 72.078125 C-5.11404203 77.05236382 -5.06261586 82.02605333 -5 87 C-5.66 86.67 -6.32 86.34 -7 86 C-7.0501209 79.90259953 -7.08605399 73.80532376 -7.10986328 67.70776367 C-7.11980805 65.64133612 -7.13336863 63.57492221 -7.15087891 61.50854492 C-7.25538606 48.84166318 -6.87873045 36.53793115 -5 24 C-5.99 24 -6.98 24 -8 24 C-6 16.66666667 -4 9.33333333 -2 2 C-1.34 2 -0.68 2 0 2 C0 1.34 0 0.68 0 0 Z " fill="#A5A3A4" transform="translate(95,89)"/>
<path d="M0 0 C0.69931641 0.00386719 1.39863281 0.00773438 2.11914062 0.01171875 C7.08045841 0.09494682 11.37076191 0.6860873 16.0625 2.25 C16.5575 4.23 16.5575 4.23 17.0625 6.25 C15.78117187 6.23839844 14.49984375 6.22679687 13.1796875 6.21484375 C3.08199238 6.15224665 -6.87499 6.31705205 -16.9375 7.25 C-16.375 4.875 -16.375 4.875 -14.9375 2.25 C-10.03597164 0.21840522 -5.24556418 -0.07041026 0 0 Z " fill="#B2B2B2" transform="translate(56.9375,7.75)"/>
<path d="M0 0 C0.33 0 0.66 0 1 0 C3.51167232 27.26958517 1.91441671 54.75011104 0 82 C-0.33 82 -0.66 82 -1 82 C-1 57.91 -1 33.82 -1 9 C-1.66 9.66 -2.32 10.32 -3 11 C-2.88590407 9.54077307 -2.75834456 8.08259402 -2.625 6.625 C-2.55539063 5.81289062 -2.48578125 5.00078125 -2.4140625 4.1640625 C-2 2 -2 2 0 0 Z " fill="#777476" transform="translate(98,90)"/>
<path d="M0 0 C0.66 0 1.32 0 2 0 C3.58645357 3.17290713 3.12078213 6.58825384 3.09765625 10.0703125 C3.0962413 10.86654022 3.09482635 11.66276794 3.09336853 12.48312378 C3.08776345 15.0304538 3.07521014 17.57769647 3.0625 20.125 C3.05748565 21.85025915 3.05292263 23.57551967 3.04882812 25.30078125 C3.03779237 29.53388791 3.02052436 33.76692914 3 38 C2.01 38 1.02 38 0 38 C-4.64735255 28.7052949 -0.58598777 10.21292966 0 0 Z " fill="#D1CFCD" transform="translate(46,28)"/>
<path d="M0 0 C0.78375 0.04125 1.5675 0.0825 2.375 0.125 C4.51343222 5.33742854 4.54303599 9.57981226 4.375 15.125 C1.405 15.125 -1.565 15.125 -4.625 15.125 C-4.67886629 13.00027424 -4.71773071 10.87516348 -4.75 8.75 C-4.77320312 7.56664062 -4.79640625 6.38328125 -4.8203125 5.1640625 C-4.5707518 1.28089801 -3.97031482 0.18906261 0 0 Z " fill="#201E21" transform="translate(82.625,186.875)"/>
<path d="M0 0 C0.99 0 1.98 0 3 0 C3.02683987 2.97922593 3.04676037 5.95821295 3.0625 8.9375 C3.07087891 9.78763672 3.07925781 10.63777344 3.08789062 11.51367188 C3.09272461 12.72700195 3.09272461 12.72700195 3.09765625 13.96484375 C3.10551147 15.08814087 3.10551147 15.08814087 3.11352539 16.23413086 C3 18 3 18 2 19 C2.66 19.33 3.32 19.66 4 20 C4 20.66 4 21.32 4 22 C4.99 22.33 5.98 22.66 7 23 C5.62714844 22.75636719 5.62714844 22.75636719 4.2265625 22.5078125 C-1.04120263 21.75754701 -6.31458204 21.85478267 -11.625 21.875 C-12.64851563 21.87113281 -13.67203125 21.86726563 -14.7265625 21.86328125 C-16.2115625 21.86521484 -16.2115625 21.86521484 -17.7265625 21.8671875 C-19.06581787 21.86887939 -19.06581787 21.86887939 -20.43212891 21.87060547 C-23.04301894 22.00216772 -25.45353848 22.42310759 -28 23 C-27 21 -27 21 -24.6171875 19.8828125 C-19.73821472 18.69204808 -15.12483346 18.78692705 -10.125 18.875 C-9.15046875 18.88402344 -8.1759375 18.89304687 -7.171875 18.90234375 C-4.78114328 18.9257823 -2.39053901 18.96164911 0 19 C0 12.73 0 6.46 0 0 Z " fill="#B9B7B7" transform="translate(69,49)"/>
<path d="M0 0 C2 3 2 3 2 6 C2.99 5.67 3.98 5.34 5 5 C5.06058594 5.85722656 5.12117188 6.71445312 5.18359375 7.59765625 C5.61143536 13.43604873 6.059163 19.22057272 7 25 C7.66 23.68 8.32 22.36 9 21 C9.8356429 23.9280927 10.16205486 26.58176143 10.1875 29.625 C10.20167969 30.40101562 10.21585938 31.17703125 10.23046875 31.9765625 C10 34 10 34 8 36 C9.32 36.66 10.64 37.32 12 38 C10.1875 38.6875 10.1875 38.6875 8 39 C6.4375 37.6875 6.4375 37.6875 5 36 C4.01 35.34 3.02 34.68 2 34 C3.32 34 4.64 34 6 34 C5.37949987 30.49918703 4.75277559 26.99951502 4.125 23.5 C3.95097656 22.51773438 3.77695313 21.53546875 3.59765625 20.5234375 C2.81089769 16.15255659 1.99708806 11.82766202 0.8671875 7.53125 C0 4 0 4 0 0 Z " fill="#C7C5C3" transform="translate(83,40)"/>
<path d="M0 0 C0.33 0 0.66 0 1 0 C1.01030746 0.71774597 1.02061493 1.43549194 1.03123474 2.17498779 C1.12926383 8.94324538 1.23178596 15.71142165 1.33933926 22.47953415 C1.39447368 25.95898084 1.44787825 29.43843607 1.49731445 32.91796875 C1.55424124 36.91936197 1.61871887 40.92060269 1.68359375 44.921875 C1.70030624 46.16990906 1.71701874 47.41794312 1.73423767 48.70379639 C1.75418289 49.86469788 1.77412811 51.02559937 1.79467773 52.22167969 C1.81022202 53.24316101 1.8257663 54.26464233 1.84178162 55.31707764 C1.98195428 57.69399728 2.32393052 59.72566899 3 62 C2.01 62 1.02 62 0 62 C0 69.92 0 77.84 0 86 C-0.33 86 -0.66 86 -1 86 C-1 79.4 -1 72.8 -1 66 C-2.65 66 -4.3 66 -6 66 C-4.63016497 62.83884224 -4.0109362 62.0072908 -1 60 C-0.5218788 57.37706711 -0.5218788 57.37706711 -0.56762695 54.26513672 C-0.54783279 53.06404266 -0.52803864 51.86294861 -0.50764465 50.62545776 C-0.50125473 49.32335358 -0.49486481 48.02124939 -0.48828125 46.6796875 C-0.47144088 45.3373143 -0.45329151 43.99495694 -0.43388367 42.65261841 C-0.38630693 39.11811266 -0.35654775 35.58367107 -0.33044434 32.0489502 C-0.30067711 28.44266075 -0.25413377 24.83659261 -0.20898438 21.23046875 C-0.12286444 14.15377233 -0.05555812 7.07700763 0 0 Z " fill="#D1CFCF" transform="translate(15,38)"/>
<path d="M0 0 C0.33 0 0.66 0 1 0 C1.33 4.29 1.66 8.58 2 13 C-1.76687864 14.88343932 -3.02958963 15.22057835 -7 15 C-7.12375 13.329375 -7.12375 13.329375 -7.25 11.625 C-7.57873787 7.94246056 -7.57873787 7.94246056 -10.0625 6.5625 C-10.701875 6.376875 -11.34125 6.19125 -12 6 C-10.4221875 5.7834375 -10.4221875 5.7834375 -8.8125 5.5625 C-5.84539451 5.12473034 -2.93205634 4.62195134 0 4 C0 2.68 0 1.36 0 0 Z " fill="#3E3B3F" transform="translate(87,198)"/>
<path d="M0 0 C0.66 0.33 1.32 0.66 2 1 C2.21018628 6.14956388 1.41796177 10.07883858 0 15 C-0.44450805 18.33136802 -0.72452686 21.6484101 -1 25 C1.97 24.34 4.94 23.68 8 23 C7 25 7 25 4.93359375 25.8515625 C4.10988281 26.10679688 3.28617188 26.36203125 2.4375 26.625 C1.19806641 27.01558594 1.19806641 27.01558594 -0.06640625 27.4140625 C-0.70449219 27.60742188 -1.34257812 27.80078125 -2 28 C-4.05619793 25.68677733 -4.95899829 24.44076838 -5.25 21.3125 C-5 19 -5 19 -4 18 C-3.65034118 16.11066705 -3.3453517 14.21298288 -3.0625 12.3125 C-2.38373074 8.03063977 -1.5782285 4.05830186 0 0 Z " fill="#BDB9B9" transform="translate(29,49)"/>
<path d="M0 0 C0.33 0 0.66 0 1 0 C1.0093457 0.79696289 1.01869141 1.59392578 1.02832031 2.41503906 C1.08201498 6.02732175 1.16566608 9.63830821 1.25 13.25 C1.26417969 14.50425781 1.27835937 15.75851563 1.29296875 17.05078125 C1.32519531 18.25605469 1.35742188 19.46132812 1.390625 20.703125 C1.4220459 22.36843262 1.4220459 22.36843262 1.45410156 24.06738281 C2.11163985 27.59973967 3.35961035 28.66978056 6 31 C6 31.66 6 32.32 6 33 C4.35 32.67 2.7 32.34 1 32 C1 39.26 1 46.52 1 54 C0.67 54 0.34 54 0 54 C0 46.74 0 39.48 0 32 C-0.99 31.67 -1.98 31.34 -3 31 C-2.67 29.02 -2.34 27.04 -2 25 C-1.34 25 -0.68 25 0 25 C0 16.75 0 8.5 0 0 Z " fill="#CECCCC" transform="translate(103,70)"/>
<path d="M0 0 C0.66 0.33 1.32 0.66 2 1 C1.67 1.66 1.34 2.32 1 3 C2.98 2.67 4.96 2.34 7 2 C4.61185068 4.00604543 2.52048925 5.20423606 -0.375 6.4375 C-7.22038923 9.38809881 -11.93998074 13.67051226 -17 19 C-18 16 -18 16 -16.875 13 C-14.86148441 9.77837506 -13.41195792 8.57474981 -10 7 C-9.34 7 -8.68 7 -8 7 C-8 6.34 -8 5.68 -8 5 C-6.02 4.67 -4.04 4.34 -2 4 C-2 3.01 -2 2.02 -2 1 C-1.34 0.67 -0.68 0.34 0 0 Z " fill="#BEBCBC" transform="translate(39,12)"/>
<path d="M0 0 C1.66870487 0.32297514 3.33465333 0.66013333 5 1 C5.75925781 1.14566406 6.51851562 1.29132813 7.30078125 1.44140625 C8.51314453 1.68697266 8.51314453 1.68697266 9.75 1.9375 C10.52859375 2.09089844 11.3071875 2.24429688 12.109375 2.40234375 C13.04523438 2.69818359 13.04523438 2.69818359 14 3 C14.33 3.66 14.66 4.32 15 5 C12.36 4.67 9.72 4.34 7 4 C7 5.98 7 7.96 7 10 C4.03 9.67 1.06 9.34 -2 9 C-2 6.69 -2 4.38 -2 2 C-1.34 2 -0.68 2 0 2 C0 1.34 0 0.68 0 0 Z " fill="#4C4B4D" transform="translate(74,72)"/>
<path d="M0 0 C6.08700511 0.12681261 8.77684091 2.07376968 13.13671875 6.23046875 C15.09115666 8.16508925 15.09115666 8.16508925 17.9375 10.125 C20 12 20 12 21 14.5 C21 17.62263575 20.08489627 18.74831203 18 21 C17.855625 20.01 17.71125 19.02 17.5625 18 C15.64035848 11.23131594 8.76293627 6.86448666 2.9375 3.5 C1.968125 3.005 0.99875 2.51 0 2 C0 1.34 0 0.68 0 0 Z " fill="#BFBCBB" transform="translate(80,16)"/>
<path d="M0 0 C-0.33 7.92 -0.66 15.84 -1 24 C-1.99 24.33 -2.98 24.66 -4 25 C-4.02901394 21.5625177 -4.04680335 18.12506688 -4.0625 14.6875 C-4.07087891 13.71103516 -4.07925781 12.73457031 -4.08789062 11.72851562 C-4.09111328 10.79072266 -4.09433594 9.85292969 -4.09765625 8.88671875 C-4.10551147 7.59060669 -4.10551147 7.59060669 -4.11352539 6.26831055 C-4 4 -4 4 -3 1 C-1 0 -1 0 0 0 Z " fill="#B7B4B4" transform="translate(20,32)"/>
<path d="M0 0 C1.2065625 0.0309375 1.2065625 0.0309375 2.4375 0.0625 C2.4375 2.7025 2.4375 5.3425 2.4375 8.0625 C5.0775 7.4025 7.7175 6.7425 10.4375 6.0625 C10.7675 4.4125 11.0975 2.7625 11.4375 1.0625 C11.7675 1.0625 12.0975 1.0625 12.4375 1.0625 C12.4375 3.0425 12.4375 5.0225 12.4375 7.0625 C9.64011218 8.5692748 7.03427568 9.54474115 3.9375 10.25 C2.80828125 10.51876953 2.80828125 10.51876953 1.65625 10.79296875 C-0.71083379 11.08051942 -2.30794015 10.78498395 -4.5625 10.0625 C-3.5725 10.0625 -2.5825 10.0625 -1.5625 10.0625 C-2.078125 9.69125 -2.59375 9.32 -3.125 8.9375 C-4.5625 7.0625 -4.5625 7.0625 -4.3125 3.9375 C-3.30636339 0.08064301 -3.30636339 0.08064301 0 0 Z " fill="#4A494C" transform="translate(77.5625,204.9375)"/>
<path d="M0 0 C0.91072266 0.00193359 1.82144531 0.00386719 2.75976562 0.00585938 C4.18385742 0.02422852 4.18385742 0.02422852 5.63671875 0.04296875 C6.57451172 0.04361328 7.51230469 0.04425781 8.47851562 0.04492188 C13.19965309 0.07486566 17.68288771 0.25866577 22.32421875 1.23046875 C22.32421875 1.56046875 22.32421875 1.89046875 22.32421875 2.23046875 C20.47570312 2.30394531 20.47570312 2.30394531 18.58984375 2.37890625 C9.37159775 2.78245498 0.38798667 3.36705938 -8.67578125 5.23046875 C-7.0900644 0.47331819 -4.61123733 -0.02294148 0 0 Z " fill="#636363" transform="translate(48.67578125,9.76953125)"/>
<path d="M0 0 C0.33 0 0.66 0 1 0 C1 6.93 1 13.86 1 21 C0.01 20.67 -0.98 20.34 -2 20 C-2.984375 17.19921875 -2.984375 17.19921875 -3.75 13.6875 C-4.01296875 12.53636719 -4.2759375 11.38523438 -4.546875 10.19921875 C-4.9567833 7.30512484 -4.98622355 5.69878742 -4 3 C-3.34 5.31 -2.68 7.62 -2 10 C-1.34 6.7 -0.68 3.4 0 0 Z " fill="#434140" transform="translate(96,175)"/>
<path d="M0 0 C0.33 0 0.66 0 1 0 C1 15.18 1 30.36 1 46 C0.67 46 0.34 46 0 46 C-0.33 33.79 -0.66 21.58 -1 9 C-1.66 9.66 -2.32 10.32 -3 11 C-2.88590407 9.54077307 -2.75834456 8.08259402 -2.625 6.625 C-2.55539063 5.81289062 -2.48578125 5.00078125 -2.4140625 4.1640625 C-2 2 -2 2 0 0 Z " fill="#5D5A5C" transform="translate(98,90)"/>
<path d="M0 0 C0.33 0 0.66 0 1 0 C1.83360594 10.36053092 2.12288464 20.6094206 2 31 C1.01 31 0.02 31 -1 31 C-1.14809693 20.61675986 -0.70201821 10.35476854 0 0 Z " fill="#C6C4C2" transform="translate(47,35)"/>
<path d="M0 0 C1.9587043 0.14076315 3.91696093 0.2877676 5.875 0.4375 C7.51082031 0.55931641 7.51082031 0.55931641 9.1796875 0.68359375 C12 1 12 1 14 2 C16.55311555 2.09932028 19.07235343 2.14112683 21.625 2.125 C22.7078125 2.12209961 22.7078125 2.12209961 23.8125 2.11914062 C28.61626696 2.08012086 33.25445446 1.79092426 38 1 C37.67 1.99 37.34 2.98 37 4 C32.52095901 4.087842 28.04214276 4.14067447 23.5625 4.1875 C21.67241211 4.22520508 21.67241211 4.22520508 19.74414062 4.26367188 C12.46213204 4.32071111 6.7452176 3.7964395 0 1 C0 0.67 0 0.34 0 0 Z " fill="#2B2A2C" transform="translate(36,202)"/>
<path d="M0 0 C0.99 0 1.98 0 3 0 C2.48983608 2.63484659 1.94424784 5.25287414 1.375 7.875 C1.23449219 8.62136719 1.09398438 9.36773437 0.94921875 10.13671875 C0.4609375 12.3046875 0.4609375 12.3046875 -1 16 C-4.12600662 17.59556588 -5.91179111 18.17182246 -9.375 17.625 C-10.179375 17.315625 -10.179375 17.315625 -11 17 C-6.25 13 -6.25 13 -4 13 C-2.53060547 8.69677317 -1.22556737 4.37702633 0 0 Z " fill="#C2AEB0" transform="translate(98,215)"/>
<path d="M0 0 C0 2.73411241 -0.26358043 5.18711546 -0.65625 7.88671875 C-0.79160156 8.82451172 -0.92695313 9.76230469 -1.06640625 10.72851562 C-1.20949219 11.70498047 -1.35257813 12.68144531 -1.5 13.6875 C-1.71462891 15.16959961 -1.71462891 15.16959961 -1.93359375 16.68164062 C-2.28717828 19.12137389 -2.64272026 21.56080559 -3 24 C-3.66 24 -4.32 24 -5 24 C-6.60355101 20.49223216 -7.22036864 17.85645121 -7 14 C-6.34 14.66 -5.68 15.32 -5 16 C-4.80664062 15.01257813 -4.61328125 14.02515625 -4.4140625 13.0078125 C-4.15367188 11.72648438 -3.89328125 10.44515625 -3.625 9.125 C-3.36976562 7.84882813 -3.11453125 6.57265625 -2.8515625 5.2578125 C-2 2 -2 2 0 0 Z " fill="#BBB6B5" transform="translate(24,197)"/>
<path d="M0 0 C4.29 0 8.58 0 13 0 C13 0.66 13 1.32 13 2 C18.80769866 2.94803312 24.56209187 3.30447272 30.4375 3.5625 C31.35982422 3.60568359 32.28214844 3.64886719 33.23242188 3.69335938 C35.48816163 3.79854931 37.74399499 3.90069107 40 4 C40 4.33 40 4.66 40 5 C26.03728561 5.51116668 13.48927988 4.73036876 0 1 C0 0.67 0 0.34 0 0 Z " fill="#535153" transform="translate(31,212)"/>
<path d="M0 0 C0.33 0 0.66 0 1 0 C1 7.59 1 15.18 1 23 C0.34 23 -0.32 23 -1 23 C-1 20.69 -1 18.38 -1 16 C-1.66 15.67 -2.32 15.34 -3 15 C-2.67 14.67 -2.34 14.34 -2 14 C-1.79068103 11.83703727 -1.63202931 9.6690529 -1.5 7.5 C-1.11111111 1.11111111 -1.11111111 1.11111111 0 0 Z " fill="#A9A6A6" transform="translate(101,71)"/>
<path d="M0 0 C1.78409802 3.06246747 2.22880021 5.22079273 2.125 8.75 C2.10695313 9.54921875 2.08890625 10.3484375 2.0703125 11.171875 C2.03550781 12.07679687 2.03550781 12.07679687 2 13 C1.01 13.33 0.02 13.66 -1 14 C-1.22331199 12.41870971 -1.42804644 10.83478911 -1.625 9.25 C-1.74101563 8.36828125 -1.85703125 7.4865625 -1.9765625 6.578125 C-2.00207817 3.77140122 -1.44843844 2.36615134 0 0 Z M-3 14 C-0.97954558 14.60183749 1.02111039 15.27306096 3 16 C3.33 16.66 3.66 17.32 4 18 C1.625 17.6875 1.625 17.6875 -1 17 C-1.66 16.01 -2.32 15.02 -3 14 Z " fill="#B9B7B6" transform="translate(91,61)"/>
<path d="M0 0 C0.99 0.33 1.98 0.66 3 1 C1.515 2.485 1.515 2.485 0 4 C1.32 4 2.64 4 4 4 C4 4.66 4 5.32 4 6 C0.04 6.99 -3.92 7.98 -8 9 C-6 4 -6 4 -3.4375 2.8125 C-2.633125 2.544375 -1.82875 2.27625 -1 2 C-0.67 1.34 -0.34 0.68 0 0 Z " fill="#D1BBBA" transform="translate(89,228)"/>
<path d="M0 0 C0.66 0.33 1.32 0.66 2 1 C-1.35973367 5.11018964 -4.60282237 8.94640442 -9 12 C-9.66 12 -10.32 12 -11 12 C-9.58938233 7.20389993 -6.83496828 4.08358773 -3 1 C-2.01 0.67 -1.02 0.34 0 0 Z " fill="#DAD8D8" transform="translate(32,22)"/>
<path d="M0 0 C0.33 0 0.66 0 1 0 C1 7.26 1 14.52 1 22 C0.34 20.68 -0.32 19.36 -1 18 C-1.33 19.65 -1.66 21.3 -2 23 C-2.33 23 -2.66 23 -3 23 C-3.16898112 17.64189031 -2.56511422 12.80650828 -1.5 7.5625 C-1.35691406 6.83095703 -1.21382812 6.09941406 -1.06640625 5.34570312 C-0.71678704 3.56264514 -0.35922312 1.78114797 0 0 Z " fill="#464445" transform="translate(32,188)"/>
<path d="M0 0 C0.66 0.66 1.32 1.32 2 2 C2.99 2 3.98 2 5 2 C5 8.27 5 14.54 5 21 C4.67 21 4.34 21 4 21 C3.67 16.05 3.34 11.1 3 6 C2.01 6 1.02 6 0 6 C-1.125 2.25 -1.125 2.25 0 0 Z " fill="#939191" transform="translate(95,85)"/>
<path d="M0 0 C0.33 0 0.66 0 1 0 C1.33 4.95 1.66 9.9 2 15 C2.66 14.01 3.32 13.02 4 12 C3.53199289 16.05606165 3.12046792 19.46588679 1 23 C0.67 23 0.34 23 0 23 C0 15.41 0 7.82 0 0 Z " fill="#565455" transform="translate(22,174)"/>
<path d="M0 0 C0.33 0 0.66 0 1 0 C1 1.98 1 3.96 1 6 C-1.79738782 7.5067748 -4.40322432 8.48224115 -7.5 9.1875 C-8.62921875 9.45626953 -8.62921875 9.45626953 -9.78125 9.73046875 C-12.14833379 10.01801942 -13.74544015 9.72248395 -16 9 C-15.01 9 -14.02 9 -13 9 C-13.33 8.01 -13.66 7.02 -14 6 C-12.68 6 -11.36 6 -10 6 C-9.67 5.34 -9.34 4.68 -9 4 C-9 4.99 -9 5.98 -9 7 C-6.36 6.34 -3.72 5.68 -1 5 C-0.67 3.35 -0.34 1.7 0 0 Z " fill="#636063" transform="translate(89,206)"/>
<path d="M0 0 C1.14926266 0.95421808 2.29430541 1.91352045 3.4375 2.875 C4.07558594 3.40867188 4.71367187 3.94234375 5.37109375 4.4921875 C7 6 7 6 8 8 C8.99 8.66 9.98 9.32 11 10 C8.36 9.67 5.72 9.34 3 9 C3 8.34 3 7.68 3 7 C2.34 7 1.68 7 1 7 C0.67 4.69 0.34 2.38 0 0 Z " fill="#BC9197" transform="translate(21,223)"/>
<path d="M0 0 C0.33 0 0.66 0 1 0 C1.33 1.65 1.66 3.3 2 5 C2.66 4.67 3.32 4.34 4 4 C4.34833144 8.87664009 3.41685712 11.77050005 1 16 C0.67 16 0.34 16 0 16 C0 10.72 0 5.44 0 0 Z " fill="#312F32" transform="translate(23,174)"/>
<path d="M0 0 C0.33 0 0.66 0 1 0 C1.05422947 1.4370809 1.09289723 2.87475462 1.125 4.3125 C1.14820312 5.11300781 1.17140625 5.91351563 1.1953125 6.73828125 C1 9 1 9 -1 12 C-1 10.68 -1 9.36 -1 8 C-1.99 8 -2.98 8 -4 8 C-2.25 2.25 -2.25 2.25 0 0 Z " fill="#AFADAE" transform="translate(91,105)"/>
<path d="M0 0 C1.66870487 0.32297514 3.33465333 0.66013333 5 1 C5.75925781 1.14566406 6.51851562 1.29132813 7.30078125 1.44140625 C8.51314453 1.68697266 8.51314453 1.68697266 9.75 1.9375 C10.52859375 2.09089844 11.3071875 2.24429688 12.109375 2.40234375 C13.04523438 2.69818359 13.04523438 2.69818359 14 3 C14.33 3.66 14.66 4.32 15 5 C3.47835991 4.03644647 3.47835991 4.03644647 -2 3 C-1.34 2.67 -0.68 2.34 0 2 C0 1.34 0 0.68 0 0 Z " fill="#605F5F" transform="translate(74,72)"/>
<path d="M0 0 C2 2 2 2 2.1875 5.5625 C2 9 2 9 1 10 C-0.99958364 10.04080783 -3.00045254 10.04254356 -5 10 C-5.33 9.34 -5.66 8.68 -6 8 C-4.35 8 -2.7 8 -1 8 C-0.67 5.36 -0.34 2.72 0 0 Z " fill="#322F33" transform="translate(87,202)"/>
<path d="M0 0 C0.66 0 1.32 0 2 0 C3.80789124 6.08108873 1.83657235 11.16862339 0 17 C-0.33 17 -0.66 17 -1 17 C-1 14.69 -1 12.38 -1 10 C-1.66 9.67 -2.32 9.34 -3 9 C-2.01 8.34 -1.02 7.68 0 7 C0.25015873 3.41642759 0.25015873 3.41642759 0 0 Z " fill="#535153" transform="translate(93,79)"/>
<path d="M0 0 C0.33 0 0.66 0 1 0 C1.08075665 2.29109597 1.13907731 4.58299267 1.1875 6.875 C1.22230469 8.15117188 1.25710937 9.42734375 1.29296875 10.7421875 C1.19628906 11.81726563 1.09960938 12.89234375 1 14 C0.01 14.66 -0.98 15.32 -2 16 C-2.33 13.03 -2.66 10.06 -3 7 C-2.01 7.495 -2.01 7.495 -1 8 C-0.67 5.36 -0.34 2.72 0 0 Z " fill="#BFBDBC" transform="translate(98,72)"/>
<path d="M0 0 C1.8871875 0.061875 1.8871875 0.061875 3.8125 0.125 C3.8125 1.115 3.8125 2.105 3.8125 3.125 C-0.1475 3.785 -4.1075 4.445 -8.1875 5.125 C-6.68328007 0.61234022 -4.4443381 -0.145716 0 0 Z " fill="#848484" transform="translate(48.1875,9.875)"/>
<path d="M0 0 C0 0.99 0 1.98 0 3 C0.66 3.33 1.32 3.66 2 4 C2 4.66 2 5.32 2 6 C2.99 6.33 3.98 6.66 5 7 C0.6822542 6.49202991 -3.03302114 5.80317221 -7 4 C-7 3.67 -7 3.34 -7 3 C-5.35 3 -3.7 3 -2 3 C-2 2.34 -2 1.68 -2 1 C-1.34 0.67 -0.68 0.34 0 0 Z " fill="#BFBDBD" transform="translate(71,65)"/>
<path d="M0 0 C0.33 0 0.66 0 1 0 C1.56561146 5.65611463 -0.28608722 9.22642128 -3 14 C-4.28934684 11.42130631 -3.82144674 10.34000765 -3.1875 7.5625 C-3.01605469 6.78003906 -2.84460938 5.99757812 -2.66796875 5.19140625 C-2 3 -2 3 0 0 Z " fill="#E1DADB" transform="translate(101,215)"/>
<path d="M0 0 C0.33 0 0.66 0 1 0 C1 6.93 1 13.86 1 21 C0.01 20.67 -0.98 20.34 -2 20 C-2 19.34 -2 18.68 -2 18 C-1.34 18 -0.68 18 0 18 C0 12.06 0 6.12 0 0 Z " fill="#6A6867" transform="translate(96,175)"/>
<path d="M0 0 C-1.32 0.33 -2.64 0.66 -4 1 C-3.67 1.99 -3.34 2.98 -3 4 C-4.65 4.66 -6.3 5.32 -8 6 C-8.66 5.34 -9.32 4.68 -10 4 C-7.39928297 0.98864344 -3.94054294 -1.97027147 0 0 Z " fill="#4C494A" transform="translate(35,75)"/>
<path d="M0 0 C3.3 0 6.6 0 10 0 C10 1.32 10 2.64 10 4 C8.51882199 3.71872579 7.04006751 3.42466268 5.5625 3.125 C4.73878906 2.96257812 3.91507813 2.80015625 3.06640625 2.6328125 C2.38449219 2.42398438 1.70257812 2.21515625 1 2 C0.67 1.34 0.34 0.68 0 0 Z " fill="#D0B6B6" transform="translate(26,232)"/>
<path d="M0 0 C2.84383123 1.2748209 5.13754018 2.45137078 7 5 C6.57421875 7.1015625 6.57421875 7.1015625 6 9 C4.99406757 7.8803014 3.9954151 6.7540588 3 5.625 C2.443125 4.99851562 1.88625 4.37203125 1.3125 3.7265625 C0 2 0 2 0 0 Z " fill="#E4E0DF" transform="translate(90,25)"/>
<path d="M0 0 C0.33 0 0.66 0 1 0 C1.33 1.65 1.66 3.3 2 5 C3.98 5.66 5.96 6.32 8 7 C4.67465243 8.10844919 2.37817425 7.84454356 -1 7 C-1.04254356 5.00045254 -1.04080783 2.99958364 -1 1 C-0.67 0.67 -0.34 0.34 0 0 Z " fill="#2B2B2B" transform="translate(31,205)"/>
<path d="M0 0 C0 0.99 0 1.98 0 3 C-2.25 4.75 -2.25 4.75 -5 6 C-7.171875 5.578125 -7.171875 5.578125 -9 5 C-7.87926138 4.16094435 -6.75325453 3.32892169 -5.625 2.5 C-4.99851562 2.0359375 -4.37203125 1.571875 -3.7265625 1.09375 C-2 0 -2 0 0 0 Z " fill="#BA8B90" transform="translate(96,227)"/>
<path d="M0 0 C6.75 0.75 6.75 0.75 9 3 C8.01 3 7.02 3 6 3 C5.67 3.66 5.34 4.32 5 5 C2.5 3.625 2.5 3.625 0 2 C0 1.34 0 0.68 0 0 Z " fill="#C5C3C2" transform="translate(80,16)"/>
<path d="M0 0 C0.33 0 0.66 0 1 0 C1 3.96 1 7.92 1 12 C0.67 12 0.34 12 0 12 C-0.144375 11.2575 -0.28875 10.515 -0.4375 9.75 C-0.93059024 7.08041771 -0.93059024 7.08041771 -1.6875 4.875 C-2 3 -2 3 0 0 Z " fill="#2C292B" transform="translate(97,98)"/>
<path d="M0 0 C0.99 0.33 1.98 0.66 3 1 C1.38405168 3.04119788 -0.2856382 5.04072937 -2 7 C-2.66 7 -3.32 7 -4 7 C-2.92598892 4.08482708 -2.22189824 2.22189824 0 0 Z " fill="#E3E0E0" transform="translate(25,27)"/>
</svg>
