<?xml version="1.0" encoding="UTF-8"?>
<svg version="1.1" xmlns="http://www.w3.org/2000/svg" width="122" height="250">
<path d="M0 0 C40.26 0 80.52 0 122 0 C122 82.5 122 165 122 250 C81.74 250 41.48 250 0 250 C0 167.5 0 85 0 0 Z " fill="#E4AC34" transform="translate(0,0)"/>
<path d="M0 0 C40.26 0 80.52 0 122 0 C122 30.69 122 61.38 122 93 C117 90 117 90 115.70678711 86.36767578 C114.84716631 81.95483412 114.70385249 77.60175906 114.69140625 73.1171875 C114.66626606 71.43879831 114.64086778 69.76041298 114.61523438 68.08203125 C114.58645113 65.47087447 114.56239109 62.85978398 114.54370117 60.24853516 C114.52199541 57.70442862 114.48258201 55.1610427 114.44140625 52.6171875 C114.44123253 51.4544783 114.44123253 51.4544783 114.4410553 50.26828003 C114.35316591 45.42855745 113.49881811 42.26712143 111 38 C110.31471955 36.34089996 109.64108137 34.67667436 109 33 C107.96101563 33.08765625 106.92203125 33.1753125 105.8515625 33.265625 C101.21703416 32.94600236 99.79351917 31.80400848 96.375 28.75 C95.47523437 27.96109375 94.57546875 27.1721875 93.6484375 26.359375 C92.77445312 25.58078125 91.90046875 24.8021875 91 24 C90.06414062 23.30390625 89.12828125 22.6078125 88.1640625 21.890625 C87.44992188 21.26671875 86.73578125 20.6428125 86 20 C86 19.01 86 18.02 86 17 C79.77035385 16.97470049 73.54072088 16.95715451 67.31103516 16.94506836 C65.19058741 16.94003128 63.07014315 16.93320141 60.94970703 16.92456055 C57.90656678 16.91246766 54.86347234 16.90676553 51.8203125 16.90234375 C50.86818878 16.89718246 49.91606506 16.89202118 48.93508911 16.88670349 C47.61394608 16.88659019 47.61394608 16.88659019 46.26611328 16.88647461 C45.48889923 16.884254 44.71168518 16.88203339 43.91091919 16.87974548 C41.91348428 16.88069314 41.91348428 16.88069314 40 18 C39.505 19.485 39.505 19.485 39 21 C37.44140625 22.38671875 37.44140625 22.38671875 35.5625 23.6875 C34.94503906 24.12449219 34.32757813 24.56148437 33.69140625 25.01171875 C32 26 32 26 30 26 C29.7525 26.5775 29.505 27.155 29.25 27.75 C27.7432025 30.46223549 26.48756387 32.11751924 24 34 C20.25 34.25 20.25 34.25 17 34 C17 34.66 17 35.32 17 36 C16.34 36 15.68 36 15 36 C13.83860237 41.59774851 13.7967301 47.10536878 13.71875 52.796875 C13.70034058 53.82685608 13.68193115 54.85683716 13.66296387 55.91802979 C13.58448735 60.31129878 13.5163112 64.70471117 13.44775391 69.09814453 C13.39613588 72.3103009 13.33887492 75.5223217 13.28125 78.734375 C13.26767456 79.73329773 13.25409912 80.73222046 13.2401123 81.76141357 C13.22339478 82.6828717 13.20667725 83.60432983 13.18945312 84.55371094 C13.17692505 85.36612244 13.16439697 86.17853394 13.15148926 87.01556396 C13 89 13 89 12 91 C10.865625 91.12375 9.73125 91.2475 8.5625 91.375 C5.01914963 91.58573342 5.01914963 91.58573342 3.6875 93.6875 C3.3471875 94.8321875 3.3471875 94.8321875 3 96 C2.62875 97.0725 2.2575 98.145 1.875 99.25 C1.441875 100.61125 1.441875 100.61125 1 102 C2.65 102 4.3 102 6 102 C6 101.34 6 100.68 6 100 C9.465 99.505 9.465 99.505 13 99 C13.00054477 99.621381 13.00108953 100.24276199 13.00165081 100.88297272 C13.01663827 116.02415062 13.05916407 131.16498162 13.13209057 146.30597687 C13.16669839 153.62817189 13.19209053 160.95017948 13.19555664 168.27246094 C13.19860243 174.65688552 13.21917496 181.04097593 13.26052457 187.42527151 C13.28180118 190.80373563 13.29448316 194.18172534 13.28615379 197.56025696 C13.2812522 201.33821361 13.30732533 205.11479106 13.34057617 208.89257812 C13.33195053 210.00460602 13.32332489 211.11663391 13.31443787 212.26235962 C13.41385071 219.00926994 14.39973113 223.87299963 19 229 C20.485 229.99 20.485 229.99 22 231 C22.33 231.99 22.66 232.98 23 234 C25.01508358 234.73323796 25.01508358 234.73323796 27 235 C27 235.66 27 236.32 27 237 C31.03076834 237.7514845 34.85619904 238.13336335 38.9543457 238.16113281 C40.10606766 238.17074036 41.25778961 238.1803479 42.44441223 238.19024658 C43.67576401 238.19449646 44.90711578 238.19874634 46.17578125 238.203125 C47.45551315 238.20882507 48.73524506 238.21452515 50.05375671 238.22039795 C52.75776564 238.23086749 55.46174518 238.23673658 58.16577148 238.24023438 C61.6086068 238.24571143 65.05104516 238.26973926 68.49375629 238.29820633 C71.80442266 238.321454 75.11503761 238.32328984 78.42578125 238.328125 C79.65106033 238.3404718 80.87633942 238.3528186 82.13874817 238.36553955 C91.38351544 238.34164619 99.45681331 237.46357764 106.32333374 230.7814064 C112.74870819 223.9546434 113.73095398 218.1143307 113.65942383 208.89257812 C113.66990753 207.7014743 113.68039124 206.51037048 113.69119263 205.28317261 C113.71494381 202.03966695 113.71689538 198.79705328 113.70889878 195.55349922 C113.70576074 192.15548203 113.73084578 188.75767181 113.75285339 185.35974121 C113.79021628 178.93551327 113.80243675 172.51149697 113.8054778 166.08717108 C113.8101771 158.76900641 113.84312821 151.45105265 113.87837565 144.1329813 C113.95020749 129.08867853 113.98681044 114.04447714 114 99 C117.71599191 98.79913557 118.77208445 98.8480563 122 101 C122.36914349 103.57308388 122.36914349 103.57308388 122.36076355 106.89712524 C122.36488754 108.15358353 122.36901154 109.41004181 122.3732605 110.70457458 C122.36264235 112.1046469 122.35173791 113.50471707 122.34057617 114.90478516 C122.33973033 116.37304161 122.3402042 117.84129934 122.34190369 119.30955505 C122.34276675 123.30322133 122.32509095 127.29661897 122.30418181 131.29022264 C122.28546664 135.46091391 122.28366866 139.63161088 122.28010559 143.80233765 C122.27076991 151.70363294 122.24613561 159.60480416 122.21605712 167.50604475 C122.1763008 178.1805494 122.16007054 188.85508784 122.14255047 199.52964783 C122.11431553 216.35319154 122.05455624 233.17647339 122 250 C81.74 250 41.48 250 0 250 C0 167.5 0 85 0 0 Z " fill="#FEFEFA" transform="translate(0,0)"/>
<path d="M0 0 C1.65187065 0.00493217 1.65187065 0.00493217 3.33711243 0.00996399 C6.82541507 0.02559731 10.31272998 0.06959311 13.80078125 0.11328125 C16.15298693 0.12478546 18.5052017 0.13456681 20.85742188 0.14257812 C23.11329102 0.1559999 25.36915184 0.17092223 27.625 0.1875 C29.1970948 0.1985804 29.1970948 0.1985804 30.8009491 0.20988464 C36.00224267 0.27743804 40.98656461 0.53181144 46.11328125 1.42578125 C46.11328125 2.08578125 46.11328125 2.74578125 46.11328125 3.42578125 C47.10328125 3.42578125 48.09328125 3.42578125 49.11328125 3.42578125 C49.30867859 67.19443382 49.30867859 67.19443382 48.67578125 96.48828125 C48.64630905 97.95675507 48.64630905 97.95675507 48.61624146 99.45489502 C48.56021723 102.16543038 48.49678628 104.87565621 48.4296875 107.5859375 C48.41296997 108.37749741 48.39625244 109.16905731 48.37902832 109.98460388 C48.22953778 115.30952472 48.22953778 115.30952472 47.11328125 116.42578125 C45.12440631 116.52508658 43.13197708 116.55377587 41.140625 116.55517578 C39.8626001 116.55832794 38.5845752 116.5614801 37.26782227 116.56472778 C35.86214158 116.562938 34.4564612 116.56088705 33.05078125 116.55859375 C31.61971012 116.55926683 30.1886391 116.56023689 28.75756836 116.56149292 C25.75470901 116.56296969 22.75187935 116.56081601 19.74902344 116.55615234 C15.89175554 116.55045506 12.03455721 116.55373417 8.17729187 116.55972481 C5.22114534 116.56333099 2.26501542 116.56219157 -0.69113159 116.55959702 C-2.11375944 116.5589279 -3.53638878 116.55975562 -4.95901489 116.56207657 C-6.94403049 116.56460399 -8.92905134 116.56007167 -10.9140625 116.55517578 C-12.61163696 116.55398239 -12.61163696 116.55398239 -14.34350586 116.55276489 C-16.88671875 116.42578125 -16.88671875 116.42578125 -17.88671875 115.42578125 C-20.52087209 96.42873451 -20.50373644 77.10624415 -20.95117188 57.96405029 C-21.03221296 54.5666154 -21.11999718 51.16936957 -21.20804024 47.77210999 C-21.31442079 43.65673039 -21.41721812 39.54126369 -21.51953125 35.42578125 C-21.53864689 34.6659494 -21.55776253 33.90611755 -21.57745743 33.1232605 C-21.81501734 23.5546607 -21.93685048 13.99797825 -21.88671875 4.42578125 C-14.44299898 0.80812561 -8.22008634 -0.13811833 0 0 Z " fill="#FEC441" transform="translate(49.88671875,106.57421875)"/>
<path d="M0 0 C0.28628567 2.87517008 0.37474609 5.50168636 0.3125 8.375 C0.29775635 9.62494751 0.29775635 9.62494751 0.28271484 10.90014648 C0.15488028 17.30919816 -0.2769392 23.68124367 -0.875 30.0625 C-0.95322998 30.92472168 -1.03145996 31.78694336 -1.11206055 32.67529297 C-1.75207656 38.75207656 -1.75207656 38.75207656 -4 41 C-6.40296936 40.98246765 -6.40296936 40.98246765 -9.38305664 40.63549805 C-15.56754926 40.01055248 -21.65855644 39.83885703 -27.87109375 39.83203125 C-29.4973745 39.82703865 -29.4973745 39.82703865 -31.1565094 39.82194519 C-33.43123963 39.81692136 -35.70597712 39.81453544 -37.98071289 39.81469727 C-41.42541815 39.81250768 -44.86980414 39.79429434 -48.31445312 39.77539062 C-63.179797 39.69034609 -63.179797 39.69034609 -77.85961914 41.7644043 C-78.56594482 41.84215088 -79.27227051 41.91989746 -80 42 C-82.77072803 39.22927197 -82.488701 37.21687933 -82.8515625 33.33984375 C-82.91532074 32.67594131 -82.97907898 32.01203888 -83.04476929 31.32801819 C-83.17828256 29.91869883 -83.30744748 28.50896184 -83.43261719 27.09887695 C-83.62218263 24.96915256 -83.82547742 22.84110345 -84.03125 20.71289062 C-84.6835707 13.79029738 -85.17059177 6.95549158 -85 0 C-84.34 0 -83.68 0 -83 0 C-83 -0.66 -83 -1.32 -83 -2 C-80.12880297 -4.08814329 -77.68461991 -5.08935769 -74.25 -6.0625 C-73.1775 -6.371875 -72.105 -6.68125 -71 -7 C-70.67 -7.66 -70.34 -8.32 -70 -9 C-46.44241971 -17.92776902 -20.64168782 -13.76112522 0 0 Z " fill="#1C1B1F" transform="translate(105,68)"/>
<path d="M0 0 C0.90009293 -0.00095673 1.80018585 -0.00191345 2.72755432 -0.00289917 C4.63323028 -0.00358036 6.53890856 -0.00173031 8.44458008 0.00244141 C11.36349706 0.00778429 14.28225974 0.00249757 17.20117188 -0.00390625 C19.05078159 -0.00324534 20.90039121 -0.0019639 22.75 0 C23.62506699 -0.00202423 24.50013397 -0.00404846 25.40171814 -0.00613403 C26.21588699 -0.00298187 27.03005585 0.00017029 27.86889648 0.00341797 C28.94239601 0.00461136 28.94239601 0.00461136 30.0375824 0.00582886 C31.94140625 0.1328125 31.94140625 0.1328125 34.94140625 1.1328125 C35.43640625 2.6178125 35.43640625 2.6178125 35.94140625 4.1328125 C37.3324424 5.52661933 37.3324424 5.52661933 39.06640625 6.796875 C39.6903125 7.27898438 40.31421875 7.76109375 40.95703125 8.2578125 C41.93929687 9.0003125 41.93929687 9.0003125 42.94140625 9.7578125 C44.23334039 10.7496517 45.5250203 11.74182216 46.81640625 12.734375 C47.84765625 13.52585937 48.87890625 14.31734375 49.94140625 15.1328125 C50.43640625 15.6278125 50.43640625 15.6278125 50.94140625 16.1328125 C53.27438058 16.17374187 55.6084585 16.17522973 57.94140625 16.1328125 C58.94140625 18.1328125 59.94140625 20.1328125 60.94140625 22.1328125 C61.46210693 23.01469238 61.98280762 23.89657227 62.51928711 24.80517578 C64.28987989 28.94821092 64.38214739 32.29847455 64.3828125 36.75 C64.40262428 37.97397995 64.40262428 37.97397995 64.4228363 39.22268677 C64.46352436 41.81776346 64.48533033 44.41249042 64.50390625 47.0078125 C64.52782067 49.59588407 64.55616395 52.18363256 64.59568787 54.77151489 C64.61972769 56.37644219 64.63484277 57.98153826 64.63929749 59.5866394 C64.71005077 64.7321485 65.40500548 69.20730229 66.94140625 74.1328125 C68.89517006 76.14667098 68.89517006 76.14667098 70.94140625 77.1328125 C70.61140625 77.7928125 70.28140625 78.4528125 69.94140625 79.1328125 C69.25433594 78.6996875 68.56726563 78.2665625 67.859375 77.8203125 C66.95832031 77.2634375 66.05726562 76.7065625 65.12890625 76.1328125 C64.23558594 75.5759375 63.34226562 75.0190625 62.421875 74.4453125 C59.96718002 72.89896458 59.96718002 72.89896458 56.94140625 73.1328125 C56.28140625 74.1228125 55.62140625 75.1128125 54.94140625 76.1328125 C54.91396832 74.1328922 54.8948157 72.13285773 54.87890625 70.1328125 C54.86730469 69.0190625 54.85570313 67.9053125 54.84375 66.7578125 C54.94140625 63.1328125 54.94140625 63.1328125 55.42773438 59.44726562 C55.98655642 55.12112592 56.16020427 50.83449509 56.2578125 46.4765625 C56.28898415 45.29495544 56.28898415 45.29495544 56.32078552 44.08947754 C56.38551599 41.60400044 56.44480531 39.11842917 56.50390625 36.6328125 C56.54716448 34.93488658 56.59078093 33.23696975 56.63476562 31.5390625 C56.74111738 27.40373925 56.84259374 23.26832249 56.94140625 19.1328125 C55.62140625 19.1328125 54.30140625 19.1328125 52.94140625 19.1328125 C53.43640625 20.1228125 53.43640625 20.1228125 53.94140625 21.1328125 C54.02632125 23.0192037 54.04859925 24.90859765 54.0390625 26.796875 C54.03422852 28.47910156 54.03422852 28.47910156 54.02929688 30.1953125 C54.01672852 31.95875 54.01672852 31.95875 54.00390625 33.7578125 C53.99939453 34.94117188 53.99488281 36.12453125 53.99023438 37.34375 C53.97842092 40.27348757 53.96194883 43.20312522 53.94140625 46.1328125 C51.27476435 47.46613345 49.77460322 46.80383283 46.94140625 46.1328125 C46.94140625 45.4728125 46.94140625 44.8128125 46.94140625 44.1328125 C45.78382812 43.86726563 44.62625 43.60171875 43.43359375 43.328125 C41.89449632 42.97150486 40.35543577 42.61472559 38.81640625 42.2578125 C38.05585937 42.08378906 37.2953125 41.90976562 36.51171875 41.73046875 C35.7640625 41.55644531 35.01640625 41.38242187 34.24609375 41.203125 C33.22491455 40.96746826 33.22491455 40.96746826 32.18310547 40.72705078 C29.94140625 40.1328125 29.94140625 40.1328125 27.04858398 39.08032227 C23.82817706 38.09828414 21.27750125 37.88868666 17.921875 37.90234375 C16.26575195 37.90524414 16.26575195 37.90524414 14.57617188 37.90820312 C13.43857422 37.92044922 12.30097656 37.93269531 11.12890625 37.9453125 C9.97197266 37.94595703 8.81503906 37.94660156 7.62304688 37.94726562 C2.42324615 37.47422726 2.42324615 37.47422726 -2.05859375 39.1328125 C-3.23421875 39.2565625 -4.40984375 39.3803125 -5.62109375 39.5078125 C-9.46439203 39.92871231 -12.66139762 40.98402326 -16.19921875 42.51171875 C-18.05859375 43.1328125 -18.05859375 43.1328125 -22.05859375 43.1328125 C-22.05859375 44.1228125 -22.05859375 45.1128125 -22.05859375 46.1328125 C-26.55859375 47.6328125 -26.55859375 47.6328125 -31.05859375 49.1328125 C-31.04699219 47.85664062 -31.03539062 46.58046875 -31.0234375 45.265625 C-31.01405958 43.59635563 -31.00495938 41.92708467 -30.99609375 40.2578125 C-30.98771484 39.41605469 -30.97933594 38.57429688 -30.97070312 37.70703125 C-30.96748047 36.90136719 -30.96425781 36.09570312 -30.9609375 35.265625 C-30.95570068 34.52199707 -30.95046387 33.77836914 -30.94506836 33.01220703 C-30.94072739 31.04148682 -30.94072739 31.04148682 -32.05859375 29.1328125 C-32.11766582 33.36191839 -32.15254416 37.59091539 -32.18359375 41.8203125 C-32.20035156 42.99916016 -32.21710937 44.17800781 -32.234375 45.39257812 C-32.2730933 52.45866833 -31.7021255 59.06904201 -30.50830078 66.02807617 C-29.81081333 70.84346591 -29.84245212 75.59026781 -29.93359375 80.4453125 C-29.94261719 81.38826172 -29.95164062 82.33121094 -29.9609375 83.30273438 C-29.98405411 85.57972024 -30.01661796 87.85611022 -30.05859375 90.1328125 C-30.38859375 90.1328125 -30.71859375 90.1328125 -31.05859375 90.1328125 C-32.01479108 86.13485358 -32.16255295 82.42477328 -32.12109375 78.3203125 C-32.11207031 77.15886719 -32.10304688 75.99742188 -32.09375 74.80078125 C-32.08214844 73.92035156 -32.07054687 73.03992188 -32.05859375 72.1328125 C-33.70859375 72.1328125 -35.35859375 72.1328125 -37.05859375 72.1328125 C-37.05859375 72.7928125 -37.05859375 73.4528125 -37.05859375 74.1328125 C-37.71859375 73.8028125 -38.37859375 73.4728125 -39.05859375 73.1328125 C-38.9660768 66.5489006 -38.85873926 59.96534853 -38.74121094 53.38183594 C-38.70298387 51.14328459 -38.66812014 48.90467313 -38.63671875 46.66601562 C-38.59093227 43.44379224 -38.53295961 40.22198043 -38.47265625 37 C-38.46110504 36.00290009 -38.44955383 35.00580017 -38.43765259 33.97848511 C-38.33214745 28.9844506 -38.02270988 24.81223304 -36.05859375 20.1328125 C-35.39859375 20.1328125 -34.73859375 20.1328125 -34.05859375 20.1328125 C-34.05859375 19.4728125 -34.05859375 18.8128125 -34.05859375 18.1328125 C-33.02734375 18.1121875 -31.99609375 18.0915625 -30.93359375 18.0703125 C-26.309384 16.95155208 -25.37884399 15.6041065 -22.60546875 11.98828125 C-20.13811173 9.02869897 -17.30362614 7.19215998 -14.05859375 5.1328125 C-13.39859375 5.1328125 -12.73859375 5.1328125 -12.05859375 5.1328125 C-11.93484375 4.4934375 -11.81109375 3.8540625 -11.68359375 3.1953125 C-11.37421875 2.174375 -11.37421875 2.174375 -11.05859375 1.1328125 C-7.64790494 -0.57253191 -3.75185594 -0.00865887 0 0 Z " fill="#FCBE39" transform="translate(51.05859375,15.8671875)"/>
<path d="M0 0 C0.28628567 2.87517008 0.37474609 5.50168636 0.3125 8.375 C0.29775635 9.62494751 0.29775635 9.62494751 0.28271484 10.90014648 C0.15488028 17.30919816 -0.2769392 23.68124367 -0.875 30.0625 C-0.95322998 30.92472168 -1.03145996 31.78694336 -1.11206055 32.67529297 C-1.75207656 38.75207656 -1.75207656 38.75207656 -4 41 C-6.40296936 40.98246765 -6.40296936 40.98246765 -9.38305664 40.63549805 C-15.56754926 40.01055248 -21.65855644 39.83885703 -27.87109375 39.83203125 C-29.4973745 39.82703865 -29.4973745 39.82703865 -31.1565094 39.82194519 C-33.43123963 39.81692136 -35.70597712 39.81453544 -37.98071289 39.81469727 C-41.42541815 39.81250768 -44.86980414 39.79429434 -48.31445312 39.77539062 C-64.25769966 39.70958508 -64.25769966 39.70958508 -80 42 C-80.33 41.34 -80.66 40.68 -81 40 C-78.69 40 -76.38 40 -74 40 C-74 39.34 -74 38.68 -74 38 C-57.03007004 35.92163759 -40.07467983 35.40559784 -23 35 C-23.15339844 33.9996875 -23.30679688 32.999375 -23.46484375 31.96875 C-24.31333136 25.18084916 -24.36597341 18.33110391 -24.5625 11.5 C-24.60577737 10.09113527 -24.64939431 8.68228093 -24.69335938 7.2734375 C-24.79890571 3.8490454 -24.90101798 0.42458708 -25 -3 C-29.15241494 -5.07620747 -34.53408208 -4.18585812 -39.1015625 -4.18530273 C-41.09639602 -4.18746894 -43.09119035 -4.20592092 -45.0859375 -4.22460938 C-56.38269865 -4.69223893 -56.38269865 -4.69223893 -66.125 0 C-66.74375 0.66 -67.3625 1.32 -68 2 C-69.98636298 2.70626239 -71.98848259 3.36893571 -74 4 C-76.39669263 5.24415835 -78.68250457 6.60950274 -81 8 C-81.33 7.67 -81.66 7.34 -82 7 C-82.33 11.62 -82.66 16.24 -83 21 C-83.33 21 -83.66 21 -84 21 C-84.33 14.07 -84.66 7.14 -85 0 C-84.34 0 -83.68 0 -83 0 C-83 -0.66 -83 -1.32 -83 -2 C-80.12880297 -4.08814329 -77.68461991 -5.08935769 -74.25 -6.0625 C-73.1775 -6.371875 -72.105 -6.68125 -71 -7 C-70.67 -7.66 -70.34 -8.32 -70 -9 C-46.44241971 -17.92776902 -20.64168782 -13.76112522 0 0 Z " fill="#2E2B2A" transform="translate(105,68)"/>
<path d="M0 0 C0.66 0.33 1.32 0.66 2 1 C1.38125 1.0825 0.7625 1.165 0.125 1.25 C-2.14785979 1.80581505 -2.14785979 1.80581505 -3.1875 3.875 C-3.83464059 5.56752155 -4.42698864 7.28096593 -5 9 C-4.29875 8.67 -3.5975 8.34 -2.875 8 C0.26820306 6.90671198 2.69794492 6.92682426 6 7 C6.00238835 7.60868518 6.00477671 8.21737036 6.00723743 8.84450054 C6.06638828 23.65909812 6.14193887 38.47354397 6.23571491 53.2879591 C6.28066953 60.45213029 6.32008489 67.61625181 6.34643555 74.78051758 C6.36941842 81.02531766 6.40281951 87.2699605 6.44870156 93.51463586 C6.47263021 96.82080417 6.48980731 100.12678349 6.49761391 103.4330349 C6.50721561 107.12510802 6.53522921 110.81661136 6.56762695 114.50854492 C6.56619186 115.60330643 6.56475677 116.69806793 6.5632782 117.82600403 C6.64594624 124.88600156 6.64594624 124.88600156 10 131 C10.6875 133.8125 10.6875 133.8125 11 136 C11.99 136.33 12.98 136.66 14 137 C14.66 137.99 15.32 138.98 16 140 C23.54150539 142.88352216 32.29494667 142.30644231 40.22265625 142.30078125 C41.57685983 142.30467951 42.9310622 142.30901645 44.28526306 142.31376648 C47.10663847 142.32117752 49.9278886 142.32097388 52.74926758 142.31567383 C56.34222823 142.3098697 59.93467495 142.32685738 63.5275507 142.3500185 C66.3184655 142.36483284 69.10925845 142.36561744 71.90020561 142.36250877 C73.86147717 142.36326254 75.82273 142.37706018 77.78395081 142.39118958 C89.30548002 142.44842771 89.30548002 142.44842771 99 137 C99.45811675 135.02764667 99.45811675 135.02764667 99.625 132.875 C99.810625 130.956875 99.810625 130.956875 100 129 C98.68 128.67 97.36 128.34 96 128 C96 128.66 96 129.32 96 130 C95.34 130 94.68 130 94 130 C94 109.21 94 88.42 94 67 C94.33 67 94.66 67 95 67 C95.495 86.8 95.495 86.8 96 107 C96.33 83.57 96.66 60.14 97 36 C97.33 36 97.66 36 98 36 C98.0154612 37.28333221 98.0154612 37.28333221 98.03123474 38.59259033 C98.12921725 46.6558587 98.23173285 54.71905395 98.33933926 62.78219986 C98.39450068 66.92752713 98.44790977 71.07286153 98.49731445 75.21826172 C98.54505811 79.21888037 98.5974044 83.21941476 98.65294075 87.21993256 C98.67331902 88.74612072 98.6920395 90.27233195 98.70907402 91.7985611 C98.7332185 93.93643016 98.76325894 96.07414124 98.79467773 98.21191406 C98.81799416 100.03725677 98.81799416 100.03725677 98.84178162 101.8994751 C98.97283253 104.46761302 99.10261593 106.59847595 100 109 C100.66 109.33 101.32 109.66 102 110 C101.505 57.035 101.505 57.035 101 3 C102.32 3.33 103.64 3.66 105 4 C105 4.66 105 5.32 105 6 C106.32 6.66 107.64 7.32 109 8 C108.01 8 107.02 8 106 8 C106.00645255 8.61953741 106.0129051 9.23907482 106.01955318 9.87738609 C106.17446755 24.98559314 106.29013599 40.09355479 106.3626852 55.20235252 C106.39870658 62.50905339 106.44777347 69.81522256 106.52807617 77.12158203 C106.5980741 83.49342333 106.64306085 89.86487939 106.65861946 96.23709452 C106.66770786 99.60814743 106.68890627 102.97809876 106.7401104 106.34879684 C106.79112176 110.12169761 106.79791503 113.89233578 106.79467773 117.66552734 C106.83242813 119.32278336 106.83242813 119.32278336 106.87094116 121.01351929 C106.77966079 130.8815437 102.43151192 136.74895097 95.5625 143.5 C89.00917901 149.38601155 78.68332649 148.29247311 70.5234375 148.265625 C68.59741196 148.26849518 68.59741196 148.26849518 66.63247681 148.27142334 C63.92778659 148.2743562 61.22322934 148.27013527 58.51855469 148.26074219 C55.06433774 148.24932565 51.61043092 148.25593249 48.1562252 148.26788712 C44.84110483 148.27687663 41.52606666 148.2705726 38.2109375 148.265625 C36.35920425 148.27169769 36.35920425 148.27169769 34.47006226 148.27789307 C33.31511261 148.27158875 32.16016296 148.26528442 30.97021484 148.25878906 C29.95953949 148.25719788 28.94886414 148.25560669 27.90756226 148.25396729 C24.69229386 147.97312274 22.01378493 147.12873821 19 146 C19 145.34 19 144.68 19 144 C17.35 143.67 15.7 143.34 14 143 C14 142.01 14 141.02 14 140 C13.39598704 139.7394709 12.79197409 139.4789418 12.16965771 139.21051788 C8.37335155 137.09244346 6.62983385 133.9589426 5 130 C4.3266953 125.95156575 4.36615812 121.98866692 4.43237305 117.89257812 C4.43164291 116.7014743 4.43091278 115.51037048 4.43016052 114.28317261 C4.43303326 111.03950927 4.45798879 107.79694508 4.49303031 104.55349922 C4.52443143 101.15562911 4.5272353 97.75773403 4.53315735 94.35974121 C4.54865573 87.93534545 4.589629 81.51137857 4.6399048 75.08717108 C4.6959239 67.76916865 4.72331618 60.451145 4.74838197 53.1329813 C4.80054915 38.08841584 4.88841238 23.04425095 5 8 C2.69 8.33 0.38 8.66 -2 9 C-2 9.66 -2 10.32 -2 11 C-3.65 11 -5.3 11 -7 11 C-7.39600661 7.53494217 -7.14386351 6.21827567 -5.1875 3.25 C-3 1 -3 1 0 0 Z " fill="#F6B935" transform="translate(8,91)"/>
<path d="M0 0 C1.65 0 3.3 0 5 0 C5.33 4.29 5.66 8.58 6 13 C6.33 9.04 6.66 5.08 7 1 C7.33 1 7.66 1 8 1 C8.05534912 1.57032959 8.11069824 2.14065918 8.16772461 2.72827148 C8.41973743 5.29848753 8.67852728 7.86797631 8.9375 10.4375 C9.02451172 11.33533203 9.11152344 12.23316406 9.20117188 13.15820312 C9.28818359 14.01220703 9.37519531 14.86621094 9.46484375 15.74609375 C9.543396 16.53685303 9.62194824 17.3276123 9.70288086 18.14233398 C9.81551499 20.01103348 9.81551499 20.01103348 11 21 C14.21154068 41.67841644 13.22182483 63.14505355 13 84 C12.67 84 12.34 84 12 84 C11.67 74.43 11.34 64.86 11 55 C10.90912109 60.18009766 10.90912109 60.18009766 10.81640625 65.46484375 C10.7546716 68.79421298 10.69126125 72.12354634 10.62768555 75.45288086 C10.58426261 77.77413773 10.54259316 80.09542808 10.50268555 82.41674805 C10.4451606 85.74538278 10.38141575 89.07384785 10.31640625 92.40234375 C10.29133751 93.96951393 10.29133751 93.96951393 10.26576233 95.56834412 C10.24581711 96.52926468 10.22587189 97.49018524 10.20532227 98.48022461 C10.18977798 99.33071884 10.1742337 100.18121307 10.15821838 101.05747986 C10 103 10 103 9 104 C8.71710819 106.25415378 8.5522881 108.50840656 8.37890625 110.7734375 C8 113 8 113 6 116 C4.02 116 2.04 116 0 116 C0 81.02 0 46.04 0 10 C-3.63 10.66 -7.26 11.32 -11 12 C-10 8 -10 8 -8 5 C-2.66666667 2 -2.66666667 2 0 2 C0 1.34 0 0.68 0 0 Z " fill="#E6B342" transform="translate(14,88)"/>
<path d="M0 0 C1.20648916 2.41297833 1.10243647 3.86155174 1.06451416 6.55493164 C1.053396 7.51400421 1.04227783 8.47307678 1.03082275 9.46121216 C1.01323914 10.51686371 0.99565552 11.57251526 0.97753906 12.66015625 C0.95572571 14.32363602 0.95572571 14.32363602 0.93347168 16.02072144 C0.88333964 19.70142378 0.82510643 23.38193753 0.765625 27.0625 C0.72651262 29.61075801 0.68743014 32.15901648 0.64837646 34.70727539 C0.57551442 39.3699558 0.49973408 44.03257108 0.42057633 48.69514751 C0.3039528 55.564915 0.2003832 62.43471424 0.10821366 69.30485249 C0.02760423 75.24991782 -0.06923912 81.19464883 -0.17206573 87.13937378 C-0.21361334 89.67195119 -0.25020719 92.20461471 -0.28185272 94.73733521 C-0.3273201 98.27190141 -0.39127936 101.80566324 -0.45996094 105.33984375 C-0.46944763 106.3954953 -0.47893433 107.45114685 -0.4887085 108.53878784 C-0.51110596 109.49786041 -0.53350342 110.45693298 -0.55657959 111.44506836 C-0.56986172 112.28130234 -0.58314384 113.11753632 -0.59682846 113.97911072 C-0.72987507 114.64600418 -0.86292168 115.31289764 -1 116 C-8.42050891 120.94700594 -20.54152487 119.13683258 -29.203125 119.09765625 C-31.00882965 119.09553383 -31.00882965 119.09553383 -32.85101318 119.09336853 C-36.65070203 119.08782463 -40.45032932 119.07528295 -44.25 119.0625 C-46.84505123 119.05747774 -49.44010338 119.05291611 -52.03515625 119.04882812 C-58.35679141 119.03787365 -64.67839131 119.02119249 -71 119 C-71.33 118.01 -71.66 117.02 -72 116 C-72.66 116 -73.32 116 -74 116 C-74.02283554 114.92417664 -74.04567108 113.84835327 -74.06919861 112.7399292 C-74.28576404 102.56000713 -74.50624934 92.38017634 -74.73049068 82.20042038 C-74.8456283 76.9679631 -74.95942467 71.73548408 -75.07006836 66.50292969 C-75.17706208 61.44539321 -75.28769322 56.38794777 -75.40075874 51.33054352 C-75.44309373 49.40905774 -75.48415751 47.48754349 -75.5238781 45.56600189 C-75.80524945 31.91487015 -75.80524945 31.91487015 -76.79052734 18.29919434 C-77.08193956 15.10062265 -77.09740517 11.96127595 -77.0625 8.75 C-77.05347656 7.65171875 -77.04445313 6.5534375 -77.03515625 5.421875 C-77.02355469 4.62265625 -77.01195313 3.8234375 -77 3 C-73.535 2.505 -73.535 2.505 -70 2 C-70.99 2.66 -71.98 3.32 -73 4 C-73.40674635 6.2756756 -73.40674635 6.2756756 -73.26464844 8.95166016 C-73.24758347 9.99051865 -73.23051849 11.02937714 -73.2129364 12.09971619 C-73.16167351 13.80219261 -73.16167351 13.80219261 -73.109375 15.5390625 C-73.08571365 16.7154982 -73.06205231 17.8919339 -73.03767395 19.10401917 C-72.95661588 22.94484098 -72.85379106 26.78473071 -72.75 30.625 C-72.68891908 33.25298565 -72.62894278 35.8809972 -72.57006836 38.5090332 C-72.4233853 44.88881698 -72.25878368 51.26798172 -72.08782959 57.64715576 C-71.98975105 61.39124783 -71.90326691 65.13549266 -71.82028198 68.87994385 C-71.74274218 72.31603412 -71.65313501 75.7517293 -71.5625 79.1875 C-71.53575195 80.30656738 -71.50900391 81.42563477 -71.48144531 82.57861328 C-71.14064158 93.4697269 -69.99258586 104.08155555 -69 115 C-47.88 115 -26.76 115 -5 115 C-4.34 78.04 -3.68 41.08 -3 3 C-3.99 2.67 -4.98 2.34 -6 2 C-4.02 1.34 -2.04 0.68 0 0 Z " fill="#BD8C21" transform="translate(102,107)"/>
<path d="M0 0 C0.34057617 1.97119141 0.34057617 1.97119141 0.29296875 4.3515625 C0.28330078 5.20234375 0.27363281 6.053125 0.26367188 6.9296875 C0.23853516 7.81914063 0.21339844 8.70859375 0.1875 9.625 C0.16719727 10.97078125 0.16719727 10.97078125 0.14648438 12.34375 C0.11106925 14.56309789 0.06168461 16.78125188 0 19 C-0.33 19 -0.66 19 -1 19 C-1.33 12.73 -1.66 6.46 -2 0 C-3.32 0 -4.64 0 -6 0 C-5.01 0.33 -4.02 0.66 -3 1 C-3.33 2.32 -3.66 3.64 -4 5 C-5.32 4.34 -6.64 3.68 -8 3 C-8 2.34 -8 1.68 -8 1 C-9.03640625 0.89042969 -10.0728125 0.78085938 -11.140625 0.66796875 C-12.51049264 0.50846361 -13.88028037 0.34827116 -15.25 0.1875 C-16.27287109 0.08211914 -16.27287109 0.08211914 -17.31640625 -0.02539062 C-22.6002615 -0.66663519 -22.6002615 -0.66663519 -24.82617188 -2.52294922 C-27.79098058 -4.5374475 -29.89090116 -4.37257095 -33.453125 -4.36328125 C-34.71253906 -4.36263672 -35.97195312 -4.36199219 -37.26953125 -4.36132812 C-39.23986328 -4.3371582 -39.23986328 -4.3371582 -41.25 -4.3125 C-42.54808594 -4.31572266 -43.84617188 -4.31894531 -45.18359375 -4.32226562 C-56.43152187 -4.68850395 -56.43152187 -4.68850395 -66.125 0 C-66.74375 0.66 -67.3625 1.32 -68 2 C-69.98636298 2.70626239 -71.98848259 3.36893571 -74 4 C-76.39669263 5.24415835 -78.68250457 6.60950274 -81 8 C-81.33 7.67 -81.66 7.34 -82 7 C-82.33 11.62 -82.66 16.24 -83 21 C-83.33 21 -83.66 21 -84 21 C-84.33 14.07 -84.66 7.14 -85 0 C-84.34 0 -83.68 0 -83 0 C-83 -0.66 -83 -1.32 -83 -2 C-80.12880297 -4.08814329 -77.68461991 -5.08935769 -74.25 -6.0625 C-73.1775 -6.371875 -72.105 -6.68125 -71 -7 C-70.67 -7.66 -70.34 -8.32 -70 -9 C-46.44241971 -17.92776902 -20.64168782 -13.76112522 0 0 Z " fill="#3B3939" transform="translate(105,68)"/>
<path d="M0 0 C2.32465021 22.7498137 2.24390156 45.41660291 2.1373291 68.25671387 C2.11651022 73.20562997 2.10766004 78.15456794 2.09765625 83.10351562 C2.07649525 92.73573265 2.04256864 102.36785537 2 112 C-0.475 112.495 -0.475 112.495 -3 113 C-3.33 78.68 -3.66 44.36 -4 9 C-7.63 9.66 -11.26 10.32 -15 11 C-13.4912847 4.9651388 -13.4912847 4.9651388 -10.1953125 2.83203125 C-9.51210937 2.49558594 -8.82890625 2.15914063 -8.125 1.8125 C-7.44695313 1.46832031 -6.76890625 1.12414062 -6.0703125 0.76953125 C-4 0 -4 0 0 0 Z " fill="#5F4314" transform="translate(18,89)"/>
<path d="M0 0 C0.66 0.33 1.32 0.66 2 1 C1.38125 1.0825 0.7625 1.165 0.125 1.25 C-2.14785979 1.80581505 -2.14785979 1.80581505 -3.1875 3.875 C-3.83464059 5.56752155 -4.42698864 7.28096593 -5 9 C-4.29875 8.67 -3.5975 8.34 -2.875 8 C0.26820306 6.90671198 2.69794492 6.92682426 6 7 C6.00238835 7.60868518 6.00477671 8.21737036 6.00723743 8.84450054 C6.06638828 23.65909812 6.14193887 38.47354397 6.23571491 53.2879591 C6.28066953 60.45213029 6.32008489 67.61625181 6.34643555 74.78051758 C6.36941842 81.02531766 6.40281951 87.2699605 6.44870156 93.51463586 C6.47263021 96.82080417 6.48980731 100.12678349 6.49761391 103.4330349 C6.50721561 107.12510802 6.53522921 110.81661136 6.56762695 114.50854492 C6.56619186 115.60330643 6.56475677 116.69806793 6.5632782 117.82600403 C6.64594624 124.88600156 6.64594624 124.88600156 10 131 C10.6875 133.8125 10.6875 133.8125 11 136 C11.99 136.33 12.98 136.66 14 137 C14.66 137.99 15.32 138.98 16 140 C23.54150539 142.88352216 32.29494667 142.30644231 40.22265625 142.30078125 C41.57685983 142.30467951 42.9310622 142.30901645 44.28526306 142.31376648 C47.10663847 142.32117752 49.9278886 142.32097388 52.74926758 142.31567383 C56.34222823 142.3098697 59.93467495 142.32685738 63.5275507 142.3500185 C66.3184655 142.36483284 69.10925845 142.36561744 71.90020561 142.36250877 C73.86147717 142.36326254 75.82273 142.37706018 77.78395081 142.39118958 C86.57399022 142.34587802 93.21303307 140.98549596 101 137 C96.19521087 143.21896465 91.9541112 146.69991265 84 148 C82.03882732 148.09362932 80.07496494 148.13791864 78.11157227 148.14526367 C76.36935143 148.15483345 76.36935143 148.15483345 74.5919342 148.16459656 C73.34600998 148.16570938 72.10008575 148.1668222 70.81640625 148.16796875 C69.52814438 148.17129715 68.23988251 148.17462555 66.9125824 148.17805481 C64.19000409 148.18402911 61.46745745 148.18589642 58.74487305 148.18530273 C55.26705178 148.1852011 51.78943463 148.1988618 48.31166172 148.21607494 C44.97990695 148.22990635 41.64818934 148.22928455 38.31640625 148.23046875 C36.45055626 148.24124702 36.45055626 148.24124702 34.54701233 148.25224304 C32.80006325 148.2476281 32.80006325 148.2476281 31.01782227 148.24291992 C29.9980983 148.24434494 28.97837433 148.24576996 27.92774963 148.24723816 C24.70022049 147.97468467 22.02353268 147.13481599 19 146 C19 145.34 19 144.68 19 144 C17.35 143.67 15.7 143.34 14 143 C14 142.01 14 141.02 14 140 C13.39598704 139.7394709 12.79197409 139.4789418 12.16965771 139.21051788 C8.37335155 137.09244346 6.62983385 133.9589426 5 130 C4.3266953 125.95156575 4.36615812 121.98866692 4.43237305 117.89257812 C4.43164291 116.7014743 4.43091278 115.51037048 4.43016052 114.28317261 C4.43303326 111.03950927 4.45798879 107.79694508 4.49303031 104.55349922 C4.52443143 101.15562911 4.5272353 97.75773403 4.53315735 94.35974121 C4.54865573 87.93534545 4.589629 81.51137857 4.6399048 75.08717108 C4.6959239 67.76916865 4.72331618 60.451145 4.74838197 53.1329813 C4.80054915 38.08841584 4.88841238 23.04425095 5 8 C2.69 8.33 0.38 8.66 -2 9 C-2 9.66 -2 10.32 -2 11 C-3.65 11 -5.3 11 -7 11 C-7.39600661 7.53494217 -7.14386351 6.21827567 -5.1875 3.25 C-3 1 -3 1 0 0 Z " fill="#F2C768" transform="translate(8,91)"/>
<path d="M0 0 C3.82303833 0.76460767 6.38393238 1.47614782 9.8125 3.0625 C10.99779297 3.60583984 10.99779297 3.60583984 12.20703125 4.16015625 C12.79871094 4.43730469 13.39039062 4.71445313 14 5 C14.23680854 29.9175209 14.23680854 29.9175209 13 37 C12.34 37.66 11.68 38.32 11 39 C7.04407344 38.68603757 3.75516546 38.25172182 0 37 C0 24.79 0 12.58 0 0 Z " fill="#1D1C1F" transform="translate(90,70)"/>
<path d="M0 0 C4.90253826 0.29712353 9.42166891 2.70898016 13 6 C13.5 9.3125 13.5 9.3125 13 12 C4.31034483 8.62068966 4.31034483 8.62068966 3 6 C2.01 5.67 1.02 5.34 0 5 C0.16265854 5.62017502 0.32531708 6.24035004 0.49290466 6.87931824 C1.20153684 11.24026448 1.13047211 15.51992027 1.11352539 19.9309082 C1.11367142 20.92650253 1.11381744 21.92209686 1.1139679 22.94786072 C1.11327232 26.23218988 1.10549652 29.51646202 1.09765625 32.80078125 C1.09579081 35.08049997 1.0943675 37.36021909 1.09336853 39.63993835 C1.08955329 45.63551951 1.07973146 51.63107638 1.06866455 57.62664795 C1.0584291 63.746538 1.05386633 69.86643198 1.04882812 75.98632812 C1.03810832 87.99089608 1.02104379 99.99544602 1 112 C0.01 111.67 -0.98 111.34 -2 111 C-3.45734837 107.07048244 -3.14766692 102.8908574 -3.14526367 98.75341797 C-3.14862228 97.92343292 -3.1519809 97.09344788 -3.15544128 96.23831177 C-3.16494915 93.48958846 -3.16689537 90.74092625 -3.16796875 87.9921875 C-3.17118518 86.06804378 -3.17454954 84.1439003 -3.17805481 82.21975708 C-3.1840483 78.17628413 -3.18589486 74.13283255 -3.18530273 70.08935547 C-3.18520195 64.95699291 -3.19876526 59.82477134 -3.21607494 54.69244194 C-3.22731358 50.70963947 -3.22921822 46.72686957 -3.22869301 42.74405289 C-3.22985877 40.85540412 -3.23419974 38.9667541 -3.24202538 37.07812119 C-3.28748127 24.95796977 -2.91423755 12.99107089 -1 1 C-0.67 0.67 -0.34 0.34 0 0 Z " fill="#41270B" transform="translate(109,89)"/>
<path d="M0 0 C0.00054477 0.621381 0.00108953 1.24276199 0.00165081 1.88297272 C0.01663827 17.02415062 0.05916407 32.16498162 0.13209057 47.30597687 C0.16669839 54.62817189 0.19209053 61.95017948 0.19555664 69.27246094 C0.19860243 75.65688552 0.21917496 82.04097593 0.26052457 88.42527151 C0.28180118 91.80373563 0.29448316 95.18172534 0.28615379 98.56025696 C0.2812522 102.33821361 0.30732533 106.11479106 0.34057617 109.89257812 C0.33195053 111.00460602 0.32332489 112.11663391 0.31443787 113.26235962 C0.41385071 120.00926994 1.39973113 124.87299963 6 130 C6.99 130.66 7.98 131.32 9 132 C9.33 132.99 9.66 133.98 10 135 C12.01508358 135.73323796 12.01508358 135.73323796 14 136 C14 136.66 14 137.32 14 138 C18.01996608 138.74890525 21.83553198 139.13327157 25.92260742 139.16113281 C27.06787399 139.17074036 28.21314056 139.1803479 29.39311218 139.19024658 C30.61818985 139.19449646 31.84326752 139.19874634 33.10546875 139.203125 C34.38045731 139.20882507 35.65544586 139.21452515 36.96907043 139.22039795 C39.66471924 139.22983183 42.36025718 139.23673683 45.0559082 139.24023438 C48.48061215 139.2457003 51.90491479 139.26970316 55.32949352 139.29820633 C58.62978729 139.32151305 61.93010429 139.32329434 65.23046875 139.328125 C66.44542526 139.3404718 67.66038177 139.3528186 68.91215515 139.36553955 C76.40022084 139.34618391 82.89375585 138.38350912 90 136 C88.73046875 137.984375 88.73046875 137.984375 87 140 C83.3125 140.25 83.3125 140.25 80 140 C80 140.66 80 141.32 80 142 C71.66330792 142.11620313 63.32695808 142.2048703 54.98965454 142.25906086 C51.11764784 142.2850789 47.246198 142.32033152 43.37451172 142.37719727 C39.63323549 142.43179941 35.89249253 142.46147907 32.15084839 142.47438622 C30.72833875 142.48357599 29.30585605 142.50152147 27.88357544 142.52865028 C20.4043011 142.66554826 14.4476531 142.746784 8.22265625 138.27189636 C7 137 7 137 7 135 C6.38125 134.9175 5.7625 134.835 5.125 134.75 C3 134 3 134 1.75 132.1875 C1 130 1 130 1 126 C0.34 126 -0.32 126 -1 126 C-1.98173546 123.05479361 -2.13593859 121.11703724 -2.15821838 118.04560852 C-2.1680072 117.02337189 -2.17779602 116.00113525 -2.18788147 114.94792175 C-2.19363693 113.82726822 -2.1993924 112.70661469 -2.20532227 111.55200195 C-2.21522186 110.37138184 -2.22512146 109.19076172 -2.23532104 107.97436523 C-2.26151234 104.73705555 -2.28337297 101.49975108 -2.30332303 98.262398 C-2.32519153 94.87910322 -2.35257599 91.49585324 -2.37937927 88.1125946 C-2.42929448 81.70597054 -2.47423765 75.29932159 -2.51740164 68.89264888 C-2.56678403 61.59885542 -2.62169844 54.30510692 -2.67708123 47.01135695 C-2.79088328 32.00761319 -2.89772619 17.0038271 -3 2 C-4.32 1.67 -5.64 1.34 -7 1 C-4 0 -4 0 0 0 Z " fill="#F6E1B1" transform="translate(13,99)"/>
<path d="M0 0 C1.32 0 2.64 0 4 0 C4.02487171 4.98046512 4.04294081 9.96089342 4.05493164 14.94140625 C4.05993487 16.63281891 4.06673952 18.32422731 4.07543945 20.015625 C4.08768185 22.45834411 4.09326855 24.90100562 4.09765625 27.34375 C4.10281754 28.08991577 4.10797882 28.83608154 4.11329651 29.6048584 C4.11380901 34.49124685 3.66416999 39.15882342 3 44 C2.93972169 45.83246055 2.91203785 47.66672511 2.9375 49.5 C2.94652344 50.3559375 2.95554687 51.211875 2.96484375 52.09375 C2.97644531 52.7228125 2.98804687 53.351875 3 54 C4.32 53.67 5.64 53.34 7 53 C6.01 53.99 6.01 53.99 5 55 C4.54025497 56.92901141 4.54025497 56.92901141 4.3671875 59.1328125 C4.24150391 60.34130859 4.24150391 60.34130859 4.11328125 61.57421875 C4.03464844 62.41597656 3.95601563 63.25773437 3.875 64.125 C3.74544922 65.39923828 3.74544922 65.39923828 3.61328125 66.69921875 C3.40097443 68.79869727 3.19946397 70.89926242 3 73 C2.67 73 2.34 73 2 73 C2 68.71 2 64.42 2 60 C1.34 60 0.68 60 0 60 C0 63.96 0 67.92 0 72 C-0.33 72 -0.66 72 -1 72 C-1.02734857 69.97924434 -1.0465517 67.95837779 -1.0625 65.9375 C-1.07410156 64.81214844 -1.08570312 63.68679687 -1.09765625 62.52734375 C-1 59 -1 59 -0.5 55.6875 C0.11962587 51.11775922 0.10801383 46.66639927 0.0625 42.0625 C0.05798828 41.18787109 0.05347656 40.31324219 0.04882812 39.41210938 C0.03714834 37.27470953 0.01921689 35.13734537 0 33 C-20.54611883 22.3866061 -40.52752957 16.73237932 -63.63671875 23.34375 C-66 24 -66 24 -69 24 C-69.33 24.99 -69.66 25.98 -70 27 C-71.70703125 27.9140625 -71.70703125 27.9140625 -73.8125 28.625 C-74.49957031 28.86476563 -75.18664062 29.10453125 -75.89453125 29.3515625 C-77.91683429 29.97438681 -79.94190909 30.50975812 -82 31 C-82 31.66 -82 32.32 -82 33 C-82.66 33 -83.32 33 -84 33 C-83.67 38.61 -83.34 44.22 -83 50 C-87.89192055 42.66211918 -86.12157271 31.36329368 -86.0625 22.875 C-86.05798828 21.63234375 -86.05347656 20.3896875 -86.04882812 19.109375 C-86.03714924 16.07286498 -86.0207714 13.03645912 -86 10 C-85.34 9.67 -84.68 9.34 -84 9 C-82.85017398 13.09003859 -82.88905744 17.03177051 -82.9375 21.25 C-82.94201172 21.99507812 -82.94652344 22.74015625 -82.95117188 23.5078125 C-82.96290754 25.3385764 -82.9808415 27.16929873 -83 29 C-82.01 28.34 -81.02 27.68 -80 27 C-77.3125 26.875 -77.3125 26.875 -75 27 C-75 26.01 -75 25.02 -75 24 C-74.21753906 23.79503906 -73.43507813 23.59007813 -72.62890625 23.37890625 C-71.61699219 23.10949219 -70.60507813 22.84007813 -69.5625 22.5625 C-68.55316406 22.29566406 -67.54382813 22.02882813 -66.50390625 21.75390625 C-64.08247999 21.24021923 -64.08247999 21.24021923 -63 20 C-60.9427083 19.68076508 -58.88386479 19.48838648 -56.8125 19.28125 C-54.9832467 19.18001957 -54.9832467 19.18001957 -54 18 C-40.89836033 16.94693029 -28.26137031 17.07658823 -16 22 C-14.44499311 22.42431576 -12.88284734 22.82404505 -11.3125 23.1875 C-8 24 -8 24 -6 25 C-6 25.66 -6 26.32 -6 27 C-4.02 27 -2.04 27 0 27 C0 18.09 0 9.18 0 0 Z " fill="#DCA83C" transform="translate(104,35)"/>
<path d="M0 0 C1.04081726 -0.00287018 2.08163452 -0.00574036 3.1539917 -0.00869751 C5.33899484 -0.01072731 7.52401661 -0.00527391 9.70898438 0.00732422 C13.05119237 0.02345834 16.39220309 0.00740459 19.734375 -0.01171875 C21.86458599 -0.0097374 23.99479624 -0.00589597 26.125 0 C27.12090149 -0.00607269 28.11680298 -0.01214539 29.1428833 -0.0184021 C34.24595667 0.03339987 37.60426846 0.19074494 41.796875 3.3984375 C44.12168674 4.41809177 46.45482199 5.41903352 48.796875 6.3984375 C50.13700997 7.05132377 51.47429028 7.71069345 52.796875 8.3984375 C52.796875 9.3884375 52.796875 10.3784375 52.796875 11.3984375 C53.786875 11.7284375 54.776875 12.0584375 55.796875 12.3984375 C55.796875 13.0584375 55.796875 13.7184375 55.796875 14.3984375 C56.43625 14.5634375 57.075625 14.7284375 57.734375 14.8984375 C59.796875 16.3984375 59.796875 16.3984375 60.28515625 18.3125 C60.5244728 20.33418905 60.66580528 22.36685689 60.796875 24.3984375 C57.796875 22.3984375 57.796875 22.3984375 57.109375 20.2734375 C57.00625 19.6546875 56.903125 19.0359375 56.796875 18.3984375 C55.75789063 18.48609375 54.71890625 18.57375 53.6484375 18.6640625 C49.01390916 18.34443986 47.59039417 17.20244598 44.171875 14.1484375 C43.27210937 13.35953125 42.37234375 12.570625 41.4453125 11.7578125 C40.57132812 10.97921875 39.69734375 10.200625 38.796875 9.3984375 C37.86101562 8.70234375 36.92515625 8.00625 35.9609375 7.2890625 C34.88972656 6.35320313 34.88972656 6.35320313 33.796875 5.3984375 C33.796875 4.4084375 33.796875 3.4184375 33.796875 2.3984375 C27.56722885 2.37313799 21.33759588 2.35559201 15.10791016 2.34350586 C12.98746241 2.33846878 10.86701815 2.33163891 8.74658203 2.32299805 C5.70344178 2.31090516 2.66034734 2.30520303 -0.3828125 2.30078125 C-1.33493622 2.29561996 -2.28705994 2.29045868 -3.26803589 2.28514099 C-4.58917892 2.28502769 -4.58917892 2.28502769 -5.93701172 2.28491211 C-6.71422577 2.2826915 -7.49143982 2.28047089 -8.29220581 2.27818298 C-10.28964072 2.27913064 -10.28964072 2.27913064 -12.203125 3.3984375 C-12.533125 4.3884375 -12.863125 5.3784375 -13.203125 6.3984375 C-14.76171875 7.78515625 -14.76171875 7.78515625 -16.640625 9.0859375 C-17.25808594 9.52292969 -17.87554687 9.95992187 -18.51171875 10.41015625 C-20.203125 11.3984375 -20.203125 11.3984375 -22.203125 11.3984375 C-22.450625 11.9759375 -22.698125 12.5534375 -22.953125 13.1484375 C-24.4599225 15.86067299 -25.71556113 17.51595674 -28.203125 19.3984375 C-31.953125 19.6484375 -31.953125 19.6484375 -35.203125 19.3984375 C-35.203125 20.0584375 -35.203125 20.7184375 -35.203125 21.3984375 C-35.863125 21.3984375 -36.523125 21.3984375 -37.203125 21.3984375 C-38.36539538 27.01538828 -38.42380412 32.55435789 -38.51953125 38.265625 C-38.54031235 39.30034943 -38.56109344 40.33507385 -38.58250427 41.40115356 C-38.6476532 44.69185024 -38.70672309 47.98262367 -38.765625 51.2734375 C-38.8088432 53.51042446 -38.85245853 55.74740379 -38.89648438 57.984375 C-39.00329889 63.45564908 -39.10512837 68.92699876 -39.203125 74.3984375 C-39.533125 74.3984375 -39.863125 74.3984375 -40.203125 74.3984375 C-40.3306383 67.60339558 -40.41777357 60.80866587 -40.4777832 54.01269531 C-40.50281817 51.70430979 -40.53685654 49.39600267 -40.58032227 47.08789062 C-40.64145873 43.75631285 -40.66944607 40.42578937 -40.69140625 37.09375 C-40.71721268 36.07354767 -40.7430191 35.05334534 -40.76960754 34.00222778 C-40.77264116 26.12801124 -38.99193532 19.21675602 -33.30073547 13.48123169 C-32.14941814 12.50070915 -30.96790731 11.5540962 -29.75390625 10.65234375 C-27.92021218 9.297166 -27.92021218 9.297166 -26.203125 6.3984375 C-17.73711887 1.44272659 -9.69073446 -0.0595754 0 0 Z " fill="#F5DA93" transform="translate(52.203125,14.6015625)"/>
<path d="M0 0 C0.33 0 0.66 0 1 0 C1.02505615 0.98693848 1.0501123 1.97387695 1.07592773 2.99072266 C1.17151498 6.72209343 1.27133855 10.4533418 1.37231445 14.18457031 C1.41510119 15.78642881 1.45680353 17.38831671 1.49731445 18.99023438 C1.69182216 26.6552787 1.90269382 34.29331988 2.53125 41.9375 C3.21394039 50.74554467 3.1079961 59.54704034 3.0625 68.375 C3.05746967 70.09374868 3.05290951 71.8124988 3.04882812 73.53125 C3.0379561 77.68753651 3.02077804 81.8437517 3 86 C3.66 86 4.32 86 5 86 C5.66 87.32 6.32 88.64 7 90 C5.02 90.99 5.02 90.99 3 92 C2 91 2 91 1.9375 87.4375 C1.958125 86.303125 1.97875 85.16875 2 84 C-1.91063224 82.52952664 -1.91063224 82.52952664 -6 82 C-5.34 84.97 -4.68 87.94 -4 91 C-4.99 90.67 -5.98 90.34 -7 90 C-7.9140625 87.96875 -7.9140625 87.96875 -8.625 85.5 C-9.34694531 82.48411921 -9.34694531 82.48411921 -11 80 C-11.07258946 77.81360547 -11.08373783 75.62499611 -11.0625 73.4375 C-11.05347656 72.23996094 -11.04445313 71.04242188 -11.03515625 69.80859375 C-11.02355469 68.88175781 -11.01195312 67.95492187 -11 67 C-9.02 67 -7.04 67 -5 67 C-4.86722656 66.14535156 -4.73445313 65.29070312 -4.59765625 64.41015625 C-4.33275391 62.75306641 -4.33275391 62.75306641 -4.0625 61.0625 C-3.88847656 59.96035156 -3.71445312 58.85820312 -3.53515625 57.72265625 C-3 55 -3 55 -2 54 C-1.88280426 52.52845452 -1.83276213 51.0514772 -1.81054688 49.57543945 C-1.79382935 48.63388504 -1.77711182 47.69233063 -1.7598877 46.72224426 C-1.74631226 45.69628647 -1.73273682 44.67032867 -1.71875 43.61328125 C-1.70034058 42.56351608 -1.68193115 41.51375092 -1.66296387 40.43217468 C-1.60400814 37.05900875 -1.55132486 33.68579015 -1.5 30.3125 C-1.4322089 25.89182337 -1.35841974 21.47130289 -1.28125 17.05078125 C-1.26088684 15.52702629 -1.26088684 15.52702629 -1.2401123 13.9724884 C-1.15703561 9.21517177 -0.97719714 4.67778734 0 0 Z " fill="#F9B832" transform="translate(25,137)"/>
<path d="M0 0 C13.6332574 -0.18451025 13.6332574 -0.18451025 20 1 C20 1.66 20 2.32 20 3 C20.99 3 21.98 3 23 3 C23.19539734 66.76865257 23.19539734 66.76865257 22.5625 96.0625 C22.5330278 97.53097382 22.5330278 97.53097382 22.50296021 99.02911377 C22.44693598 101.73964913 22.38350503 104.44987496 22.31640625 107.16015625 C22.29968872 107.95171616 22.28297119 108.74327606 22.26574707 109.55882263 C22.11625653 114.88374347 22.11625653 114.88374347 21 116 C19.0056827 116.09405142 17.00800457 116.11743249 15.01147461 116.11352539 C13.73022202 116.11344986 12.44896942 116.11337433 11.12889099 116.11329651 C9.72004152 116.10818909 8.31119244 116.10297309 6.90234375 116.09765625 C5.46887766 116.09579202 4.03541093 116.09436814 2.60194397 116.09336853 C-1.17759957 116.08954372 -4.9571049 116.07971377 -8.7366333 116.06866455 C-12.59069298 116.05844963 -16.44475882 116.05387074 -20.29882812 116.04882812 C-27.86590287 116.03809146 -35.43294609 116.02101549 -43 116 C-43 115.67 -43 115.34 -43 115 C-41.93265625 114.97494385 -40.8653125 114.9498877 -39.765625 114.92407227 C-35.72485609 114.82838404 -31.68419644 114.72858906 -27.64355469 114.62768555 C-25.9098571 114.58493552 -24.17613332 114.5432324 -22.44238281 114.50268555 C-12.46825447 114.26864603 -2.52993978 113.91955482 7.421875 113.19897461 C11.29492814 112.98359945 15.12180341 112.96823338 19 113 C19 111.35 19 109.7 19 108 C18.01 107.505 18.01 107.505 17 107 C17.99 106.67 18.98 106.34 20 106 C20 72.67 20 39.34 20 5 C14.88315246 3.53804356 11.20363196 2.69300816 6.0625 2.375 C4.34740234 2.26285156 4.34740234 2.26285156 2.59765625 2.1484375 C1.31181641 2.07496094 1.31181641 2.07496094 0 2 C0 1.34 0 0.68 0 0 Z " fill="#DEAD3F" transform="translate(76,107)"/>
<path d="M0 0 C1.98 0 3.96 0 6 0 C5.01 0.33 4.02 0.66 3 1 C3.00368717 1.62414638 3.00737434 2.24829275 3.01117325 2.89135265 C3.09952777 18.08133559 3.16571117 33.27123965 3.20724869 48.46141338 C3.2278701 55.80729592 3.25598239 63.15300689 3.30175781 70.4987793 C3.34163879 76.9016997 3.36743589 83.30449584 3.37635398 89.707537 C3.3815667 93.09766353 3.39380894 96.48743458 3.42292023 99.87744713 C3.4518868 103.66289875 3.45595864 107.44760998 3.45410156 111.2331543 C3.46848267 112.35596802 3.48286377 113.47878174 3.49768066 114.63562012 C3.45705348 122.27096374 3.45705348 122.27096374 0.97161865 126.23542786 C0.3209845 126.81773666 -0.32964966 127.40004547 -1 128 C-0.855625 127.27296875 -0.71125 126.5459375 -0.5625 125.796875 C0.79449009 118.44651204 1.23828062 111.46612603 1 104 C0.67 104 0.34 104 0 104 C0 69.68 0 35.36 0 0 Z " fill="#E3B960" transform="translate(111,98)"/>
<path d="M0 0 C1.98 0 3.96 0 6 0 C5.67 0.66 5.34 1.32 5 2 C5.020625 3.134375 5.04125 4.26875 5.0625 5.4375 C5 9 5 9 3 12 C2.67 11.67 2.34 11.34 2 11 C1.94092793 15.22910589 1.90604959 19.45810289 1.875 23.6875 C1.85824219 24.86634766 1.84148438 26.04519531 1.82421875 27.25976562 C1.78550045 34.32585583 2.35646825 40.93622951 3.55029297 47.89526367 C4.24778042 52.71065341 4.21614163 57.45745531 4.125 62.3125 C4.11597656 63.25544922 4.10695313 64.19839844 4.09765625 65.16992188 C4.07453964 67.44690774 4.04197579 69.72329772 4 72 C3.67 72 3.34 72 3 72 C2.04380267 68.00204108 1.8960408 64.29196078 1.9375 60.1875 C1.94652344 59.02605469 1.95554687 57.86460938 1.96484375 56.66796875 C1.98224609 55.34732422 1.98224609 55.34732422 2 54 C0.35 54 -1.3 54 -3 54 C-3 54.66 -3 55.32 -3 56 C-3.66 55.67 -4.32 55.34 -5 55 C-4.90748305 48.4160881 -4.80014551 41.83253603 -4.68261719 35.24902344 C-4.64439012 33.01047209 -4.60952639 30.77186063 -4.578125 28.53320312 C-4.53233852 25.31097974 -4.47436586 22.08916793 -4.4140625 18.8671875 C-4.40251129 17.87008759 -4.39096008 16.87298767 -4.37905884 15.84567261 C-4.2735537 10.8516381 -3.96411613 6.67942054 -2 2 C-1.34 2 -0.68 2 0 2 C0 1.34 0 0.68 0 0 Z " fill="#F2B83E" transform="translate(17,34)"/>
<path d="M0 0 C1.8671875 0.25 1.8671875 0.25 4 1 C5.1953125 2.8125 5.1953125 2.8125 6.125 5 C7.33799788 8.15762198 7.33799788 8.15762198 10 10 C12.17799857 10.13299856 14.36004544 10.2012343 16.54174805 10.24047852 C17.54944496 10.25997307 17.54944496 10.25997307 18.57749939 10.27986145 C25.60883266 10.40667668 32.64136417 10.4633413 39.67358398 10.51489258 C43.00791838 10.54162055 46.34081982 10.59032161 49.67456055 10.65844727 C53.7035627 10.74056674 57.73120228 10.78310158 61.76099586 10.79795647 C63.29327349 10.81017759 64.82550803 10.83615011 66.35730553 10.87640572 C74.89558927 11.31983123 74.89558927 11.31983123 82.54043579 8.1635437 C84.28503386 6.18723674 85.70657825 4.29200942 87 2 C88.23487137 5.70461411 87.27985024 6.9994381 85.59375 10.37890625 C81.71563396 14.32355859 75.87454789 14.14669269 70.67260742 14.25878906 C68.15026116 14.27194747 65.62783689 14.2735492 63.10546875 14.265625 C61.74937368 14.26697505 60.39327909 14.26891841 59.03718567 14.27142334 C56.20207081 14.27436162 53.36708249 14.27012097 50.53198242 14.26074219 C46.92455739 14.24938118 43.31743115 14.25589393 39.7100172 14.26788712 C36.91048497 14.27516903 34.11102169 14.27278844 31.3114872 14.26763153 C29.34308806 14.26567482 27.37468608 14.27167995 25.40629578 14.27789307 C10.42928266 14.20036864 10.42928266 14.20036864 5 12 C1.42747178 8.17360712 0 5.26711518 0 0 Z " fill="#C9921F" transform="translate(19,220)"/>
<path d="M0 0 C5 0 5 0 6.8125 1.5 C7.204375 1.995 7.59625 2.49 8 3 C6.35 3.33 4.7 3.66 3 4 C2.67 42.94 2.34 81.88 2 122 C1.34 122 0.68 122 0 122 C0 81.74 0 41.48 0 0 Z " fill="#F6E3B2" transform="translate(114,99)"/>
<path d="M0 0 C0.90766617 -0.00315216 1.81533234 -0.00630432 2.75050354 -0.009552 C3.71834274 -0.00752777 4.68618195 -0.00550354 5.68334961 -0.00341797 C6.68780624 -0.00437469 7.69226288 -0.00533142 8.72715759 -0.00631714 C10.84610049 -0.00699636 12.9650455 -0.00516005 15.08398438 -0.00097656 C18.32744004 0.0043809 21.57075758 -0.00093318 24.81420898 -0.00732422 C26.87475616 -0.0066635 28.93530326 -0.00538247 30.99584961 -0.00341797 C31.96571304 -0.0054422 32.93557648 -0.00746643 33.93482971 -0.009552 C34.83934372 -0.00639984 35.74385773 -0.00324768 36.67578125 0 C37.86561363 0.00119339 37.86561363 0.00119339 39.07948303 0.00241089 C41.26316213 0.12881387 43.17524448 0.52681904 45.27319336 1.12939453 C45.27319336 2.11939453 45.27319336 3.10939453 45.27319336 4.12939453 C46.23225586 4.31501953 46.23225586 4.31501953 47.21069336 4.50439453 C47.89131836 4.71064453 48.57194336 4.91689453 49.27319336 5.12939453 C49.76819336 6.11939453 49.76819336 6.11939453 50.27319336 7.12939453 C44.39819336 5.25439453 44.39819336 5.25439453 43.27319336 4.12939453 C41.81726902 4.02074558 40.35616273 3.98036881 38.89624023 3.96826172 C37.9643689 3.95865417 37.03249756 3.94904663 36.0723877 3.93914795 C34.54756775 3.93277313 34.54756775 3.93277313 32.99194336 3.92626953 C31.94929321 3.92056946 30.90664307 3.91486938 29.83239746 3.90899658 C27.61638407 3.89952503 25.40035647 3.89300409 23.18432617 3.88916016 C19.8152542 3.87951495 16.44680789 3.84853693 13.07788086 3.81689453 C10.92423865 3.81035862 8.77059207 3.80511046 6.61694336 3.80126953 C5.61659058 3.78892273 4.61623779 3.77657593 3.58557129 3.76385498 C-2.73308324 3.78366809 -7.88079926 4.73537114 -13.72680664 7.12939453 C-14.79930664 7.56251953 -15.87180664 7.99564453 -16.97680664 8.44189453 C-20.36447424 10.52069056 -22.30066131 13.00094398 -24.72680664 16.12939453 C-26.04123026 17.48137312 -27.37029024 18.81965456 -28.72680664 20.12939453 C-29.38680664 20.78939453 -30.04680664 21.44939453 -30.72680664 22.12939453 C-30.39680664 19.81939453 -30.06680664 17.50939453 -29.72680664 15.12939453 C-28.73680664 15.12939453 -27.74680664 15.12939453 -26.72680664 15.12939453 C-26.72680664 14.46939453 -26.72680664 13.80939453 -26.72680664 13.12939453 C-25.76774414 12.72720703 -25.76774414 12.72720703 -24.78930664 12.31689453 C-22.39548978 11.24271701 -22.39548978 11.24271701 -21.72680664 8.12939453 C-21.06680664 8.12939453 -20.40680664 8.12939453 -19.72680664 8.12939453 C-19.39680664 7.13939453 -19.06680664 6.14939453 -18.72680664 5.12939453 C-16.83618164 3.99658203 -16.83618164 3.99658203 -14.47680664 3.00439453 C-13.70852539 2.67181641 -12.94024414 2.33923828 -12.14868164 1.99658203 C-8.10860432 0.5499737 -4.27943213 0.00428793 0 0 Z " fill="#FEF6D6" transform="translate(45.726806640625,11.87060546875)"/>
<path d="M0 0 C1.65 0 3.3 0 5 0 C5.33 4.29 5.66 8.58 6 13 C6.33 9.04 6.66 5.08 7 1 C7.33 1 7.66 1 8 1 C8.08302368 1.85549438 8.08302368 1.85549438 8.16772461 2.72827148 C8.41973743 5.29848753 8.67852728 7.86797631 8.9375 10.4375 C9.02451172 11.33533203 9.11152344 12.23316406 9.20117188 13.15820312 C9.28818359 14.01220703 9.37519531 14.86621094 9.46484375 15.74609375 C9.543396 16.53685303 9.62194824 17.3276123 9.70288086 18.14233398 C9.81551499 20.01103348 9.81551499 20.01103348 11 21 C14.21154068 41.67841644 13.22182483 63.14505355 13 84 C12.67 84 12.34 84 12 84 C12 72.45 12 60.9 12 49 C11.34 49 10.68 49 10 49 C9.67 40.09 9.34 31.18 9 22 C8.34 21.67 7.68 21.34 7 21 C7 49.71 7 78.42 7 108 C6.67 108 6.34 108 6 108 C5.98969254 107.02662186 5.97938507 106.05324371 5.96876526 105.05036926 C5.87053695 95.82734126 5.76776169 86.60437334 5.66066074 77.38144398 C5.6057566 72.64111744 5.55239298 67.9007845 5.50268555 63.16040039 C5.45455698 58.57620706 5.40220477 53.9920788 5.34705925 49.40796471 C5.32685285 47.66871472 5.30810748 45.92944706 5.29092598 44.19016457 C5.20211256 35.29583724 5.01509489 26.47284255 4.21716309 17.60693359 C3.92648874 14.11753431 3.90213681 10.68845541 3.9375 7.1875 C3.94652344 6.00542969 3.95554687 4.82335937 3.96484375 3.60546875 C3.97644531 2.74566406 3.98804688 1.88585937 4 1 C2.68 0.67 1.36 0.34 0 0 Z " fill="#C89B3A" transform="translate(14,88)"/>
<path d="M0 0 C1.18493061 2.36986123 1.09399673 3.70878188 1.03759766 6.34765625 C1.02072906 7.25040283 1.00386047 8.15314941 0.98648071 9.08325195 C0.9625827 10.06640381 0.93868469 11.04955566 0.9140625 12.0625 C0.89282318 13.08239014 0.87158386 14.10228027 0.84970093 15.15307617 C0.80332395 17.32541247 0.75438698 19.49769536 0.703125 21.66992188 C0.62662139 24.93088819 0.55868151 28.19194103 0.4921875 31.453125 C0.27906674 41.36582654 -0.02387415 51.2543077 -0.6353302 61.15048218 C-1.25436241 71.63038609 -1.3655074 82.13052065 -1.5625 92.625 C-1.60582789 94.80729748 -1.64944593 96.98958922 -1.69335938 99.171875 C-1.79890763 104.44785537 -1.90091389 109.72389451 -2 115 C-2.33 115 -2.66 115 -3 115 C-3 78.04 -3 41.08 -3 3 C-3.99 2.67 -4.98 2.34 -6 2 C-4.02 1.34 -2.04 0.68 0 0 Z " fill="#B17F11" transform="translate(102,107)"/>
<path d="M0 0 C0.66 0 1.32 0 2 0 C2.07895384 22.99257222 1.86947976 45.97445883 1.53643799 68.9644165 C1.47446283 73.27703593 1.41509843 77.58969137 1.35546875 81.90234375 C1.23943378 90.268265 1.12067071 98.63414433 1 107 C-1.63515594 103.0895447 -1.27403555 98.91038726 -1.24291992 94.3828125 C-1.24576744 93.07948723 -1.24576744 93.07948723 -1.24867249 91.74983215 C-1.25237896 88.87479648 -1.24167073 86.00001329 -1.23046875 83.125 C-1.22927586 81.11922231 -1.22882402 79.11344405 -1.2290802 77.10766602 C-1.2275151 72.89775099 -1.21922871 68.68792097 -1.20581055 64.47802734 C-1.18890832 59.10969731 -1.18499384 53.74146143 -1.18575573 48.37310791 C-1.18548215 44.22584145 -1.17996954 40.07859515 -1.17275429 35.93133545 C-1.16959359 33.95400139 -1.16760636 31.97666506 -1.16686058 29.99932861 C-1.15893258 19.95642521 -1.12623874 9.99493482 0 0 Z " fill="#EDBE58" transform="translate(104,95)"/>
<path d="M0 0 C1.39061646 -0.00217529 1.39061646 -0.00217529 2.80932617 -0.00439453 C8.04581076 0.08005725 12.4803312 0.6750107 17.4375 2.375 C17.4375 2.705 17.4375 3.035 17.4375 3.375 C16.50478271 3.38958252 15.57206543 3.40416504 14.61108398 3.41918945 C11.12369905 3.48053899 7.63706549 3.55474401 4.15014648 3.63745117 C2.64601813 3.67053909 1.14177042 3.69862045 -0.36254883 3.72143555 C-2.53518144 3.75528166 -4.70673613 3.8076062 -6.87890625 3.86328125 C-8.18287354 3.88946533 -9.48684082 3.91564941 -10.83032227 3.94262695 C-15.04873768 4.43133067 -17.75474578 5.55630984 -21.5625 7.375 C-23.05627124 7.83331618 -24.55564194 8.27423855 -26.0625 8.6875 C-30.75110603 10.20487421 -34.31331123 12.6616414 -37.5625 16.375 C-37.8925 17.365 -38.2225 18.355 -38.5625 19.375 C-39.2225 19.375 -39.8825 19.375 -40.5625 19.375 C-40.5625 24.325 -40.5625 29.275 -40.5625 34.375 C-40.8925 34.375 -41.2225 34.375 -41.5625 34.375 C-41.8925 27.445 -42.2225 20.515 -42.5625 13.375 C-41.9025 13.375 -41.2425 13.375 -40.5625 13.375 C-40.5625 12.715 -40.5625 12.055 -40.5625 11.375 C-37.69130297 9.28685671 -35.24711991 8.28564231 -31.8125 7.3125 C-30.74 7.003125 -29.6675 6.69375 -28.5625 6.375 C-28.2325 5.715 -27.9025 5.055 -27.5625 4.375 C-18.58567797 0.97299552 -9.55101933 0.00160104 0 0 Z " fill="#4B3C1E" transform="translate(62.5625,54.625)"/>
<path d="M0 0 C1.54385376 0.24339111 1.54385376 0.24339111 3.11889648 0.49169922 C9.42546922 1.27450792 15.75250537 1.14274661 22.09765625 1.1328125 C23.45950844 1.13348752 24.8213605 1.1344592 26.18321228 1.13571167 C29.02490394 1.1371788 31.86656399 1.13506559 34.70825195 1.13037109 C38.33492322 1.12466894 41.96152055 1.12796215 45.58818913 1.13394356 C48.39615935 1.13757119 51.20411228 1.13640058 54.01208305 1.13381577 C55.99447045 1.13283268 57.97685855 1.13584772 59.95924377 1.13894653 C65.73886235 1.12395127 71.3112156 1.06469768 77 0 C73.90068969 3.58867509 70.67661568 4.86695925 65.96903992 5.24050903 C64.84318985 5.23606781 63.71733978 5.23162659 62.55737305 5.22705078 C61.27642258 5.22689972 59.99547211 5.22674866 58.67570496 5.22659302 C57.28770795 5.2163813 55.89971256 5.20594933 54.51171875 5.1953125 C53.08397113 5.1915795 51.65622095 5.18873388 50.22846985 5.18673706 C46.48181001 5.17912318 42.73530674 5.15949419 38.9887085 5.1373291 C35.16111366 5.11682214 31.33349338 5.107725 27.50585938 5.09765625 C20.0038351 5.07624599 12.50193954 5.04213741 5 5 C5 4.34 5 3.68 5 3 C3.35 2.67 1.7 2.34 0 2 C0 1.34 0 0.68 0 0 Z " fill="#F0B741" transform="translate(26,232)"/>
<path d="M0 0 C0.90009293 -0.00095673 1.80018585 -0.00191345 2.72755432 -0.00289917 C4.63323028 -0.00358036 6.53890856 -0.00173031 8.44458008 0.00244141 C11.36349706 0.00778429 14.28225974 0.00249757 17.20117188 -0.00390625 C19.05078159 -0.00324534 20.90039121 -0.0019639 22.75 0 C23.62506699 -0.00202423 24.50013397 -0.00404846 25.40171814 -0.00613403 C26.21588699 -0.00298187 27.03005585 0.00017029 27.86889648 0.00341797 C28.58456284 0.00421356 29.30022919 0.00500916 30.0375824 0.00582886 C31.94140625 0.1328125 31.94140625 0.1328125 34.94140625 1.1328125 C35.43640625 2.6178125 35.43640625 2.6178125 35.94140625 4.1328125 C37.56792941 5.83867825 39.23147191 7.5105671 40.94140625 9.1328125 C40.19890625 8.8234375 39.45640625 8.5140625 38.69140625 8.1953125 C34.7992331 6.69151833 32.16163856 6.1328125 27.94140625 6.1328125 C27.94140625 5.4728125 27.94140625 4.8128125 27.94140625 4.1328125 C24.56642467 4.10358604 21.19147604 4.08593782 17.81640625 4.0703125 C16.86507812 4.06193359 15.91375 4.05355469 14.93359375 4.04492188 C10.15122138 4.02831642 5.64369056 4.12744195 0.94140625 5.1328125 C0.61140625 4.1428125 0.28140625 3.1528125 -0.05859375 2.1328125 C-3.35859375 2.4628125 -6.65859375 2.7928125 -10.05859375 3.1328125 C-10.38859375 4.1228125 -10.71859375 5.1128125 -11.05859375 6.1328125 C-11.84234375 6.5865625 -12.62609375 7.0403125 -13.43359375 7.5078125 C-16.19822691 8.93784773 -16.19822691 8.93784773 -17.49609375 11.5703125 C-19.47049254 14.80832651 -21.84201322 16.20286418 -25.05859375 18.1328125 C-25.71859375 17.8028125 -26.37859375 17.4728125 -27.05859375 17.1328125 C-23.18896756 12.21427664 -19.35701137 8.49526983 -14.05859375 5.1328125 C-13.39859375 5.1328125 -12.73859375 5.1328125 -12.05859375 5.1328125 C-11.93484375 4.4934375 -11.81109375 3.8540625 -11.68359375 3.1953125 C-11.47734375 2.5146875 -11.27109375 1.8340625 -11.05859375 1.1328125 C-7.64790494 -0.57253191 -3.75185594 -0.00865887 0 0 Z " fill="#E9BB53" transform="translate(51.05859375,15.8671875)"/>
<path d="M0 0 C3.76733971 3.52428553 4.92634346 5.42917856 5.17358398 10.7019043 C5.20187127 12.24260569 5.22575063 13.78339199 5.24609375 15.32421875 C5.27905086 17.00977045 5.31226217 18.6953172 5.34570312 20.38085938 C5.39294646 23.02917865 5.43735073 25.6774806 5.47680664 28.32592773 C5.51683645 30.88807523 5.56832095 33.44980628 5.62109375 36.01171875 C5.6295079 36.79222092 5.63792206 37.57272308 5.64659119 38.37687683 C5.76098397 43.535628 6.46255909 48.06076379 8 53 C9.95376381 55.01385848 9.95376381 55.01385848 12 56 C11.67 56.66 11.34 57.32 11 58 C10.31292969 57.566875 9.62585938 57.13375 8.91796875 56.6875 C8.01691406 56.130625 7.11585937 55.57375 6.1875 55 C5.29417969 54.443125 4.40085937 53.88625 3.48046875 53.3125 C1.02577377 51.76615208 1.02577377 51.76615208 -2 52 C-2.66 52.99 -3.32 53.98 -4 55 C-4 50.71 -4 46.42 -4 42 C-3.67 42 -3.34 42 -3 42 C-3 44.64 -3 47.28 -3 50 C-1.35 50 0.3 50 2 50 C1.88083814 44.48636915 1.75653942 38.97288554 1.62768555 33.45947266 C1.58464097 31.58775905 1.54294762 29.71601381 1.50268555 27.84423828 C1.4442362 25.1382498 1.38076599 22.43241612 1.31640625 19.7265625 C1.29969376 18.90322418 1.28298126 18.07988586 1.26576233 17.2315979 C1.12165528 11.45094407 0.64638333 5.74557686 0 0 Z " fill="#EFBD4F" transform="translate(110,37)"/>
<path d="M0 0 C1.32 0.33 2.64 0.66 4 1 C4 1.66 4 2.32 4 3 C4.66 3.33 5.32 3.66 6 4 C4.68 4 3.36 4 2 4 C2 38.32 2 72.64 2 108 C-3 107 -3 107 -4 106 C-4.09439978 103.73008113 -4.11742226 101.45718033 -4.11352539 99.18530273 C-4.11367142 98.47314606 -4.11381744 97.76098938 -4.1139679 97.0272522 C-4.1132687 94.66266888 -4.10547606 92.29816339 -4.09765625 89.93359375 C-4.09579209 88.29834537 -4.09436818 86.66309643 -4.09336853 85.02784729 C-4.08954318 80.71565215 -4.07971275 76.40349048 -4.06866455 72.09130859 C-4.0584508 67.69434054 -4.05387099 63.29736711 -4.04882812 58.90039062 C-4.03809049 50.26691169 -4.02101387 41.63346 -4 33 C-3.67 33 -3.34 33 -3 33 C-2.9845388 34.28333221 -2.9845388 34.28333221 -2.96876526 35.59259033 C-2.87078275 43.6558587 -2.76826715 51.71905395 -2.66066074 59.78219986 C-2.60549932 63.92752713 -2.55209023 68.07286153 -2.50268555 72.21826172 C-2.45494189 76.21888037 -2.4025956 80.21941476 -2.34705925 84.21993256 C-2.32668098 85.74612072 -2.3079605 87.27233195 -2.29092598 88.7985611 C-2.2667815 90.93643016 -2.23674106 93.07414124 -2.20532227 95.21191406 C-2.18977798 96.4288092 -2.1742337 97.64570435 -2.15821838 98.8994751 C-2.02716747 101.46761302 -1.89738407 103.59847595 -1 106 C-0.34 106.33 0.32 106.66 1 107 C0.505 54.035 0.505 54.035 0 0 Z " fill="#9E7B38" transform="translate(109,94)"/>
<path d="M0 0 C0.77923828 0.61488281 0.77923828 0.61488281 1.57421875 1.2421875 C5.2423777 4.07636576 8.51449706 6.59828033 13 8 C13 8.66 13 9.32 13 10 C17.01996608 10.74890525 20.83553198 11.13327157 24.92260742 11.16113281 C26.06787399 11.17074036 27.21314056 11.1803479 28.39311218 11.19024658 C29.61818985 11.19449646 30.84326752 11.19874634 32.10546875 11.203125 C33.38045731 11.20882507 34.65544586 11.21452515 35.96907043 11.22039795 C38.66471924 11.22983183 41.36025718 11.23673683 44.0559082 11.24023438 C47.48061215 11.2457003 50.90491479 11.26970316 54.32949352 11.29820633 C57.62978729 11.32151305 60.93010429 11.32329434 64.23046875 11.328125 C66.05290352 11.3466452 66.05290352 11.3466452 67.91215515 11.36553955 C75.40022084 11.34618391 81.89375585 10.38350912 89 8 C87.73046875 9.984375 87.73046875 9.984375 86 12 C82.3125 12.25 82.3125 12.25 79 12 C79 12.66 79 13.32 79 14 C70.66330792 14.11620313 62.32695808 14.2048703 53.98965454 14.25906086 C50.11764784 14.2850789 46.246198 14.32033152 42.37451172 14.37719727 C38.63323549 14.43179941 34.89249253 14.46147907 31.15084839 14.47438622 C29.72833875 14.48357599 28.30585605 14.50152147 26.88357544 14.52865028 C19.4043011 14.66554826 13.4476531 14.746784 7.22265625 10.27189636 C6 9 6 9 6 7 C5.38125 6.95875 4.7625 6.9175 4.125 6.875 C3.42375 6.58625 2.7225 6.2975 2 6 C0.75 2.9375 0.75 2.9375 0 0 Z " fill="#FDF0CB" transform="translate(14,227)"/>
<path d="M0 0 C4.90253826 0.29712353 9.42166891 2.70898016 13 6 C13.5 9.3125 13.5 9.3125 13 12 C4.31034483 8.62068966 4.31034483 8.62068966 3 6 C2.01 5.67 1.02 5.34 0 5 C-0.75132732 18.30114942 -1.18535394 31.56973001 -1.31640625 44.890625 C-1.33706204 46.70050435 -1.35806013 48.51037981 -1.37937927 50.32025146 C-1.43371232 55.00859365 -1.48350019 59.69697262 -1.53222656 64.38537598 C-1.58310404 69.19965764 -1.63843873 74.01388806 -1.69335938 78.828125 C-1.7998494 88.21870589 -1.90152105 97.60933191 -2 107 C-2.33 107 -2.66 107 -3 107 C-3.04666059 95.83711595 -3.08203855 84.6742557 -3.10362434 73.51129341 C-3.11399253 68.32601564 -3.12802193 63.14080536 -3.15087891 57.95556641 C-3.17285891 52.93697333 -3.18462074 47.91844453 -3.18975449 42.89980698 C-3.19340567 40.99998846 -3.20053301 39.10017283 -3.21146011 37.20038223 C-3.27854099 25.03659162 -2.92849502 13.03407187 -1 1 C-0.67 0.67 -0.34 0.34 0 0 Z " fill="#7E5A19" transform="translate(109,89)"/>
<path d="M0 0 C5.37847449 0.25803776 9.63452421 2.56523917 14.3125 5 C15.04017578 5.36867188 15.76785156 5.73734375 16.51757812 6.1171875 C21.83068452 8.83068452 21.83068452 8.83068452 23 10 C23.08651611 11.41570123 23.10704904 12.835595 23.09765625 14.25390625 C23.09443359 15.10791016 23.09121094 15.96191406 23.08789062 16.84179688 C23.07951172 17.73962891 23.07113281 18.63746094 23.0625 19.5625 C23.05798828 20.46419922 23.05347656 21.36589844 23.04882812 22.29492188 C23.03700225 24.53001314 23.0205222 26.76497437 23 29 C22.67 29 22.34 29 22 29 C21.505 19.595 21.505 19.595 21 10 C19.68 10 18.36 10 17 10 C17.99 10.33 18.98 10.66 20 11 C19.67 12.32 19.34 13.64 19 15 C17.68 14.34 16.36 13.68 15 13 C15 12.34 15 11.68 15 11 C13.41058594 10.81824219 13.41058594 10.81824219 11.7890625 10.6328125 C10.40098676 10.46399248 9.01296881 10.29469692 7.625 10.125 C6.57699219 10.00705078 6.57699219 10.00705078 5.5078125 9.88671875 C0.2265625 9.2265625 0.2265625 9.2265625 -2 7 C-2.25 4.5 -2.25 4.5 -2 2 C-1.34 1.34 -0.68 0.68 0 0 Z " fill="#444243" transform="translate(82,58)"/>
<path d="M0 0 C-3.95495425 2.61537297 -8.16827373 2.44264274 -12.75 2.625 C-13.93916016 2.68300781 -13.93916016 2.68300781 -15.15234375 2.7421875 C-17.10119416 2.836108 -19.05056451 2.91912822 -21 3 C-23.5613258 6.85055395 -23.27088401 10.84526769 -23.23046875 15.29296875 C-23.23037308 16.13195206 -23.2302774 16.97093536 -23.23017883 17.83534241 C-23.22642093 20.61953329 -23.20736545 23.40338081 -23.1875 26.1875 C-23.18060424 28.12923044 -23.17410045 30.07096231 -23.16796875 32.01269531 C-23.06789238 54.67895695 -22.54740665 77.34085887 -22 100 C-22.33 100 -22.66 100 -23 100 C-23.76858744 95.15644481 -24.16903905 90.44378703 -24.29711914 85.54272461 C-24.31677231 84.83267273 -24.33642548 84.12262085 -24.35667419 83.39105225 C-24.42012163 81.06156895 -24.47775132 78.73198315 -24.53515625 76.40234375 C-24.57826522 74.76436071 -24.62168184 73.12638574 -24.66539001 71.48841858 C-24.75607838 68.05817522 -24.8440639 64.62787713 -24.92993164 61.19750977 C-25.03909182 56.83939854 -25.15336317 52.48144137 -25.26950932 48.12351131 C-25.35940334 44.73883431 -25.44731045 41.35410801 -25.53457451 37.96936226 C-25.57602109 36.36488333 -25.6178749 34.76041487 -25.66017342 33.15595818 C-25.91449691 23.43406755 -26.05623706 13.72597755 -26 4 C-17.23721504 -0.45501951 -9.59458342 -0.42854219 0 0 Z " fill="#D7A53C" transform="translate(54,107)"/>
<path d="M0 0 C0.33 0 0.66 0 1 0 C1 15.51 1 31.02 1 47 C-20.12 47 -41.24 47 -63 47 C-63 46.67 -63 46.34 -63 46 C-61.93265625 45.97494385 -60.8653125 45.9498877 -59.765625 45.92407227 C-55.72485609 45.82838404 -51.68419644 45.72858906 -47.64355469 45.62768555 C-45.9098571 45.58493552 -44.17613332 45.5432324 -42.44238281 45.50268555 C-32.46825447 45.26864603 -22.52993978 44.91955482 -12.578125 44.19897461 C-8.70507186 43.98359945 -4.87819659 43.96823338 -1 44 C-1 42.35 -1 40.7 -1 39 C-1.99 38.505 -1.99 38.505 -3 38 C-2.01 37.67 -1.02 37.34 0 37 C0 24.79 0 12.58 0 0 Z " fill="#EBB63D" transform="translate(96,176)"/>
<path d="M0 0 C0.66 0.33 1.32 0.66 2 1 C1.26523437 1.73089844 1.26523437 1.73089844 0.515625 2.4765625 C-1.6298605 6.04868527 -1.3543642 9.33563121 -1.25 13.375 C-1.23904297 14.27943848 -1.22808594 15.18387695 -1.21679688 16.11572266 C-1.12685151 22.14108466 -0.94101778 28.1641303 -0.765625 34.1875 C-0.69973052 36.46166509 -0.63393754 38.73583289 -0.56845093 41.01000977 C-0.52272222 42.58994372 -0.4763532 44.16985926 -0.42935181 45.74975586 C0.20806666 67.49626219 0.09301253 89.246516 0 111 C-0.33 111 -0.66 111 -1 111 C-2.45470981 82.55578057 -3.07358588 54.06143478 -3.23117065 25.5821228 C-3.24367975 23.61758665 -3.26116179 21.65307559 -3.28372192 19.68862915 C-3.31335787 16.95111425 -3.32346713 14.2142188 -3.328125 11.4765625 C-3.34042648 10.65976517 -3.35272797 9.84296783 -3.36540222 9.00141907 C-3.34355485 3.45862476 -3.34355485 3.45862476 -1.47949219 0.97021484 C-0.99125977 0.65004395 -0.50302734 0.32987305 0 0 Z " fill="#F2B737" transform="translate(33,111)"/>
<path d="M0 0 C0.66 0.33 1.32 0.66 2 1 C1.38125 1.0825 0.7625 1.165 0.125 1.25 C-2.14785979 1.80581505 -2.14785979 1.80581505 -3.1875 3.875 C-3.83464059 5.56752155 -4.42698864 7.28096593 -5 9 C-4.29875 8.67 -3.5975 8.34 -2.875 8 C0 7 0 7 6 7 C6 41.32 6 75.64 6 111 C5.67 111 5.34 111 5 111 C5 77.01 5 43.02 5 8 C2.69 8.33 0.38 8.66 -2 9 C-2 9.66 -2 10.32 -2 11 C-3.65 11 -5.3 11 -7 11 C-7.39600661 7.53494217 -7.14386351 6.21827567 -5.1875 3.25 C-3 1 -3 1 0 0 Z " fill="#E6C376" transform="translate(8,91)"/>
<path d="M0 0 C3.34373475 0.55728913 6.03312999 1.35173889 9 3 C8.67 2.01 8.34 1.02 8 0 C9.98 0.66 11.96 1.32 14 2 C14 2.99 14 3.98 14 5 C14.99 5.33 15.98 5.66 17 6 C17 6.66 17 7.32 17 8 C17.639375 8.165 18.27875 8.33 18.9375 8.5 C21 10 21 10 21.48828125 11.9140625 C21.7275978 13.93575155 21.86893028 15.96841939 22 18 C19 16 19 16 18.3125 13.875 C18.209375 13.25625 18.10625 12.6375 18 12 C16.45119141 12.13341797 16.45119141 12.13341797 14.87109375 12.26953125 C10.18750421 11.94342865 8.58130853 10.71396495 5.0625 7.6875 C4.10472656 6.88699219 3.14695312 6.08648437 2.16015625 5.26171875 C0 3 0 3 0 0 Z " fill="#F6E3A3" transform="translate(91,21)"/>
<path d="M0 0 C-0.33 0.99 -0.66 1.98 -1 3 C-22.45 3 -43.9 3 -66 3 C-65.67 2.34 -65.34 1.68 -65 1 C-57.70630354 0.86877591 -50.41259361 0.73832843 -43.11886597 0.60884857 C-39.73141811 0.54868995 -36.34397531 0.48827259 -32.95654297 0.42724609 C-29.05437358 0.35707864 -25.15218882 0.28782749 -21.25 0.21875 C-19.44172729 0.18593933 -19.44172729 0.18593933 -17.59692383 0.15246582 C-11.73018071 0.04948598 -5.86764548 -0.02529158 0 0 Z " fill="#F7BF45" transform="translate(100,226)"/>
<path d="M0 0 C0 0.66 0 1.32 0 2 C0.91523437 1.97679688 1.83046875 1.95359375 2.7734375 1.9296875 C3.96195313 1.91164063 5.15046875 1.89359375 6.375 1.875 C7.55835938 1.85179688 8.74171875 1.82859375 9.9609375 1.8046875 C13 2 13 2 15 4 C-2.49 4 -19.98 4 -38 4 C-30.55783248 -3.44216752 -9.8214699 -0.17342992 0 0 Z " fill="#F1C259" transform="translate(76,107)"/>
<path d="M0 0 C0.33 0 0.66 0 1 0 C1 7.59 1 15.18 1 23 C14.86 23 28.72 23 43 23 C43 23.33 43 23.66 43 24 C37.97716113 25.0151052 33.19786627 25.13052591 28.1015625 25.09765625 C27.26660248 25.0962413 26.43164246 25.09482635 25.57138062 25.09336853 C22.92254958 25.08780174 20.2738052 25.07525547 17.625 25.0625 C15.82161581 25.0574807 14.01823029 25.05291855 12.21484375 25.04882812 C7.80986279 25.0378432 3.40494606 25.02060163 -1 25 C-1.0289337 21.20834926 -1.04677601 17.41672673 -1.0625 13.625 C-1.07087891 12.54476562 -1.07925781 11.46453125 -1.08789062 10.3515625 C-1.09111328 9.3203125 -1.09433594 8.2890625 -1.09765625 7.2265625 C-1.10289307 6.27346191 -1.10812988 5.32036133 -1.11352539 4.33837891 C-1 2 -1 2 0 0 Z " fill="#F8BC3E" transform="translate(34,197)"/>
<path d="M0 0 C7.875 0.875 7.875 0.875 9 2 C8.90731017 3.98236643 8.74923733 5.96177299 8.5625 7.9375 C8.07083844 13.64833813 7.88362001 19.27151805 8 25 C9.32 24.67 10.64 24.34 12 24 C11.34 24.66 10.68 25.32 10 26 C9.54025497 27.92901141 9.54025497 27.92901141 9.3671875 30.1328125 C9.28339844 30.93847656 9.19960937 31.74414062 9.11328125 32.57421875 C8.99533203 33.83685547 8.99533203 33.83685547 8.875 35.125 C8.78863281 35.97449219 8.70226562 36.82398438 8.61328125 37.69921875 C8.40097443 39.79869727 8.19946397 41.89926242 8 44 C7.67 44 7.34 44 7 44 C7 39.71 7 35.42 7 31 C6.34 31 5.68 31 5 31 C5 34.96 5 38.92 5 43 C4.67 43 4.34 43 4 43 C3.97265143 40.97924434 3.9534483 38.95837779 3.9375 36.9375 C3.92589844 35.81214844 3.91429688 34.68679687 3.90234375 33.52734375 C4 30 4 30 4.48046875 26.671875 C5.11289625 22.20208666 5.29792489 17.821394 5.375 13.3125 C5.41238281 12.47138672 5.44976562 11.63027344 5.48828125 10.76367188 C5.52198807 8.40232184 5.49552506 6.31000464 5 4 C2.66631422 1.37679396 2.66631422 1.37679396 0 0 Z " fill="#C1953C" transform="translate(99,64)"/>
<path d="M0 0 C-0.66017624 -0.00444122 -1.32035248 -0.00888245 -2.00053406 -0.01345825 C-8.92847509 -0.05801954 -15.8563748 -0.08800134 -22.78442383 -0.10986328 C-25.36321672 -0.11986423 -27.94199844 -0.13346932 -30.52075195 -0.15087891 C-34.24693577 -0.17538853 -37.97296847 -0.18654254 -41.69921875 -0.1953125 C-42.8351799 -0.20563507 -43.97114105 -0.21595764 -45.14152527 -0.22659302 C-52.92716166 -0.22766206 -60.34152981 0.61203968 -68 2 C-68.33 1.34 -68.66 0.68 -69 0 C-66.69 0 -64.38 0 -62 0 C-62 -0.66 -62 -1.32 -62 -2 C-7.74712644 -5.16475096 -7.74712644 -5.16475096 0 0 Z " fill="#644B1B" transform="translate(93,108)"/>
<path d="M0 0 C-0.52207031 0.18433594 -1.04414062 0.36867187 -1.58203125 0.55859375 C-8.70870469 3.36682759 -14.509157 7.67584331 -20 13 C-20.33 13.99 -20.66 14.98 -21 16 C-21.66 16 -22.32 16 -23 16 C-23 20.95 -23 25.9 -23 31 C-23.33 31 -23.66 31 -24 31 C-24.33 24.07 -24.66 17.14 -25 10 C-24.34 10 -23.68 10 -23 10 C-23 9.34 -23 8.68 -23 8 C-20.12880297 5.91185671 -17.68461991 4.91064231 -14.25 3.9375 C-13.1775 3.628125 -12.105 3.31875 -11 3 C-10.67 2.34 -10.34 1.68 -10 1 C-6.18004171 -0.61287128 -3.94567184 -1.20681069 0 0 Z " fill="#5D4821" transform="translate(45,58)"/>
<path d="M0 0 C0 15.84 0 31.68 0 48 C-1.485 48.495 -1.485 48.495 -3 49 C-4.19835342 46.60329316 -4.08740203 45.22101577 -4.02172852 42.55029297 C-4.00163223 41.62948944 -3.98153595 40.70868591 -3.96083069 39.75997925 C-3.93379562 38.76410797 -3.90676056 37.76823669 -3.87890625 36.7421875 C-3.85529526 35.72399933 -3.83168427 34.70581116 -3.80735779 33.6567688 C-3.73061879 30.39604095 -3.64663844 27.13554451 -3.5625 23.875 C-3.50928957 21.66798018 -3.45654911 19.46094897 -3.40429688 17.25390625 C-3.27498984 11.83579347 -3.13973278 6.41785337 -3 1 C-1 0 -1 0 0 0 Z " fill="#C39227" transform="translate(101,175)"/>
<path d="M0 0 C0.33 0 0.66 0 1 0 C1.23680854 24.9175209 1.23680854 24.9175209 0 32 C-0.66 32.66 -1.32 33.32 -2 34 C-9.18421053 33.54385965 -9.18421053 33.54385965 -13 31 C-9.7 31.33 -6.4 31.66 -3 32 C-3.02320312 30.80761719 -3.04640625 29.61523438 -3.0703125 28.38671875 C-3.08907178 26.82031876 -3.10727181 25.253912 -3.125 23.6875 C-3.14175781 22.90181641 -3.15851563 22.11613281 -3.17578125 21.30664062 C-3.18222656 20.54931641 -3.18867187 19.79199219 -3.1953125 19.01171875 C-3.20578613 18.31522217 -3.21625977 17.61872559 -3.22705078 16.90112305 C-3 15 -3 15 -1 12 C-0.54084493 9.03157342 -0.54084493 9.03157342 -0.375 5.8125 C-0.30023438 4.72582031 -0.22546875 3.63914062 -0.1484375 2.51953125 C-0.09945312 1.68808594 -0.05046875 0.85664062 0 0 Z " fill="#37280E" transform="translate(103,75)"/>
<path d="M0 0 C0.33 0 0.66 0 1 0 C1.29058463 4.44300813 1.57509646 8.88635567 1.85449219 13.33007812 C1.94991458 14.83506213 2.04686651 16.33995011 2.14550781 17.84472656 C2.78259168 27.58300849 3.14001027 37.23622805 3 47 C2.01 46.67 1.02 46.34 0 46 C0 30.82 0 15.64 0 0 Z " fill="#F2B93E" transform="translate(25,153)"/>
<path d="M0 0 C1.98 0 3.96 0 6 0 C5 2 5 2 3.0625 2.75 C0.07801806 4.55877694 -0.11298968 6.72488499 -1 10 C-1.33 10.66 -1.66 11.32 -2 12 C-2.08401519 13.3480372 -2.10727077 14.70016273 -2.09765625 16.05078125 C-2.09435303 16.88504639 -2.0910498 17.71931152 -2.08764648 18.57885742 C-2.07934814 19.48095947 -2.0710498 20.38306152 -2.0625 21.3125 C-2.05871338 22.23716064 -2.05492676 23.16182129 -2.05102539 24.11450195 C-2.03877899 27.0763812 -2.02014854 30.03816458 -2 33 C-1.97349775 36.89583068 -1.95345423 40.79161345 -1.9375 44.6875 C-1.92920166 45.58960205 -1.92090332 46.4917041 -1.91235352 47.42114258 C-1.90905029 48.25540771 -1.90574707 49.08967285 -1.90234375 49.94921875 C-1.89710693 50.68487061 -1.89187012 51.42052246 -1.88647461 52.1784668 C-2 54 -2 54 -3 56 C-3.66 55.67 -4.32 55.34 -5 55 C-4.90748305 48.4160881 -4.80014551 41.83253603 -4.68261719 35.24902344 C-4.64439012 33.01047209 -4.60952639 30.77186063 -4.578125 28.53320312 C-4.53233852 25.31097974 -4.47436586 22.08916793 -4.4140625 18.8671875 C-4.40251129 17.87008759 -4.39096008 16.87298767 -4.37905884 15.84567261 C-4.2735537 10.8516381 -3.96411613 6.67942054 -2 2 C-1.34 2 -0.68 2 0 2 C0 1.34 0 0.68 0 0 Z " fill="#ECBF5A" transform="translate(17,34)"/>
<path d="M0 0 C5.44154396 0.54843908 9.54034259 2.51622016 14.3125 5 C15.04017578 5.36867188 15.76785156 5.73734375 16.51757812 6.1171875 C21.83068452 8.83068452 21.83068452 8.83068452 23 10 C23.08651611 11.41570123 23.10704904 12.835595 23.09765625 14.25390625 C23.09443359 15.10791016 23.09121094 15.96191406 23.08789062 16.84179688 C23.07951172 17.73962891 23.07113281 18.63746094 23.0625 19.5625 C23.05798828 20.46419922 23.05347656 21.36589844 23.04882812 22.29492188 C23.03700225 24.53001314 23.0205222 26.76497437 23 29 C22.67 29 22.34 29 22 29 C21.505 19.595 21.505 19.595 21 10 C18.69 9.67 16.38 9.34 14 9 C11.45591905 7.8827581 9.36170644 6.49414081 7 5 C7 4.34 7 3.68 7 3 C4.36 3 1.72 3 -1 3 C-0.67 2.01 -0.34 1.02 0 0 Z " fill="#523B18" transform="translate(82,58)"/>
<path d="M0 0 C0.33 0 0.66 0 1 0 C1.03738281 1.02480469 1.07476562 2.04960937 1.11328125 3.10546875 C1.17897079 4.46618062 1.24541709 5.82685611 1.3125 7.1875 C1.33505859 7.86103516 1.35761719 8.53457031 1.38085938 9.22851562 C1.61845791 13.6564884 2.50845855 16.36650205 5 20 C5.6875 22.8125 5.6875 22.8125 6 25 C6.99 25.33 7.98 25.66 9 26 C11.1875 27.9375 11.1875 27.9375 13 30 C13 30.66 13 31.32 13 32 C14.65 32.33 16.3 32.66 18 33 C18.33 33.99 18.66 34.98 19 36 C17.35 35.67 15.7 35.34 14 35 C14 34.34 14 33.68 14 33 C12.35 32.67 10.7 32.34 9 32 C9 31.01 9 30.02 9 29 C8.39631592 28.7421875 7.79263184 28.484375 7.1706543 28.21875 C3.42345276 26.1148213 1.65414443 22.89134026 0 19 C-0.55000394 15.62826613 -0.48244439 12.40411679 -0.3125 9 C-0.28994141 8.12988281 -0.26738281 7.25976562 -0.24414062 6.36328125 C-0.18584794 4.24142749 -0.09619084 2.12047371 0 0 Z " fill="#F0BC5B" transform="translate(13,202)"/>
<path d="M0 0 C13.6332574 -0.18451025 13.6332574 -0.18451025 20 1 C20 1.66 20 2.32 20 3 C20.66 3 21.32 3 22 3 C22 13.56 22 24.12 22 35 C21.67 35 21.34 35 21 35 C20.67 25.1 20.34 15.2 20 5 C14.88315246 3.53804356 11.20363196 2.69300816 6.0625 2.375 C4.91910156 2.30023438 3.77570313 2.22546875 2.59765625 2.1484375 C1.31181641 2.07496094 1.31181641 2.07496094 0 2 C0 1.34 0 0.68 0 0 Z " fill="#DBAF50" transform="translate(76,107)"/>
<path d="M0 0 C2.53526761 3.80290141 2.31431728 6.91456227 2.34375 11.32421875 C2.3583728 12.14445023 2.37299561 12.9646817 2.38806152 13.80976868 C2.43456369 16.43562935 2.46872851 19.06141647 2.5 21.6875 C2.54140074 25.12917514 2.59525405 28.57034137 2.65625 32.01171875 C2.6615271 32.79222092 2.6668042 33.57272308 2.67224121 34.37687683 C2.76458027 39.54304606 3.45758512 44.05458146 5 49 C6.95376381 51.01385848 6.95376381 51.01385848 9 52 C8.67 52.66 8.34 53.32 8 54 C4.97852839 52.86638584 3.25242614 52.21084433 1 50 C-0.08375445 46.25147875 0.04611074 42.55189885 0.09765625 38.671875 C0.08536484 37.56773254 0.07307343 36.46359009 0.06040955 35.32598877 C0.02862059 31.7999875 0.04497529 28.27606767 0.0625 24.75 C0.04939482 22.35935551 0.03315691 19.968726 0.01367188 17.578125 C-0.02723439 11.71843869 -0.02862114 5.85973686 0 0 Z " fill="#F6D892" transform="translate(113,41)"/>
<path d="M0 0 C0 0.66 0 1.32 0 2 C-11.94878968 3.46739522 -23.98594227 3.0947251 -36 3 C-35.67 2.34 -35.34 1.68 -35 1 C-23.31923512 0.33591591 -11.70134149 -0.15956375 0 0 Z " fill="#B88513" transform="translate(98,223)"/>
<path d="M0 0 C2.61218429 3.88664099 2.25415198 7.98880926 2.1953125 12.484375 C2.1924826 13.29996887 2.18965271 14.11556274 2.18673706 14.95587158 C2.17556558 17.55406528 2.15046675 20.15191095 2.125 22.75 C2.11496627 24.51431793 2.10584111 26.27864128 2.09765625 28.04296875 C2.07563619 32.36211273 2.04112733 36.68099741 2 41 C-2.86942708 33.69585937 -1.15227225 22.39644378 -1.125 13.9375 C-1.12886719 12.70322266 -1.13273437 11.46894531 -1.13671875 10.19726562 C-1.13542969 9.02744141 -1.13414063 7.85761719 -1.1328125 6.65234375 C-1.13168457 5.59007568 -1.13055664 4.52780762 -1.12939453 3.43334961 C-1 1 -1 1 0 0 Z " fill="#D8A231" transform="translate(19,44)"/>
<path d="M0 0 C2.14812398 4.00983143 3.07613263 7.57850097 3.31640625 12.109375 C3.35830078 12.86347656 3.40019531 13.61757812 3.44335938 14.39453125 C3.48267578 15.17183594 3.52199219 15.94914062 3.5625 16.75 C3.62727539 17.93916016 3.62727539 17.93916016 3.69335938 19.15234375 C3.79902991 21.10137815 3.89997966 23.05066748 4 25 C6.475 25.99 6.475 25.99 9 27 C9 27.33 9 27.66 9 28 C6.36 28 3.72 28 1 28 C0.17961409 21.598406 -0.12754513 15.38697499 -0.0625 8.9375 C-0.05798828 8.07189453 -0.05347656 7.20628906 -0.04882812 6.31445312 C-0.03719913 4.20960461 -0.01927073 2.10479242 0 0 Z " fill="#3E2A0B" transform="translate(22,80)"/>
<path d="M0 0 C0.33 0 0.66 0 1 0 C1.22786458 2.05078125 1.45572917 4.1015625 1.68359375 6.15234375 C1.81886614 8.01140229 1.81886614 8.01140229 3 9 C5.14229384 9.22932286 7.29140143 9.39554555 9.44140625 9.53515625 C10.74658203 9.62216797 12.05175781 9.70917969 13.39648438 9.79882812 C14.78514997 9.88681791 16.17382194 9.97470722 17.5625 10.0625 C18.95510593 10.1538741 20.34768454 10.24566553 21.74023438 10.33789062 C25.15990878 10.56271351 28.57980779 10.78322059 32 11 C32 11.33 32 11.66 32 12 C21.44 12 10.88 12 0 12 C0 8.04 0 4.08 0 0 Z " fill="#B28111" transform="translate(30,213)"/>
<path d="M0 0 C3.83246777 -0.36499693 5.86465013 -0.06516845 9.375 1.625 C12 4 12 4 12.375 7.25 C12.25125 8.1575 12.1275 9.065 12 10 C8.9168649 8.80100302 5.93720508 7.52299523 3 6 C3 4.68 3 3.36 3 2 C2.01 2 1.02 2 0 2 C0 1.34 0 0.68 0 0 Z " fill="#352C26" transform="translate(110,91)"/>
<path d="M0 0 C1.33529302 -0.01572841 2.67057976 -0.0320003 4.00585938 -0.04882812 C5.26849609 -0.04947266 6.53113281 -0.05011719 7.83203125 -0.05078125 C9.55450073 -0.05525269 9.55450073 -0.05525269 11.31176758 -0.05981445 C14.1875 0.3125 14.1875 0.3125 16.0847168 1.83520508 C16.44863525 2.3227124 16.81255371 2.81021973 17.1875 3.3125 C15.90875 3.1475 14.63 2.9825 13.3125 2.8125 C8.22642516 2.31115834 3.16915116 2.16700412 -1.9375 2.125 C-2.6888623 2.11210938 -3.44022461 2.09921875 -4.21435547 2.0859375 C-9.41035815 2.07683966 -13.80418771 2.93925308 -18.8125 4.3125 C-21.8125 4.4375 -21.8125 4.4375 -23.8125 4.3125 C-22.8125 2.3125 -22.8125 2.3125 -19.67578125 1.20703125 C-13.21098039 -0.26243832 -6.59363818 -0.01631281 0 0 Z " fill="#2A292D" transform="translate(63.8125,62.6875)"/>
<path d="M0 0 C1.32 0.33 2.64 0.66 4 1 C4.35233161 6.37305699 4.35233161 6.37305699 4 9 C2 11 2 11 0 12 C0.66 9.36 1.32 6.72 2 4 C0.02 6.31 -1.96 8.62 -4 11 C-5.32 10.67 -6.64 10.34 -8 10 C-7.01 10 -6.02 10 -5 10 C-5 8.68 -5 7.36 -5 6 C-4.34 5.67 -3.68 5.34 -3 5 C-2.67 4.01 -2.34 3.02 -2 2 C-1.34 2 -0.68 2 0 2 C0 1.34 0 0.68 0 0 Z " fill="#EE9C3E" transform="translate(104,219)"/>
<path d="M0 0 C0 0.66 0 1.32 0 2 C-1.32 2 -2.64 2 -4 2 C-4.04125 2.598125 -4.0825 3.19625 -4.125 3.8125 C-5 6 -5 6 -7.9375 7.75 C-11 9 -11 9 -13 9 C-12.27483153 5.49501906 -11.34655985 2.91373704 -8.25 0.8125 C-5.41619739 -0.21081761 -2.98930704 -0.13587759 0 0 Z " fill="#282623" transform="translate(16,91)"/>
<path d="M0 0 C1.8671875 0.25 1.8671875 0.25 4 1 C5.1953125 2.8125 5.1953125 2.8125 6.125 5 C7.33799788 8.15762198 7.33799788 8.15762198 10 10 C10 10.66 10 11.32 10 12 C7.8125 12.5 7.8125 12.5 5 12 C1.64805307 8.19508726 0 5.09674098 0 0 Z " fill="#D97529" transform="translate(19,220)"/>
<path d="M0 0 C0.02722517 2.20826378 0.04649729 4.41662638 0.0625 6.625 C0.07410156 7.85476562 0.08570313 9.08453125 0.09765625 10.3515625 C0.00863924 13.67723791 -0.36313913 16.74047588 -1 20 C-1.33 20 -1.66 20 -2 20 C-2 15.05 -2 10.1 -2 5 C-2.66 5 -3.32 5 -4 5 C-4.66 6.32 -5.32 7.64 -6 9 C-6.66 8.67 -7.32 8.34 -8 8 C-7.34 6.68 -6.68 5.36 -6 4 C-4.68 4 -3.36 4 -2 4 C-2 3.34 -2 2.68 -2 2 C-3.32 1.67 -4.64 1.34 -6 1 C-4 0 -4 0 0 0 Z " fill="#6F5118" transform="translate(18,89)"/>
<path d="M0 0 C5.75 1.75 5.75 1.75 8 4 C8.56520003 6.65537372 8.73788198 9.29144713 9 12 C6 10 6 10 5.3125 7.875 C5.209375 7.25625 5.10625 6.6375 5 6 C3.88625 6.061875 2.7725 6.12375 1.625 6.1875 C0.42875 6.125625 -0.7675 6.06375 -2 6 C-2.66 5.01 -3.32 4.02 -4 3 C-2.68 3.33 -1.36 3.66 0 4 C0 2.68 0 1.36 0 0 Z " fill="#F1DA99" transform="translate(104,27)"/>
<path d="M0 0 C0.66 0.33 1.32 0.66 2 1 C0.92435672 3.83578683 0.22387589 4.86797063 -2.4375 6.4375 C-5.14857713 7.81466666 -5.14857713 7.81466666 -6.4375 10.4375 C-8.41189879 13.67551401 -10.78341947 15.07005168 -14 17 C-14.66 16.67 -15.32 16.34 -16 16 C-12.13037381 11.08146414 -8.29841762 7.36245733 -3 4 C-2.34 4 -1.68 4 -1 4 C-0.67 2.68 -0.34 1.36 0 0 Z " fill="#F1C255" transform="translate(40,17)"/>
<path d="M0 0 C0.66 0 1.32 0 2 0 C2 10.56 2 21.12 2 32 C1.67 32 1.34 32 1 32 C1 26.06 1 20.12 1 14 C0.34 14 -0.32 14 -1 14 C-0.67 9.38 -0.34 4.76 0 0 Z " fill="#DCAD4A" transform="translate(104,95)"/>
<path d="M0 0 C-2.38573379 1.89213369 -4.07175348 3.02391783 -7 4 C-8.26679448 5.46168593 -9.52960693 6.92818852 -10.734375 8.44140625 C-12.35601051 10.43842035 -14.15073528 12.21450303 -16 14 C-16.66 14.66 -17.32 15.32 -18 16 C-17.67 13.69 -17.34 11.38 -17 9 C-16.01 9 -15.02 9 -14 9 C-14 8.34 -14 7.68 -14 7 C-13.360625 6.731875 -12.72125 6.46375 -12.0625 6.1875 C-9.66868314 5.11332248 -9.66868314 5.11332248 -9 2 C-8.34 2 -7.68 2 -7 2 C-7 1.34 -7 0.68 -7 0 C-2.25 -1.125 -2.25 -1.125 0 0 Z " fill="#F9EED3" transform="translate(33,18)"/>
<path d="M0 0 C1.48009643 0.97776067 2.95905144 1.9572494 4.4375 2.9375 C5.26121094 3.48277344 6.08492188 4.02804688 6.93359375 4.58984375 C9 6 9 6 10 7 C12.33297433 7.04092937 14.66705225 7.04241723 17 7 C17.33 8.65 17.66 10.3 18 12 C16.39402675 11.54803755 14.79027492 11.08817673 13.1875 10.625 C12.29417969 10.36976562 11.40085937 10.11453125 10.48046875 9.8515625 C8 9 8 9 5 7 C5 6.34 5 5.68 5 5 C3.68 4.67 2.36 4.34 1 4 C0.67 2.68 0.34 1.36 0 0 Z " fill="#EFC057" transform="translate(92,25)"/>
<path d="M0 0 C-0.99 0.495 -0.99 0.495 -2 1 C-2.33 1.99 -2.66 2.98 -3 4 C-5.0625 5.1875 -5.0625 5.1875 -7 6 C-7 5.34 -7 4.68 -7 4 C-8.1446875 4.495 -8.1446875 4.495 -9.3125 5 C-12 6 -12 6 -15 6 C-15 5.34 -15 4.68 -15 4 C-10.10216966 0.24119997 -6.08006534 -2.02668845 0 0 Z " fill="#EED48A" transform="translate(42,17)"/>
<path d="M0 0 C1.32 0.33 2.64 0.66 4 1 C4 1.99 4 2.98 4 4 C4.99 4.33 5.98 4.66 7 5 C6.67 5.66 6.34 6.32 6 7 C5.01 6.34 4.02 5.68 3 5 C3 6.32 3 7.64 3 9 C-1.67692308 7.52307692 -1.67692308 7.52307692 -3.3125 4.875 C-3.539375 4.25625 -3.76625 3.6375 -4 3 C-2.35 3 -0.7 3 1 3 C0.67 2.01 0.34 1.02 0 0 Z " fill="#FEF5C9" transform="translate(101,22)"/>
<path d="M0 0 C0.33 0 0.66 0 1 0 C1.90885959 4.77151283 2.15015147 9.45486886 2.25 14.3125 C2.27578125 15.52550781 2.3015625 16.73851562 2.328125 17.98828125 C2.21984375 18.98214844 2.1115625 19.97601563 2 21 C1.01 21.66 0.02 22.32 -1 23 C-1.0272367 20.47909222 -1.04695207 17.95848543 -1.0625 15.4375 C-1.07087891 14.73302734 -1.07925781 14.02855469 -1.08789062 13.30273438 C-1.10882603 8.75975202 -0.74800682 4.48215108 0 0 Z " fill="#C08E1B" transform="translate(30,200)"/>
<path d="M0 0 C0.77923828 0.61488281 0.77923828 0.61488281 1.57421875 1.2421875 C5.94594686 4.65499442 5.94594686 4.65499442 10.875 7.125 C13 8 13 8 14.3125 10.125 C14.6528125 11.053125 14.6528125 11.053125 15 12 C11.65626525 11.44271087 8.96687001 10.64826111 6 9 C6 8.34 6 7.68 6 7 C5.38125 6.95875 4.7625 6.9175 4.125 6.875 C3.42375 6.58625 2.7225 6.2975 2 6 C0.75 2.9375 0.75 2.9375 0 0 Z " fill="#FDF2D1" transform="translate(14,227)"/>
<path d="M0 0 C0.33 0.66 0.66 1.32 1 2 C1.66 2.33 2.32 2.66 3 3 C2.030625 3.61875 1.06125 4.2375 0.0625 4.875 C-3.02835362 6.65678846 -3.02835362 6.65678846 -4 9 C-3.01 9.33 -2.02 9.66 -1 10 C-1.66 10.66 -2.32 11.32 -3 12 C-6.125 11.625 -6.125 11.625 -9 11 C-7.49770909 7.17598678 -5.1988409 5.4791017 -2 3 C-1.34 2.01 -0.68 1.02 0 0 Z " fill="#F2E0B0" transform="translate(26,21)"/>
<path d="M0 0 C0.33 0 0.66 0 1 0 C1 4.62 1 9.24 1 14 C-1 11 -1 11 -2 7.875 C-2.6686673 4.87488938 -2.6686673 4.87488938 -5 4 C-5 3.34 -5 2.68 -5 2 C-3.35 2 -1.7 2 0 2 C0 1.34 0 0.68 0 0 Z " fill="#EFB842" transform="translate(112,200)"/>
<path d="M0 0 C1.32 0.33 2.64 0.66 4 1 C4 1.66 4 2.32 4 3 C4.66 3.33 5.32 3.66 6 4 C4.68 4 3.36 4 2 4 C2 9.94 2 15.88 2 22 C1.67 22 1.34 22 1 22 C0.67 14.74 0.34 7.48 0 0 Z " fill="#A48142" transform="translate(109,94)"/>
<path d="M0 0 C6.97548744 -0.52645188 12.69183144 0.95292019 19 4 C20.82421875 5.63671875 20.82421875 5.63671875 22 7 C20.783125 6.566875 19.56625 6.13375 18.3125 5.6875 C12.31551229 3.67573096 6.17436743 2.34557312 0 1 C0 0.67 0 0.34 0 0 Z " fill="#B38B3F" transform="translate(73,55)"/>
<path d="M0 0 C2 0.875 2 0.875 4 2 C4.66 2.33 5.32 2.66 6 3 C6.38063221 5.3260857 6.71269945 7.66055264 7 10 C7.33 10.66 7.66 11.32 8 12 C6.1875 11.4375 6.1875 11.4375 4 10 C2.96514123 7.68191636 1.9644586 5.34824702 1 3 C0.01 2.34 -0.98 1.68 -2 1 C-1.34 0.67 -0.68 0.34 0 0 Z " fill="#F9A93C" transform="translate(21,218)"/>
<path d="M0 0 C0.66 0.33 1.32 0.66 2 1 C1.38125 1.0825 0.7625 1.165 0.125 1.25 C-2.14785979 1.80581505 -2.14785979 1.80581505 -3.1875 3.875 C-3.83464059 5.56752155 -4.42698864 7.28096593 -5 9 C-2.69 8.34 -0.38 7.68 2 7 C1.67 7.66 1.34 8.32 1 9 C0.01 9 -0.98 9 -2 9 C-2 9.66 -2 10.32 -2 11 C-3.65 11 -5.3 11 -7 11 C-7.39600661 7.53494217 -7.14386351 6.21827567 -5.1875 3.25 C-3 1 -3 1 0 0 Z " fill="#8E908F" transform="translate(8,91)"/>
<path d="M0 0 C7.875 0.875 7.875 0.875 9 2 C9.04063832 3.66617115 9.042721 5.33388095 9 7 C8.34 7 7.68 7 7 7 C7 8.98 7 10.96 7 13 C6.67 13 6.34 13 6 13 C5.98582031 12.39671875 5.97164063 11.7934375 5.95703125 11.171875 C5.68721054 5.71123416 5.68721054 5.71123416 2.4375 1.4375 C1.633125 0.963125 0.82875 0.48875 0 0 Z " fill="#AE8332" transform="translate(99,64)"/>
<path d="M0 0 C0.33 1.32 0.66 2.64 1 4 C0.01 4.33 -0.98 4.66 -2 5 C-2.12375 5.78375 -2.2475 6.5675 -2.375 7.375 C-3 10 -3 10 -5 12 C-7.125 11.625 -7.125 11.625 -9 11 C-8.51789063 10.45730469 -8.03578125 9.91460937 -7.5390625 9.35546875 C-6.90742187 8.64003906 -6.27578125 7.92460937 -5.625 7.1875 C-4.68527344 6.12595703 -4.68527344 6.12595703 -3.7265625 5.04296875 C-1.859401 2.91196181 -1.859401 2.91196181 0 0 Z " fill="#FCE8B8" transform="translate(112,223)"/>
<path d="M0 0 C1 3 1 3 0.22265625 4.82421875 C-0.8515625 6.54947917 -1.92578125 8.27473958 -3 10 C-4.32 9.34 -5.64 8.68 -7 8 C-4.69 5.36 -2.38 2.72 0 0 Z " fill="#D46829" transform="translate(106,222)"/>
<path d="M0 0 C0.66 0.33 1.32 0.66 2 1 C-7.22551253 10 -7.22551253 10 -13 10 C-11 7 -11 7 -8.1875 6.125 C-4.42838207 4.79825249 -2.62989717 2.93929684 0 0 Z " fill="#F0C275" transform="translate(107,228)"/>
<path d="M0 0 C0.66 0 1.32 0 2 0 C3.25 6.625 3.25 6.625 1 10 C0.34 9.67 -0.32 9.34 -1 9 C-1.09765625 2.84765625 -1.09765625 2.84765625 -1 1 C-0.67 0.67 -0.34 0.34 0 0 Z " fill="#EBAF2C" transform="translate(19,36)"/>
<path d="M0 0 C0.33 0 0.66 0 1 0 C1.2475 1.258125 1.495 2.51625 1.75 3.8125 C2.48837994 6.83557727 2.79382006 7.8059483 5.125 10 C5.74375 10.33 6.3625 10.66 7 11 C6.67 11.66 6.34 12.32 6 13 C1.125 10.25 1.125 10.25 0 8 C-0.13415472 5.3276379 -0.04318541 2.67749512 0 0 Z " fill="#D0CCBD" transform="translate(115,82)"/>
<path d="M0 0 C3.9492568 0.55105909 7.34920174 1.38935371 11 3 C9.02 3.99 9.02 3.99 7 5 C7 4.34 7 3.68 7 3 C4.36 3 1.72 3 -1 3 C-0.67 2.01 -0.34 1.02 0 0 Z " fill="#5D4A2D" transform="translate(82,58)"/>
<path d="M0 0 C1.60031344 3.20062687 0.03173691 5.72271806 -1 9 C-1.66 9 -2.32 9 -3 9 C-3 7.02 -3 5.04 -3 3 C-3.99 2.67 -4.98 2.34 -6 2 C-4.02 1.34 -2.04 0.68 0 0 Z " fill="#AE8127" transform="translate(102,107)"/>
<path d="M0 0 C1.32 0 2.64 0 4 0 C3.3125 1.9375 3.3125 1.9375 2 4 C-0.625 4.75 -0.625 4.75 -3 5 C-1.125 1.125 -1.125 1.125 0 0 Z " fill="#FDF4CB" transform="translate(25,25)"/>
<path d="M0 0 C1.07999887 3.2399966 0.92129428 4.38363535 0.1875 7.625 C0.01605469 8.42164063 -0.15539062 9.21828125 -0.33203125 10.0390625 C-1 12 -1 12 -3 13 C-3 10.69 -3 8.38 -3 6 C-2.34 6 -1.68 6 -1 6 C-0.67 4.02 -0.34 2.04 0 0 Z " fill="#F6B548" transform="translate(111,215)"/>
<path d="M0 0 C1.65 0 3.3 0 5 0 C5.66 1.65 6.32 3.3 7 5 C4.03824877 4.38722388 2.61941217 3.74627478 0 2 C0 1.34 0 0.68 0 0 Z " fill="#E9D494" transform="translate(93,19)"/>
<path d="M0 0 C5.49152542 0.61016949 5.49152542 0.61016949 7.875 2.4375 C9 4 9 4 9 6 C5.70195229 5.43137108 4.19980011 4.49977286 2 2 C1.34 1.34 0.68 0.68 0 0 Z " fill="#D5A43D" transform="translate(90,58)"/>
<path d="M0 0 C1.485 0.99 1.485 0.99 3 2 C3.3125 5 3.3125 5 3 8 C2.34 8.66 1.68 9.32 1 10 C0.67 6.7 0.34 3.4 0 0 Z " fill="#F0C155" transform="translate(110,37)"/>
<path d="M0 0 C1.9375 0.5 1.9375 0.5 4 2 C4.68790422 4.69658452 4.81946464 7.2017019 5 10 C0.76169024 7.17446016 1.02284652 4.87819112 0 0 Z " fill="#F9E6B3" transform="translate(108,29)"/>
<path d="M0 0 C1.98 0.495 1.98 0.495 4 1 C4 1.99 4 2.98 4 4 C4.99 4.33 5.98 4.66 7 5 C6.67 5.66 6.34 6.32 6 7 C3.69 6.01 1.38 5.02 -1 4 C-0.34 3.34 0.32 2.68 1 2 C0.67 1.34 0.34 0.68 0 0 Z " fill="#F7E9C4" transform="translate(101,22)"/>
<path d="M0 0 C0.33 0.99 0.66 1.98 1 3 C1.66 3 2.32 3 3 3 C3.33 5.64 3.66 8.28 4 11 C0.85041169 7.57653445 0.43820891 4.55737263 0 0 Z " fill="#FEFAE3" transform="translate(112,32)"/>
<path d="M0 0 C1.48206495 0.254496 2.96068615 0.52911762 4.4375 0.8125 C5.67306641 1.03873047 5.67306641 1.03873047 6.93359375 1.26953125 C7.95646484 1.63111328 7.95646484 1.63111328 9 2 C9.33 2.99 9.66 3.98 10 5 C8.35 4.67 6.7 4.34 5 4 C5 3.34 5 2.68 5 2 C3.35 1.67 1.7 1.34 0 1 C0 0.67 0 0.34 0 0 Z " fill="#F1C673" transform="translate(22,233)"/>
<path d="M0 0 C0.66 0.33 1.32 0.66 2 1 C1 4 1 4 -0.875 5.1875 C-3 6 -3 6 -6 6 C-6 5.34 -6 4.68 -6 4 C-4.03852126 2.61061923 -2.03833424 1.2739589 0 0 Z " fill="#E7D5A1" transform="translate(33,17)"/>
<path d="M0 0 C0.66 0.33 1.32 0.66 2 1 C0.35 3.64 -1.3 6.28 -3 9 C-4.04449911 5.86650268 -3.93423645 5.01031744 -3 2 C-2.01 2 -1.02 2 0 2 C0 1.34 0 0.68 0 0 Z " fill="#FDF9E0" transform="translate(19,25)"/>
</svg>
